<?xml version="1.0" standalone="no"?>
<!DOCTYPE svg PUBLIC "-//W3C//DTD SVG 1.1//EN" "http://www.w3.org/Graphics/SVG/1.1/DTD/svg11.dtd" >
<svg xmlns="http://www.w3.org/2000/svg">
<metadata></metadata>
<defs>
<font id="mielregular" horiz-adv-x="1034" >
<font-face units-per-em="2048" ascent="1638" descent="-410" />
<missing-glyph horiz-adv-x="716" />
<glyph horiz-adv-x="0" />
<glyph unicode="&#xd;" horiz-adv-x="935" />
<glyph unicode=" "  horiz-adv-x="716" />
<glyph unicode="&#x09;" horiz-adv-x="716" />
<glyph unicode="&#xa0;" horiz-adv-x="716" />
<glyph unicode="!" horiz-adv-x="487" d="M88 47q0 27 14.5 56.5t38 52t51 38t54.5 15.5q25 0 42 -13.5t28.5 -33t15.5 -43t4 -41.5v-21q10 -12 10 -34q0 -33 -37 -46.5t-82 -13.5q-66 0 -102.5 21.5t-36.5 62.5zM186 596q0 135 4.5 265t18.5 263q4 41 10 86t17.5 112t28.5 163t44 237q-23 6 -34 29t-11 49 q0 16 4 35.5t12.5 36t21.5 28t34 11.5q23 0 37 -14.5t21 -35t10.5 -46t3.5 -50.5q0 -53 -6.5 -123.5t-15.5 -152.5t-23.5 -170t-28.5 -178q-31 -182 -57.5 -380t-53.5 -376q-2 -14 -7 -18.5t-11 -6.5q-4 0 -10.5 4.5t-6.5 20.5q0 53 -1 105.5t-1 105.5zM217 82q0 -12 19 -12 q26 0 36 14q-2 10 -7 24.5t-13 18.5q-16 0 -25.5 -17.5t-9.5 -27.5z" />
<glyph unicode="&#x22;" horiz-adv-x="610" d="M70 1827q0 43 30.5 72.5t67.5 29.5q27 0 44 -14t27.5 -37t14.5 -49.5t4 -50.5q0 -55 -12.5 -112.5t-28.5 -105t-33.5 -77t-27.5 -29.5q-12 0 -13 29q0 72 1 133.5t1 122.5q-43 2 -59 30.5t-16 57.5zM119 1823q0 -20 28 -27q2 10 2.5 20.5t4.5 26.5q-35 0 -35 -20z M309 1866q0 41 28 80t77 39q31 0 51 -17.5t31.5 -45.5t15.5 -60.5t4 -63.5q0 -82 -16.5 -147.5t-38 -110.5t-44 -68.5t-32.5 -23.5q-12 0 -15 9t-3 20q0 23 4 76t4 151v44t-2 44q-23 6 -43.5 22.5t-20.5 51.5z" />
<glyph unicode="#" horiz-adv-x="1157" d="M86 819q0 23 26.5 35t92.5 23q18 4 46 7t62 7q2 59 3 117.5t1 99.5q0 63 4.5 76.5t12.5 13.5q6 0 12 -10t10 -51q4 -47 9.5 -107.5t9.5 -132.5q47 6 95 11t97 12q4 82 7.5 146t7.5 97q4 47 10 60.5t18 13.5q17 0 23 -49q6 -47 14 -112.5t19 -143.5q59 8 107 15t79 16 q59 14 72 14q18 0 18 -16q0 -14 -14.5 -33t-69.5 -33q-35 -10 -83 -17.5t-103 -13.5q4 -39 8 -79l8 -80q117 8 188.5 17t106.5 9q47 0 47 -31t-32.5 -49t-82 -28.5t-105.5 -15.5t-103 -7h-11q12 -154 13 -299q0 -63 -10.5 -95t-39.5 -32q-53 0 -80.5 50t-27.5 136 q0 31 1 92.5t3 139.5q-94 -6 -158 -12q4 -25 5 -50.5t6 -48.5q6 -53 11 -87t8 -57.5t5 -40.5t2 -38q0 -45 -39 -45q-29 0 -47 16.5t-28.5 42t-14.5 56t-4 57.5v87t2 99q-72 -8 -111.5 -13t-58.5 -5q-16 0 -28.5 6t-12.5 21q0 10 9.5 18t19.5 12q80 33 184 56q2 41 3 84t3 84 q-78 -6 -126 -11.5t-48 -9.5q0 -2 7.5 -5t16.5 -7t16 -7t7 -6q0 -8 -20 -8q-6 0 -19.5 1t-26 6.5t-22.5 12.5t-10 19zM381 838q4 -39 5 -78t5 -80q39 4 81 8t87 8q2 41 3 80t3 78q-47 -4 -93 -8t-91 -8z" />
<glyph unicode="$" horiz-adv-x="1245" d="M74 610q0 35 11 71t35.5 63.5t61.5 45t86 17.5q35 0 70 -21.5t35 -62.5q0 -29 -20.5 -55.5t-53.5 -26.5q-41 0 -41 35q0 12 7 22.5t24 14.5q-2 6 -9.5 14t-23.5 8q-37 0 -53.5 -27.5t-16.5 -54.5q0 -43 22.5 -77.5t57.5 -61.5t80 -47.5t92 -32.5q-2 53 -2 102.5v90.5 q0 113 4 223.5t9 222.5q-59 8 -110.5 20.5t-89.5 33t-60.5 53t-22.5 84.5q0 51 24.5 93t66.5 74.5t96.5 55t115.5 35.5q0 23 1 46t1 46t-4 34t-10 19t-10.5 14.5t-4.5 18.5q0 16 10.5 24.5t20.5 8.5q27 0 33 -51.5t6 -114.5v-39q70 12 139 12h16.5t18.5 -2q0 37 -1 74t-5 78 q-2 16 -12.5 23t-10.5 26q0 16 7.5 20t11.5 4q20 0 26 -24q18 -47 28.5 -100.5t17.5 -108.5q49 -8 100 -23.5t94 -40t70.5 -58.5t27.5 -77q0 -41 -31.5 -62.5t-68.5 -21.5q-29 0 -58.5 17.5t-29.5 58.5q0 29 23.5 52.5t48.5 23.5q-33 12 -76 20t-92 11q2 -29 2 -54.5v-52.5 q0 -57 -1 -113.5t-3 -113.5q78 -16 149.5 -45t126.5 -76t88 -117t33 -168q0 -86 -27.5 -157.5t-78 -127t-120 -93.5t-153.5 -56q14 -90 43 -147q6 -14 18.5 -33t12.5 -29q0 -20 -31 -20q-59 0 -87 61.5t-40 157.5q-12 -2 -25.5 -2h-25.5q-55 0 -113 6q4 -45 8.5 -72t4.5 -43 q0 -45 -27 -45q-25 0 -39 50t-22 124q-72 16 -138.5 45t-120 71t-85 99.5t-31.5 130.5zM246 1245q0 -49 57 -70.5t150 -33.5q4 66 6 131t6 131q-43 -10 -82 -24.5t-69.5 -33t-49 -44t-18.5 -56.5zM500 858q0 -147 3 -255.5t7 -186.5q29 -6 55.5 -8t46.5 -2h28.5t29.5 2 q-6 72 -8.5 143.5t-2.5 144.5q0 86 3.5 172t7.5 172q-80 14 -168 25q-2 -53 -2 -104.5v-102.5zM504 1133q41 -4 83 -10.5t85 -12.5l8 160t6 162q-31 -2 -77 -6.5t-99 -14.5q0 -74 -2 -143.5t-4 -134.5zM745 784q0 -94 1.5 -187t7.5 -179q51 10 98 30.5t83 54.5t56.5 80.5 t20.5 112.5q0 76 -20.5 130.5t-56.5 92t-83 62.5t-102 41q-2 -59 -3.5 -118.5t-1.5 -119.5z" />
<glyph unicode="%" horiz-adv-x="1179" d="M55 1100q0 45 16.5 96t44 94t66.5 71t86 28q4 0 10.5 -1.5t10.5 -1.5q20 16 45.5 32t54.5 16q39 0 62.5 -26t37 -62.5t18.5 -76.5t5 -71q0 -55 -14.5 -116.5t-44 -111.5t-73.5 -83t-106 -33q-53 0 -93 21.5t-68.5 55.5t-43 78t-14.5 91zM109 1102q0 -37 12 -73 t33.5 -63.5t49 -44t60.5 -16.5q68 0 103.5 50.5t52.5 123.5q-33 -35 -72 -54t-80 -19q-63 0 -92 47t-29 104q0 45 19.5 84t42.5 70q-49 -33 -74.5 -91.5t-25.5 -117.5zM135 199q0 12 6 18q55 80 114.5 178.5t121 204t122 214t120 209.5t114.5 189t107 156q37 51 90 97 t117 46q41 0 64.5 -26.5t23.5 -63.5q0 -53 -35 -89t-84 -36q-18 0 -36 5.5t-30 19.5q-94 -109 -181 -240t-174 -272t-180 -287.5t-198 -288.5q-10 -12 -25.5 -33.5t-35.5 -21.5t-21 21zM209 1147q0 -39 22.5 -57.5t57.5 -18.5q68 0 109.5 47t41.5 113q0 16 -2 37.5t-8 41 t-18.5 33t-32.5 13.5q-31 0 -61.5 -23.5t-54 -55.5t-39 -67.5t-15.5 -62.5zM643 526q0 68 20.5 127t61.5 86q29 39 77 71t107 32q49 0 81 -25.5t50.5 -63.5t25.5 -82t7 -81q0 -72 -24.5 -138.5t-90.5 -107.5q-29 -41 -78 -66.5t-89 -25.5q-43 0 -71 30.5t-45.5 74.5 t-24.5 91.5t-7 77.5zM715 508q0 -23 3 -54.5t12 -61.5t25.5 -51.5t41.5 -21.5q37 0 61.5 23t37.5 53.5t19.5 65t6.5 59.5q0 31 -5.5 61.5t-16.5 55.5t-30.5 40t-46.5 15q-35 0 -56.5 -19.5t-32.5 -47t-15 -59t-4 -58.5zM807 768h14q49 0 82 -19.5t53.5 -51t28.5 -71.5t8 -83 q1 -83 -22 -146q35 39 50 95.5t15 111.5q0 31 -7 68t-21.5 68.5t-39 52t-59.5 20.5q-23 0 -48 -10t-54 -35zM989 1350q0 -8 9.5 -11.5t19.5 -3.5q23 0 36 21.5t13 38.5q0 29 -18 41q-6 -2 -16.5 -10.5t-19.5 -20.5t-16.5 -26.5t-7.5 -28.5z" />
<glyph unicode="&#x26;" horiz-adv-x="1939" d="M80 489q0 82 30.5 152t77.5 133q53 72 112.5 138.5t119.5 131.5q6 8 13 14.5t13 14.5q-33 104 -57 219t-24 230q0 51 8 110.5t27.5 111.5t55.5 87t91 35q51 0 102 -21.5t90 -57.5t63.5 -83t24.5 -98q0 -78 -28.5 -145.5t-70.5 -127t-89 -112t-86 -99.5 q59 -135 123.5 -253.5t138.5 -233.5q109 135 209 273.5t205 277.5q12 16 26 16q20 0 21 -22q0 -13 -10 -33q-37 -74 -84 -157t-96.5 -165t-99.5 -157.5t-95 -135.5q45 -53 97 -101t110.5 -84t122 -57.5t131.5 -21.5q88 0 167.5 34t140 92.5t96.5 135t36 164.5 q0 117 -63.5 192t-169.5 75q-68 0 -114 -36t-48 -96q0 -51 45 -51q12 0 18 2q-6 4 -15 16.5t-9 28.5q0 23 18.5 31t32.5 8q35 0 51 -18.5t18 -40.5q0 -47 -35.5 -75t-76.5 -28q-55 0 -88 34t-33 85q0 43 20.5 79t53.5 62.5t72.5 42t80.5 15.5q78 0 138.5 -36t100.5 -91 t60.5 -123t20.5 -131q0 -119 -47 -214t-126 -160.5t-178.5 -101.5t-203.5 -36q-78 0 -148.5 22.5t-134 61.5t-121 92t-106.5 115q-45 -55 -99.5 -106.5t-115 -90.5t-127 -61.5t-135.5 -22.5q-68 4 -115 40t-77 87t-43 111.5t-13 113.5zM123 479q0 -37 9 -82t30.5 -84 t55.5 -66.5t81 -29.5q-31 23 -53.5 56.5t-36.5 72.5t-21.5 79t-7.5 77q0 86 16.5 153.5t51.5 130.5q-51 -59 -88 -140t-37 -167zM246 508q0 -43 7 -90t23.5 -87t46 -66.5t72.5 -28.5q84 35 168 113.5t160 170.5q-80 117 -142.5 240t-115.5 258q-59 -74 -101 -139.5t-69 -127 t-38 -121t-11 -122.5zM436 1610q0 -129 32 -240t67 -201q39 43 81.5 93.5t78.5 103.5t59.5 108.5t23.5 108.5q0 43 -18.5 86t-50 77t-71.5 55.5t-83 21.5q-35 0 -58.5 -18.5t-37 -49.5t-18.5 -68.5t-5 -76.5z" />
<glyph unicode="'" horiz-adv-x="364" d="M74 1866q0 41 27.5 80t76.5 39q31 0 51.5 -17.5t31.5 -45.5t15.5 -60.5t4.5 -63.5q0 -82 -16.5 -147.5t-38 -110.5t-44 -68.5t-32.5 -23.5q-12 0 -15.5 9t-3.5 20q0 23 4 76t4 151v44t-2 44q-23 6 -43 22.5t-20 51.5z" />
<glyph unicode="(" horiz-adv-x="593" d="M104 856q0 172 31 329.5t84 297.5q35 88 81 176t93 162.5t88 131t66 85.5q20 23 35.5 40t25.5 17q6 0 9.5 -5t3.5 -9q-1 -16 -19 -41q-100 -164 -166.5 -310.5t-105.5 -281.5t-55.5 -260t-16.5 -244q0 -188 29.5 -355t78 -308.5t106.5 -255t114 -195.5q23 -35 36 -51.5 t13 -24.5q0 -10 -10 -10t-26.5 11.5t-37.5 27.5q-233 199 -345 463t-112 610z" />
<glyph unicode=")" horiz-adv-x="614" d="M18 -209q0 10 7.5 22.5t17.5 28.5q92 143 152.5 265t97.5 243t51 249t14 284q0 141 -17 289.5t-49 287.5t-79 265t-107 225q-31 51 -48 71.5t-17 36.5t16 17q16 0 39 -27q119 -125 200 -275.5t131 -311.5t72.5 -324.5t22.5 -313.5q0 -311 -101.5 -554.5t-291.5 -434.5 q-25 -25 -50.5 -43t-39.5 -18q-10 0 -15.5 6t-5.5 12z" />
<glyph unicode="*" horiz-adv-x="1189" d="M76 1466q0 41 28.5 69t81.5 28q27 0 70 -6.5t95 -14.5l110.5 -17t116.5 -16q-84 150 -187 291q-8 10 -8 21q0 14 14 14q6 0 21 -10q61 -72 115.5 -142.5t107.5 -154.5q29 47 49.5 97t30.5 110q4 27 18 26q18 0 19 -28q0 -53 -20.5 -112.5t-53.5 -123.5q20 -2 40 -2h38 q53 0 106.5 7t102.5 26q-23 10 -23 35t17.5 33t31.5 8q29 0 42.5 -19.5t13.5 -40.5q0 -37 -22.5 -60.5t-59.5 -37.5t-84 -20.5t-96 -6.5h-43.5t-42.5 2q18 -33 36.5 -67.5t38.5 -73.5q39 -76 69 -126t54.5 -78.5t47 -41t46.5 -12.5q20 0 35 12q-47 10 -47 49q2 23 24.5 33 t43.5 10q31 0 50 -23.5t19 -55.5q0 -55 -40 -86t-93 -31q-82 0 -138 66.5t-103 162.5q-29 57 -60 126t-55 118q-49 -82 -102.5 -157t-92.5 -134q-18 -29 -30.5 -40t-28.5 -11t-29.5 11t-13.5 34t9 44t26 44q43 66 97 124t105 118q-109 16 -204 35.5t-152 27.5q10 -25 10 -51 q0 -39 -19.5 -56.5t-43.5 -17.5q-43 0 -65.5 29t-22.5 63zM137 1466q0 -14 8.5 -27.5t24.5 -13.5q10 0 17.5 7.5t7.5 31.5q-1 19 -7 37q-6 2 -16 2q-20 0 -27.5 -12t-7.5 -25z" />
<glyph unicode="+" horiz-adv-x="935" d="M109 733q0 16 18 32.5t66 16.5q29 0 57.5 -1t56.5 -1h68t63 2q4 35 6 71t7 77q-14 14 -15 41q0 27 17.5 58.5t52.5 31.5q14 0 23.5 -15.5t12.5 -37t4 -43t1 -35.5q0 -63 -6 -144q76 4 131 10.5t90 6.5q76 0 76 -49q0 -61 -75 -93t-206 -32h-31q-8 -119 -12 -234 q-2 -41 -5 -63.5t-15 -22.5q-16 0 -27.5 36t-19 85t-10.5 102.5t-3 88.5v12q-68 4 -127 14t-103 23.5t-69.5 30t-25.5 32.5z" />
<glyph unicode="," horiz-adv-x="446" d="M123 182q0 16 11 26.5t20 16.5q41 33 72.5 72t39.5 90q-23 -8 -55 -8q-31 0 -56.5 22.5t-25.5 63.5q0 47 35 74.5t80 27.5q57 0 85.5 -41t28.5 -98q0 -78 -35.5 -159t-95.5 -134q-4 -4 -16 -13t-27 -9q-16 0 -38.5 21.5t-22.5 47.5zM227 455q0 -18 17 -19q10 0 16 2 q0 10 -6 21.5t-16 11.5t-11 -16z" />
<glyph unicode="-" horiz-adv-x="645" d="M98 690q0 25 14.5 40t36 24.5t49 12.5t56.5 3q41 0 90 -2t92 -8t72 -18.5t29 -34.5q0 -23 -24 -35.5t-60.5 -18.5t-85 -7t-97.5 -1h-32q-16 -27 -62 -27q-39 0 -58.5 23t-19.5 49z" />
<glyph unicode="." horiz-adv-x="450" d="M90 442q0 47 23.5 75t66.5 28q13 0 21 -2q25 12 49 12q47 0 85 -35t38 -86q0 -59 -46 -87t-102 -28q-53 0 -94 33t-41 90zM209 410q12 -4 27 -4q18 0 33.5 8t15.5 24q0 12 -11.5 19.5t-21.5 7.5q-20 0 -30.5 -21.5t-12.5 -33.5z" />
<glyph unicode="/" horiz-adv-x="663" d="M-39 -63q0 12 2 23t6 26q29 98 57.5 187t59.5 179q129 379 289 737.5t319 696.5q4 10 14.5 25.5t22.5 15.5q16 0 17 -27q0 -18 -9.5 -26.5t-15.5 -12.5q-72 -217 -154 -422.5t-161 -418.5q-80 -209 -157 -423t-153 -425q-16 -45 -28.5 -78t-22.5 -53.5t-23.5 -30.5 t-31.5 -10q-31 0 -31 37z" />
<glyph unicode="0" horiz-adv-x="1253" d="M76 905q0 109 22.5 230.5t71.5 230.5t126.5 188.5t190.5 104.5q131 94 258 94q121 0 205 -56.5t137.5 -149.5t78 -215t24.5 -251q0 -82 -11.5 -186t-39 -213t-71.5 -212t-107.5 -185t-150.5 -131.5t-198 -49.5q-90 0 -164.5 39t-135 103.5t-104.5 147.5t-74 172t-44 177 t-14 162zM190 915q0 -74 10.5 -158.5t33 -167.5t56.5 -159t79 -134t104 -93t131 -35q10 0 21.5 1t23.5 3q-104 25 -183 112t-131 205.5t-79 255t-27 259.5q0 78 8.5 151t24.5 141q-37 -82 -54.5 -179t-17.5 -202zM272 1012q0 -223 57.5 -391t131.5 -267q51 -68 118.5 -111.5 t120.5 -43.5q61 0 122 56t107 152.5t74.5 226.5t28.5 275q0 68 -6 147t-22.5 158.5t-45 154.5t-73.5 132.5t-106.5 92t-145.5 34.5q-106 0 -176 -64.5t-111 -159.5t-57.5 -201.5t-16.5 -190.5z" />
<glyph unicode="1" horiz-adv-x="964" d="M172 1384q0 39 22.5 78t63.5 43q31 0 42 -23t11 -52q68 72 140.5 142t130.5 148q0 14 3 37t9 43.5t17.5 34.5t31.5 14q23 0 32 -20.5t9 -36.5q0 -20 -7 -39.5t-18 -36.5q-4 -29 -5 -60.5t-3 -73.5t-2 -98.5v-135.5q0 -268 8.5 -475t17.5 -357.5t17 -245t8 -137.5 q0 -41 -15 -68.5t-44 -27.5q-25 0 -52.5 14.5t-50 46t-37 79.5t-14.5 116q0 123 11.5 283.5t27 337t29.5 356.5t20 344q-27 -25 -70.5 -74t-94 -97t-99.5 -84t-86 -36q-29 0 -41 21.5t-12 39.5zM229 1389q0 -12 9 -13q14 1 32 19q2 6 3 17t1 18q0 20 -10 20 q-16 0 -25.5 -24.5t-9.5 -36.5z" />
<glyph unicode="2" horiz-adv-x="1275" d="M78 225q0 72 11 135.5t34.5 123t61.5 117.5t94 120q76 86 177 179t193 192.5t155.5 206t63.5 221.5q0 57 -20.5 105t-55 84t-80.5 56.5t-98 20.5q-66 0 -122 -28.5t-98 -76t-66.5 -106.5t-24.5 -121q0 -51 16.5 -92t51.5 -68q2 51 26.5 73t51.5 24q31 0 45 -20.5 t14 -49.5q0 -55 -37 -94t-88 -39t-88 25.5t-61.5 64.5t-36 85t-11.5 87q0 86 36 157.5t92.5 124t128 81t143.5 28.5q88 0 172 -42t149.5 -109.5t105.5 -152.5t40 -173q0 -90 -54.5 -174t-131 -156.5t-160.5 -132t-144 -98.5q-53 -35 -103 -66.5t-100 -66.5 q-84 -90 -133 -175t-63 -190q43 41 88 57.5t96 16.5q119 0 223.5 -40t197.5 -88t176 -88t161 -40q47 0 76.5 41t29.5 106q0 68 -28 80q-8 -31 -35 -35q-31 0 -35 27q0 29 22.5 44t47.5 15t41 -15t24 -36.5t11.5 -45t3.5 -40.5q0 -53 -17.5 -99t-50.5 -81t-77 -56.5 t-95 -23.5q-113 0 -209 40t-185 89t-174 91t-177 44q-35 0 -62 -7t-59 -23q0 -23 -9.5 -46.5t-31.5 -23.5q-39 0 -39 57zM496 807q53 37 107 75t102 79q147 121 214.5 234.5t67.5 217.5q0 78 -39 152q2 -12 3 -26t1 -28q0 -100 -45 -197t-112.5 -187.5t-148.5 -171.5 t-150 -148z" />
<glyph unicode="3" horiz-adv-x="1153" d="M63 442q0 74 24 148t70 133t110.5 97t148.5 38q51 0 93 -22.5t71.5 -61.5t45 -88t15.5 -104q0 -25 -4 -53.5t-13.5 -51t-24.5 -38t-40 -15.5q-31 0 -54.5 25.5t-23.5 48.5q0 18 14.5 36.5t43.5 18.5q20 0 41 -10q0 6 1 12t1 10q0 35 -12.5 71t-36 63.5t-56.5 45t-74 17.5 q-49 0 -88 -25.5t-65.5 -65.5t-40.5 -89.5t-14 -98.5q0 -119 72.5 -190.5t178.5 -71.5q125 0 220.5 65.5t159 167t95 225.5t31.5 241q0 49 -10 109.5t-39 115.5t-79 98t-132 55q-45 -31 -98 -53q-27 -10 -47 -10q-27 0 -44.5 12.5t-17.5 34.5q0 4 2 15.5t11.5 24.5t28 24.5 t51.5 15.5q4 4 16 12q29 37 46 84t17 92q0 29 -10 60.5t-31.5 58.5t-56.5 44.5t-84 17.5q-29 0 -79 -10.5t-99 -35t-86 -64.5t-37 -99q0 -51 33 -78t69 -27q37 0 60 23q-12 12 -12 39q0 20 11 36.5t38 16.5q35 0 55.5 -27.5t20.5 -56.5q0 -27 -15.5 -45.5t-38 -28.5t-48 -15 t-44.5 -5q-72 0 -124 44t-52 118q0 78 44 134t109.5 92t142.5 53t142 17q61 0 117.5 -13t100.5 -40.5t70 -69.5t26 -102q0 -82 -41 -146.5t-101 -111.5q70 -10 130.5 -41t106.5 -84t72.5 -130t26.5 -181q0 -156 -47 -309.5t-132 -275.5t-203 -197.5t-259 -75.5 q-84 0 -152.5 29.5t-116.5 83t-74 128t-26 166.5zM594 1731q49 -31 77.5 -76t28.5 -99q0 -33 -11 -68.5t-38 -72.5q43 35 79 81t36 99q0 61 -53.5 93t-118.5 43z" />
<glyph unicode="4" horiz-adv-x="1312" d="M106 377q0 31 18.5 48t43.5 26q39 68 79 155.5t79 185t73.5 200t65.5 199.5t55.5 183t40.5 152q-31 -10 -49 -10q-51 0 -74.5 35.5t-23.5 80.5q0 35 13 77t37.5 79t60.5 61.5t79 24.5q31 0 53.5 -17.5t37 -46t20.5 -64.5t6 -75q0 -74 -16.5 -167t-47 -197.5t-72.5 -215 t-92.5 -219t-108.5 -211t-120 -190.5q141 29 294 61.5t276 61.5q4 43 6 84t6 82q2 18 7 40.5t21 22.5t30 -17.5t23 -45t15 -63t10 -72.5q16 4 32.5 9t31.5 9q72 23 98.5 41t26.5 39q0 16 -12.5 23.5t-14.5 19.5q0 16 29 16q39 0 65.5 -23.5t26.5 -60.5t-23.5 -67.5 t-61.5 -56t-88 -47t-101 -40.5v-24q0 -37 -6.5 -114t-20.5 -154.5t-34.5 -136t-47.5 -58.5q-23 0 -25 31q-2 33 -2 63.5v63.5v145.5t2 147.5q-66 -16 -114.5 -24.5t-65.5 -10.5q-117 -16 -228.5 -21.5t-215.5 -7.5q-14 -20 -29.5 -34.5t-38.5 -14.5q-14 0 -19 9t-7 15 q0 4 -1.5 7.5t-1.5 7.5zM502 1636q0 -39 24 -39q14 0 26.5 12.5t21 30t12.5 39t4 39.5q0 27 -5 35t-14 8q-12 0 -24 -13t-22.5 -32.5t-16.5 -41t-6 -38.5z" />
<glyph unicode="5" horiz-adv-x="1128" d="M102 348q0 51 14.5 107.5t44 104.5t74 79t105.5 31q51 0 86 -32t35 -85q0 -33 -13.5 -55.5t-34 -37t-45 -20.5t-49.5 -6q-37 0 -67 12q-14 -37 -14 -79q0 -92 63.5 -144.5t155.5 -52.5q113 0 199.5 55.5t145 148.5t88.5 214t30 252q0 80 -14.5 163.5t-48.5 151.5t-89 111 t-139 43q-80 0 -156 -35t-129 -82q-41 -35 -68.5 -54.5t-54.5 -19.5q-23 0 -41 15.5t-18 50.5q0 18 8 69.5t20.5 124t25.5 161.5t26 181q-25 6 -42.5 32t-17.5 54q0 43 27 63.5t55 20.5q25 0 57.5 -12t91 -30.5t152 -38t234.5 -33.5q53 -4 76.5 -5.5t39.5 -1.5t17 -10 q0 -10 -21.5 -24.5t-55.5 -26.5t-73 -21.5t-75 -9.5q-74 0 -157 28t-159 56q6 -111 11.5 -220t9.5 -220q53 20 109.5 32.5t111.5 12.5q117 0 197.5 -58.5t132 -148.5t74 -198.5t22.5 -206.5q0 -135 -39 -270.5t-117 -245t-193.5 -178t-269.5 -68.5q-80 0 -142 29.5t-105 79 t-67 114t-24 133.5zM299 1272q16 10 34.5 17t39.5 18q-4 117 -5 233.5t-6 233.5l-36 12q-4 -129 -10.5 -257t-16.5 -257z" />
<glyph unicode="6" horiz-adv-x="1118" d="M70 776q0 176 50 360.5t141 336t218 248t281 96.5q45 0 95 -16.5t91 -49.5t67.5 -83t26.5 -120q0 -72 -37.5 -122t-97.5 -50q-37 0 -75.5 31t-38.5 90q0 35 19 61.5t56 26.5q23 0 37.5 -15.5t14.5 -43.5q-1 -15 -3 -23q12 0 26.5 13.5t14.5 50.5q0 45 -17 79.5t-45 59.5 t-60.5 37t-65.5 12q-104 0 -198.5 -72.5t-167 -195.5t-114.5 -284t-42 -335q0 -131 34.5 -255t112.5 -218q18 72 59.5 124t94.5 86t113.5 50.5t117.5 16.5q47 0 94.5 -13.5t84 -43t60 -76.5t23.5 -115q0 -92 -43 -153.5t-105.5 -98.5t-135 -52.5t-133.5 -15.5 q-141 0 -246 54.5t-172.5 146.5t-101 214t-33.5 257zM438 354q45 -49 107.5 -72.5t128.5 -23.5q49 0 96 13.5t83 38t57.5 61.5t21.5 84q0 72 -54.5 104.5t-125.5 32.5q-55 0 -107.5 -20.5t-95.5 -53.5t-73 -76t-38 -88z" />
<glyph unicode="7" horiz-adv-x="1376" d="M84 1634q0 39 14.5 65.5t38 41t51 20.5t54.5 6q59 0 118.5 -16t112.5 -33q172 -59 281.5 -90t185.5 -31q31 39 66.5 80t76.5 75t90.5 55.5t104.5 21.5q49 0 82 -26.5t33 -80.5q0 -53 -38 -86.5t-91.5 -54t-111.5 -30t-101 -15.5q-98 -166 -182.5 -343t-143.5 -364 q57 -6 111.5 -12t96.5 -11t67 -9l26 -4q0 -18 -18.5 -28.5t-43 -17t-52 -7.5t-46.5 -1q-29 0 -71.5 4.5t-92.5 10.5q-35 -119 -52 -236t-17 -231q0 -31 2 -68t7 -68.5t14.5 -53t23.5 -21.5q12 0 23.5 9t23.5 9q14 0 14 -24q0 -25 -15 -46.5t-37.5 -39t-49.5 -26.5t-49 -9 q-47 0 -75 41t-41 96t-17 110.5t-4 82.5q0 127 20.5 248.5t54.5 240.5q-12 2 -24 2h-25q-68 0 -109.5 -12.5t-67.5 -25.5t-39 -25.5t-21 -12.5q-6 0 -12.5 6.5t-6.5 26.5q0 47 53.5 85t157.5 38q29 0 57.5 -1t63.5 -3q63 182 153.5 352t190.5 330q-76 0 -173 16.5 t-191.5 34.5t-175 34.5t-123.5 16.5q-35 0 -49.5 -15.5t-14.5 -37.5q0 -25 10.5 -56.5t26.5 -61t38.5 -50t45.5 -23.5q16 0 31.5 15.5t17.5 58.5q-16 -8 -25 -8q-23 0 -35 22.5t-12 47.5t11.5 40t33.5 15q23 0 39.5 -12.5t27.5 -28.5t16 -36.5t5 -35.5q0 -53 -32.5 -94 t-85.5 -41q-45 0 -82 34t-63.5 82t-41 100t-14.5 89zM1098 1614q18 2 49 9t59.5 18.5t49 28t20.5 34.5q0 12 -7 22.5t-22 10.5q-25 0 -47 -12.5t-40.5 -31t-34 -40t-27.5 -39.5z" />
<glyph unicode="8" horiz-adv-x="1116" d="M49 424q0 104 40 184t104.5 143.5t146.5 116t166 103.5q-66 70 -127.5 137.5t-109.5 133t-76.5 128t-28.5 123.5q0 76 35 137q23 39 65.5 61.5t97 35t111.5 16.5t109 6q70 29 135 29q121 0 198.5 -84t77.5 -232q0 -133 -70.5 -244.5t-172.5 -205.5q102 -123 169.5 -253 t67.5 -292q0 -80 -29.5 -154.5t-90 -132t-149.5 -92.5t-208 -35q-104 0 -190.5 25.5t-145.5 74t-92 117t-33 154.5zM203 1485q6 -55 37.5 -114.5t79 -121t107.5 -125t122 -129.5q10 6 21.5 12.5t21.5 14.5q-56 63 -117 129q-109 111 -176.5 190.5t-95.5 143.5zM205 449 q0 -63 31.5 -121t85 -102t120 -69.5t138.5 -25.5q59 0 112 16.5t93 53.5t64.5 95t24.5 142q-27 113 -107.5 223.5t-178.5 221.5q-23 -16 -44 -31t-44 -29q-78 -53 -134.5 -97t-92 -87t-52 -89t-16.5 -101zM279 1575q0 -41 28.5 -85t73.5 -92t99.5 -98.5t103.5 -103.5 q27 -29 52.5 -55.5t49.5 -55.5q100 72 167 164.5t67 227.5q0 35 -8.5 80t-31 83.5t-64.5 65.5t-109 27q-29 0 -65 -10.5t-46 -41.5q29 -2 44 -15t15 -32q0 -20 -22.5 -37.5t-57.5 -17.5q-59 0 -59 63q0 31 19 60q-125 -10 -190.5 -39t-65.5 -88zM627 911q61 -70 116.5 -138 t94.5 -140q-29 78 -73 152.5t-103 152.5q-10 -8 -18.5 -14.5t-16.5 -12.5z" />
<glyph unicode="9" horiz-adv-x="1208" d="M82 377q0 51 14.5 102t43 92t70.5 66t97 25q70 0 122 -43.5t52 -104.5q0 -31 -12 -57.5t-31.5 -47t-45 -32.5t-52.5 -12q-51 0 -91 36.5t-40 102.5q-23 -27 -36 -57.5t-13 -63.5q0 -74 25.5 -125t68.5 -85t99.5 -49t117.5 -15q139 0 220 73.5t123 188t54.5 255 t12.5 273.5q0 66 -2 121t-2 90q-49 -74 -135.5 -123t-186.5 -49q-84 0 -150.5 30.5t-112.5 82t-69.5 117t-23.5 135.5q0 102 33.5 199t92 173t135.5 122t163 46q109 0 186.5 -60.5t131.5 -157.5t87 -217t51.5 -239.5t24.5 -227t6 -177.5q0 -141 -23.5 -275.5t-85 -239 t-167 -169t-269.5 -64.5q-80 0 -165 20.5t-155.5 64.5t-116.5 112t-46 164zM268 481q0 -16 10.5 -30.5t28.5 -14.5q16 0 23.5 11.5t7.5 23.5l-57 45q-12 -16 -13 -35zM309 1356q0 -84 24.5 -149.5t65.5 -109.5t93.5 -66.5t105.5 -22.5q45 0 90 17t84 48t65.5 74t32.5 96 q-16 131 -36.5 227.5t-53 161t-80 96t-112.5 31.5q-68 0 -120 -36.5t-87 -94t-53.5 -130.5t-18.5 -142z" />
<glyph unicode=":" horiz-adv-x="452" d="M88 442q0 49 28.5 67.5t57.5 18.5q11 0 31 -4q31 37 74 37q33 0 54 -29.5t21 -76.5q0 -53 -31.5 -95.5t-93.5 -42.5q-66 0 -103.5 38t-37.5 87zM100 946q0 37 31 59.5t64 34.5q14 12 30.5 17.5t32.5 5.5q47 0 74.5 -35t27.5 -82q0 -51 -31.5 -89t-90.5 -38 q-53 0 -95.5 36t-42.5 91zM201 905q20 -10 39 -10q23 0 32 11.5t9 21.5t-7.5 27.5t-17.5 17.5q-18 0 -33.5 -26t-21.5 -42zM246 479q2 -27 8 -49.5t16 -40.5q27 0 38 24.5t11 55.5q0 20 -8 40.5t-28 20.5q-16 0 -26.5 -18t-10.5 -33z" />
<glyph unicode=";" horiz-adv-x="405" d="M74 459q0 43 38 74.5t85 31.5q29 0 49 -15t32.5 -39t17.5 -52.5t5 -55.5q0 -98 -41 -169.5t-113 -100.5q-10 -4 -19 -6t-15 -2q-16 0 -24.5 17.5t-8.5 39.5q0 35 35 51q108 43 108 168q-16 -10 -32.5 -18t-32.5 -8q-35 0 -59.5 23.5t-24.5 60.5zM76 948q0 39 25.5 56.5 t54.5 29.5q27 25 57 25q51 0 75.5 -40t24.5 -87q0 -49 -27.5 -86t-76.5 -37q-25 0 -49.5 12.5t-43 32.5t-29.5 45t-11 49z" />
<glyph unicode="&#x3c;" horiz-adv-x="935" d="M57 563q0 20 19.5 49t70.5 80q49 47 122 109.5t163 118t192.5 94.5t206.5 39q39 0 39 -17q0 -23 -45 -39q-90 -35 -180 -74.5t-176 -88t-165 -107.5t-142 -131q104 -20 229 -28.5t234.5 -15.5t183.5 -21.5t74 -47.5q0 -27 -27 -52t-80 -25q-27 0 -80 4t-115.5 11t-129 15 t-117.5 17q-123 16 -200 40.5t-77 69.5z" />
<glyph unicode="=" horiz-adv-x="890" d="M121 780q0 23 34.5 47.5t102.5 36.5q55 12 115.5 23.5t122 21t120 14.5t109.5 5q45 0 66.5 -19.5t21.5 -40.5q0 -35 -57.5 -57.5t-141.5 -37.5t-178 -21.5t-170 -6.5q-41 -6 -67 -6q-35 0 -56.5 12.5t-21.5 28.5zM152 541q0 27 21 25.5t46 2.5q129 12 238.5 25.5 t208.5 13.5q49 0 87 -10t38 -45q0 -29 -21.5 -43t-44.5 -14q-27 0 -45 18q-111 -6 -210 -13t-198 -7q-43 0 -81.5 7t-38.5 40z" />
<glyph unicode="&#x3e;" horiz-adv-x="935" d="M92 436q0 16 15.5 26.5t39.5 20.5q72 31 149 61.5t153.5 65.5t148.5 75t133 87q-47 10 -108.5 21.5t-125 24.5t-125 29.5t-106.5 37.5q-41 18 -77.5 39.5t-69.5 50.5q-23 20 -23 33q0 12 13 12q6 0 24 -6q141 -49 285.5 -82t294.5 -64q39 -8 74.5 -26.5t35.5 -59.5 q0 -33 -20.5 -56.5t-44.5 -41.5q-66 -49 -136.5 -95t-140 -86t-135 -73t-119.5 -53q-18 -8 -43 -8q-37 0 -64.5 21.5t-27.5 45.5z" />
<glyph unicode="?" horiz-adv-x="1081" d="M68 1505q0 117 56 207t142 151.5t189.5 93.5t199.5 32q104 0 186.5 -30t140.5 -84t89 -129t31 -165q0 -139 -53.5 -240.5t-134 -182.5t-175 -149.5t-175.5 -144.5t-134 -167t-53 -214q0 -23 -6 -51.5t-33 -30.5q-25 0 -34 18.5t-13 45.5q-6 33 -8 66.5t-2 66.5 q0 102 54 189t135 167t175 157t175 159t135.5 172t54.5 196q0 78 -32 133.5t-83 91t-116.5 52t-135.5 16.5q-80 0 -157.5 -25.5t-138 -73.5t-98.5 -114.5t-38 -146.5q0 -70 39 -119t104 -49q35 0 59.5 17.5t28.5 62.5q-35 4 -63.5 21.5t-28.5 54.5q0 39 34 61t67 22t57 -17 t39.5 -44t24 -56.5t8.5 -56.5q0 -53 -22.5 -93t-57.5 -66.5t-80 -41t-88 -14.5q-49 0 -97.5 16.5t-85 49.5t-59 79t-22.5 107zM190 117q0 51 40 85t87 34q33 0 55 -12.5t38 -30.5q16 8 30 8q27 0 36 -23.5t9 -48.5q0 -68 -46 -103.5t-105 -35.5t-101.5 33.5t-42.5 93.5z M332 109q16 -31 43 -31q20 0 38.5 16.5t18.5 32.5q0 18 -12 23q-23 0 -48.5 -13.5t-39.5 -27.5z" />
<glyph unicode="@" horiz-adv-x="2048" d="M123 647q0 201 65.5 401.5t187.5 362.5t295 262.5t388 100.5q190 0 346 -68t265.5 -178.5t170 -252.5t60.5 -292q0 -117 -35 -224.5t-94.5 -189.5t-141.5 -131t-176 -49q-88 0 -141 62.5t-82 154.5q-55 -66 -140 -104.5t-180 -38.5q-139 0 -208.5 86t-69.5 217 q0 106 41 183t107.5 126t148.5 71.5t164 22.5h66.5t49.5 -2q2 16 3 37t6 39q6 49 26 49q16 0 23.5 -14t7.5 -25v-247q0 -115 9 -216.5t30.5 -177t57.5 -118.5t89 -43q59 0 115.5 34.5t100.5 95t71 142.5t27 178q0 152 -61.5 283t-166 227t-244 151.5t-296.5 55.5 q-190 0 -334 -72.5t-246 -195.5q-14 -37 -26.5 -100.5t-22.5 -143.5t-16.5 -170t-6.5 -178q0 -72 4.5 -137.5t14.5 -124.5q27 -158 95.5 -259.5t169.5 -160t230 -80t281 -21.5q45 0 124 3.5t154.5 15.5t131 37.5t55.5 70.5q0 16 -10.5 36t-36.5 30q-6 -59 -60 -59 q-33 0 -60.5 19t-27.5 52q0 41 31 60.5t66 19.5q33 0 63.5 -12t54 -33.5t38 -48.5t14.5 -57q0 -51 -31 -89t-81 -66t-112.5 -44t-125 -26.5t-120 -13.5t-96.5 -3q-86 0 -191.5 13.5t-211 40t-201.5 65.5t-164 90t-112.5 118.5t-71.5 142.5t-37 153.5t-10 156.5zM199 655 q0 -170 55 -304t186 -226q10 -10 23.5 -17.5t30.5 -15.5q-96 84 -146.5 205t-60.5 276q-6 74 -6 148q0 129 18 260t59 268q-80 -129 -119.5 -282.5t-39.5 -311.5zM741 799q0 -104 48.5 -166t144.5 -62q33 0 71.5 7.5t76.5 20.5t73 29.5t59 35.5q-10 45 -13 91t-3 91 q0 86 2 152.5t6 125.5q-16 0 -33.5 1t-42.5 1q-182 0 -285.5 -90t-103.5 -237z" />
<glyph unicode="A" horiz-adv-x="2611" d="M51 270q0 63 16.5 130t45 119t69.5 86t90 34q37 0 72 -20.5t61.5 -51t42 -68.5t15.5 -73t-17.5 -62.5t-52.5 -27.5q-27 0 -54.5 22.5t-27.5 57.5t43 39q10 0 21.5 -1t21.5 -1q0 16 -8 35.5t-21.5 36t-31 27.5t-37.5 11q-31 0 -52.5 -20.5t-34.5 -53t-19.5 -73.5t-6.5 -80 q0 -121 42 -218.5t112 -165t159 -104t185 -36.5q147 0 261 70.5t205 210.5t166 347t144 482q-57 4 -113.5 6t-111.5 2q-88 0 -119 -12q12 -10 17.5 -20.5t5.5 -20.5q0 -18 -13.5 -30.5t-42.5 -12.5q-41 0 -72.5 25.5t-31.5 64.5q0 37 25.5 57t61.5 30.5t73 12.5t59 2 q74 0 145.5 -4t139.5 -10q53 207 101 411.5t110 409.5q-10 45 -11.5 69.5t-1.5 45.5q0 39 15.5 57t32.5 18q20 0 32.5 -24.5t12.5 -65.5q0 -39 -7 -69q8 -43 18.5 -132.5t26 -208t36 -258t44.5 -282.5h11q41 0 82 6q31 33 67 33q23 0 39 -10.5t16 -26.5t-17 -28.5t-46 -20.5 t-65.5 -13t-73.5 -8q29 -158 64.5 -306t79.5 -262t97.5 -182.5t114.5 -68.5q43 0 82 24.5t66.5 62.5t44 85t16.5 94t-26.5 77t-90.5 34q6 -16 6 -31q0 -41 -37.5 -60.5t-74.5 -19.5q-35 0 -55.5 22t-20.5 56q0 37 16.5 64.5t42 46t58 28t63.5 9.5q43 0 85 -16.5t75 -46 t53.5 -69.5t20.5 -87q0 -66 -34 -133.5t-88.5 -121t-120 -87t-126.5 -33.5q-63 0 -113.5 31.5t-90.5 88t-69.5 132.5t-50.5 162q-29 113 -50 241.5t-40 263.5h-24q-131 0 -244 7q-10 -49 -21.5 -99.5t-23.5 -103.5q-72 -313 -155 -525t-185 -342.5t-228 -185.5t-286 -55 q-109 0 -213.5 47t-187 134t-133 209t-50.5 271zM1554 1006q59 -6 120 -11.5t120 -9.5q-12 106 -23.5 210.5t-21.5 200t-19.5 177.5t-17.5 147q-35 -147 -72 -319t-86 -395z" />
<glyph unicode="B" horiz-adv-x="2174" d="M92 1108q0 133 56.5 243.5t151.5 198.5t219 153.5t258 110t269.5 66t251.5 21.5q82 0 157 -13.5t132.5 -45.5t91 -82t33.5 -124q0 -78 -35 -137t-91 -102t-126.5 -71t-142.5 -40q143 -43 278.5 -98t238.5 -134t165.5 -185.5t62.5 -254.5q0 -139 -51 -257.5t-145 -206 t-226.5 -137.5t-293.5 -50q-121 0 -231.5 42t-194.5 118t-135.5 181.5t-51.5 230.5q0 33 6 76.5t21.5 82.5t44.5 66.5t74 27.5q43 0 73.5 -33.5t30.5 -72.5q0 -33 -25.5 -59.5t-76.5 -26.5q-14 0 -26.5 2t-23.5 4q-20 -49 -20 -110q0 -111 47 -186t125 -122 q37 39 62.5 134.5t42 226.5t23.5 285.5t7 312.5v96q-41 4 -54 20.5t-13 34.5q0 20 18 27t47 8q-4 150 -13 284t-20 234q-145 -18 -299.5 -71.5t-282.5 -139.5t-210 -205.5t-82 -273.5q0 -45 11 -98t37 -98.5t65.5 -76t97.5 -30.5q31 0 63.5 18.5t32.5 53.5q-14 4 -33.5 19.5 t-19.5 49.5q0 33 22.5 50.5t49.5 17.5q41 0 57 -39t16 -76q0 -43 -17.5 -77.5t-47 -60.5t-67.5 -40t-79 -14q-76 0 -133 29.5t-95 78.5t-57.5 112.5t-19.5 131.5zM1026 162q66 -29 141.5 -42.5t161.5 -13.5q137 0 250 42t192.5 116t122.5 172.5t43 212.5q0 84 -32.5 158 t-87 135.5t-125 111.5t-148.5 89t-155.5 66.5t-147.5 45.5q-2 0 -14 -4v-77q0 -156 -9.5 -314t-32 -295t-61.5 -243.5t-98 -159.5zM1188 1858q10 -72 21.5 -217.5t15.5 -325.5q16 -4 26.5 -6t16.5 -4q29 8 60.5 18.5t60.5 22.5q59 27 104 89t45 152q0 41 -16.5 87t-57.5 85 t-108.5 66.5t-167.5 32.5zM1352 1853q123 -39 171 -112.5t48 -157.5q0 -35 -10.5 -76t-34.5 -80q45 39 73.5 89.5t28.5 113.5q0 61 -24.5 101.5t-63.5 66t-88 38.5t-100 17z" />
<glyph unicode="C" horiz-adv-x="1445" d="M96 866q0 104 18.5 227.5t57.5 248t99.5 239.5t142.5 205t187.5 143t236.5 53q109 0 203 -50t162.5 -129t107.5 -176t39 -191q0 -57 -15.5 -108.5t-44 -90.5t-67.5 -62.5t-84 -23.5q-86 0 -86 113q0 45 13 86t33.5 75.5t44 64t46.5 54.5q-23 49 -59.5 112.5t-86 120 t-107.5 95.5t-124 39q-76 0 -154 -72q-74 -70 -135 -186.5t-104 -259t-67.5 -299t-24.5 -303.5q0 -156 33.5 -286t101 -223.5t169 -144.5t236.5 -51q74 0 143.5 25.5t125 71.5t93.5 107.5t46 135.5q4 27 14 39t21 12q10 0 19 -12t9 -41q0 -115 -43 -201t-115.5 -144.5 t-167.5 -87t-202 -28.5q-178 0 -311 70.5t-223.5 192.5t-135.5 287t-45 353zM215 950q0 -240 84 -432q-12 59 -17.5 124t-5.5 134q0 164 30 337t84 326.5t128 274.5t160 180q-106 -35 -191.5 -129t-145.5 -224t-93 -283.5t-33 -307.5zM1114 1249q0 -43 23 -43 q18 0 34.5 14.5t31 38t22.5 54t8 65.5q0 33 -6.5 62.5t-16.5 54.5q-35 -51 -65.5 -118.5t-30.5 -127.5z" />
<glyph unicode="D" horiz-adv-x="2199" d="M94 1395q0 162 60.5 277.5t159 190t226.5 110.5t263 36q170 0 332.5 -41t308 -116.5t267.5 -182t211 -238t138 -285t49 -321.5q0 -152 -40.5 -271.5t-111.5 -211.5t-167 -157.5t-206.5 -107.5t-229.5 -61.5t-236 -19.5q-186 0 -366.5 25.5t-323.5 48.5 q-10 -57 -47 -106.5t-111 -49.5q-59 0 -100 37t-41 90q0 49 23.5 81t59.5 51.5t76 26.5t74 7q57 0 135 -11.5t168.5 -26.5t187.5 -31.5t196 -28.5q-6 242 -24.5 477t-18.5 467q0 219 30.5 429t120.5 412q-178 59 -366 60q-117 0 -232 -34t-204 -99.5t-144 -165t-55 -228.5 q0 -80 27.5 -157.5t76.5 -140t116.5 -101.5t147.5 -39q39 0 75 8.5t63.5 24.5t44 43t16.5 61q0 4 -1 9.5t-1 11.5q-27 -14 -55 -14q-47 0 -76 35.5t-29 88.5q0 51 31 96.5t86 45.5q43 0 74.5 -22.5t50.5 -57.5t30 -80t11 -90q0 -66 -23.5 -116t-63.5 -85t-93.5 -53 t-112.5 -18q-100 0 -184 45t-144.5 117.5t-94.5 165.5t-34 190zM248 23q0 -16 11 -28.5t34 -12.5q37 0 59.5 30.5t38.5 61.5q-37 6 -63 6q-41 0 -60.5 -17.5t-19.5 -39.5zM1061 1036q0 -227 14.5 -461.5t20.5 -470.5q10 -2 17 -2t17 -2q13 131 13 287q0 209 -12.5 433 t-12.5 442q0 154 12.5 295t47.5 260q-70 -174 -93.5 -370t-23.5 -411zM1194 98q14 -2 28.5 -2h30.5q150 0 279 40t225 124t151.5 217t55.5 322q0 186 -55.5 352t-152.5 303t-229 241.5t-288 168.5q-25 -86 -33 -202t-8 -249q0 -106 4 -218t8 -220.5t8.5 -208.5t4.5 -184 q0 -131 -6.5 -252t-22.5 -232z" />
<glyph unicode="E" horiz-adv-x="2199" d="M70 1432q0 115 44 207t122.5 155.5t187 97t235.5 33.5q55 0 133 -5t167.5 -10t181.5 -10.5t172 -5.5q117 0 232.5 9.5t213.5 35.5q2 25 10.5 50.5t23.5 47t36.5 35t50.5 13.5q35 0 62.5 -22.5t27.5 -59.5q0 -20 -11 -36.5t-28.5 -30t-38 -23.5t-37.5 -19 q2 -41 13.5 -73.5t24 -59t22.5 -46t10 -32.5q0 -25 -15.5 -31.5t-29.5 -6.5q-35 0 -57.5 22.5t-36.5 55t-20.5 71.5t-8.5 70q-172 -51 -373 -52q-70 0 -138 4.5t-136 8.5q-2 -23 -2 -46.5v-47.5q0 -180 13.5 -376t17.5 -368q76 35 149.5 70t151.5 35q72 0 101.5 -35 t29.5 -84q0 -25 -9.5 -48.5t-24.5 -43t-34.5 -31.5t-40.5 -12q-43 0 -61.5 28.5t-18.5 59.5q1 36 17 65q-55 -2 -122 -28.5t-138 -53.5q-2 -205 -40 -360.5t-116 -296.5q166 -61 292 -106.5t227.5 -74t184 -43t162.5 -14.5q109 0 175.5 44t66.5 124q0 35 -12.5 64.5 t-38.5 46.5q4 -16 4 -21q0 -29 -25.5 -44t-56.5 -15q-47 4 -72.5 35t-25.5 67q0 37 26.5 60.5t69.5 23.5q45 0 85 -20.5t70.5 -54t48 -76.5t17.5 -86q0 -78 -39 -138.5t-98 -100.5t-130 -60.5t-136 -20.5q-96 0 -209 30t-228.5 76t-226 100t-203.5 104q-31 -31 -67.5 -48.5 t-75.5 -17.5q-66 0 -105.5 44t-39.5 93q0 37 25.5 65.5t82.5 28.5q37 0 73 -11t70 -21q27 53 46.5 100t35 96t25.5 103.5t20 120.5q6 41 9.5 83.5t7.5 88.5q-35 -6 -70 -7q-14 0 -32.5 1t-34 6.5t-25.5 13.5t-10 20q0 25 33 25q14 0 30.5 -1t32.5 -1q35 0 80 10 q4 111 4 223.5t1 224t7 222t25 215.5q-98 10 -193.5 17t-187.5 7q-72 0 -150.5 -18t-146.5 -63.5t-112 -121t-44 -188.5q0 -53 14.5 -102t44 -88t73.5 -62.5t104 -23.5q0 78 37 136t114 58q70 0 97.5 -40t27.5 -80q0 -55 -23.5 -96.5t-63.5 -70t-92 -43t-112 -14.5 q-90 0 -160.5 33t-118.5 87t-72.5 126t-24.5 150zM539 1194q20 0 46.5 6t26.5 33q0 10 -7 20.5t-21 10.5q-16 0 -28.5 -16.5t-16.5 -53.5zM719 215q0 -10 14.5 -21.5t32.5 -11.5q22 0 49 23q-38 24 -75 24h-3q-18 0 -18 -14zM1432 958q0 -14 5 -26t21 -12q23 0 23 22 q-4 14 -17.5 26.5t-29.5 12.5q-2 -8 -2 -23z" />
<glyph unicode="F" horiz-adv-x="2469" d="M84 1563q0 121 41 198.5t107.5 122.5t151.5 62.5t173 17.5q203 0 430 -28.5t443.5 -62.5t402.5 -61.5t305 -27.5q68 0 117 6t90 22q-18 16 -29.5 38t-11.5 44q0 37 24.5 67t73.5 30q31 0 55.5 -20.5t24.5 -61.5q0 -70 -46 -108t-110.5 -56.5t-134 -22.5t-114.5 -4 q-115 0 -237 9.5t-247 25.5q20 -127 42 -250t48 -246q8 -41 16.5 -82.5t18.5 -82.5q74 18 144.5 28t136.5 10q53 0 106.5 -10t96.5 -30.5t69.5 -52t26.5 -72.5q0 -31 -15.5 -54.5t-38 -41t-51 -25.5t-55.5 -8q-35 0 -58.5 16t-23.5 53q4 31 28.5 54.5t51.5 33.5 q-37 23 -85 32t-103 9q-47 0 -100.5 -7t-108.5 -19q49 -195 91 -393.5t42 -393.5q0 -178 -52.5 -326.5t-143.5 -255t-214 -166t-264 -59.5q-98 0 -179 38t-139.5 101.5t-90 146.5t-31.5 173q0 41 10 80t31.5 69.5t54.5 49t76 18.5q33 0 60.5 -12t46 -31.5t28.5 -44.5t10 -47 q0 -39 -26.5 -65.5t-85.5 -26.5q-70 6 -107 74q-2 -12 -3 -24.5t-1 -25.5q0 -72 35 -128t89 -94t120.5 -58.5t132.5 -20.5q86 0 172 36t154.5 115t110.5 204t42 301q0 178 -22.5 362t-51.5 377q-70 -18 -135 -39.5t-120.5 -40t-96.5 -30t-61 -11.5q-23 0 -47.5 9.5 t-24.5 43.5q0 25 23.5 40.5t41.5 15.5q33 0 43 -31q78 31 171.5 65.5t193.5 63.5q-27 170 -47.5 342t-26.5 348q-154 20 -303 44t-283.5 45.5t-247 35.5t-190.5 14q-74 0 -135 -18t-105 -56t-70 -94.5t-26 -130.5q0 -68 27 -132t70 -113t99 -79t118 -30q41 0 80 16.5 t72.5 45t59 67.5t40.5 86q-29 -14 -66 -14q-41 4 -60.5 26.5t-19.5 53.5q0 33 15.5 59.5t38 44t49 26.5t51.5 9q57 0 91 -45t34 -113q0 -74 -31 -147.5t-83 -133t-120.5 -96t-142.5 -36.5q-84 0 -161 35.5t-136 99t-94 149.5t-35 187z" />
<glyph unicode="G" horiz-adv-x="1806" d="M100 848q0 106 19.5 232t61.5 253t106.5 247t153.5 211t204 146.5t258 55.5q106 0 191.5 -28t144.5 -77t91 -118.5t32 -153.5q0 -45 -16.5 -94t-45 -91t-68.5 -70t-85 -28q-66 0 -100.5 45t-34.5 99q0 23 7 51t21.5 54t36 43t51.5 17q23 0 37.5 -18t14.5 -43 q0 -31 -18.5 -57.5t-49.5 -26.5q-12 0 -27 6q-4 -16 -4 -24q0 -29 15.5 -53.5t46.5 -24.5q27 0 45 21.5t28.5 52t14.5 63.5t4 53q0 74 -33 127.5t-85 88t-117.5 51t-129.5 16.5q-158 0 -268 -62.5t-186 -166.5q-41 -96 -62.5 -226.5t-21.5 -275.5q0 -184 35.5 -373.5 t112.5 -343.5t196 -251t282 -97q55 0 117 12q86 29 157 85t118 142q0 16 -5.5 88t-5.5 158q-61 4 -119.5 9.5t-109.5 9.5q0 -35 -22.5 -49.5t-53.5 -14.5q-45 0 -88 30t-43 85t48 92t149 37q66 0 128 -9.5t122 -21.5q6 31 16 49.5t27 18.5q23 0 42 -27t31 -63 q45 -8 90.5 -12.5t92.5 -4.5q29 0 50 5t36 5q18 0 26 -9t8 -19q0 -20 -26.5 -40t-68.5 -35t-94 -25.5t-103 -12.5q-4 -86 -18.5 -148.5t-31.5 -99.5q4 -35 11.5 -80t16.5 -90t20.5 -87t23.5 -70q12 6 25 6q23 0 32 -17.5t9 -40.5q0 -39 -22.5 -65.5t-61.5 -26.5 q-35 0 -54.5 32t-31 84t-17.5 118.5t-14 138.5q-51 -72 -114.5 -131t-137.5 -102t-157 -68t-169 -25q-131 0 -232 41t-178 112t-129 165t-85 200.5t-47.5 220t-14.5 220.5zM227 934q0 -172 30 -325.5t94.5 -272.5t168 -193.5t250.5 -89.5q-123 47 -214 160t-151.5 262.5 t-91 322.5t-30.5 341t30 313q-47 -121 -66.5 -255t-19.5 -263z" />
<glyph unicode="H" horiz-adv-x="1898" d="M-45 2011q0 82 50 136.5t119 86t140.5 45t114.5 13.5q84 0 164 -38t129 -140q20 -43 34.5 -111t22.5 -153t12 -183t4 -205q0 -98 -2 -202.5t-6 -210.5q199 0 349.5 -3.5t285.5 -7.5q2 227 12.5 400.5t40 290t82 177t135.5 60.5q53 0 98.5 -47t45.5 -143q0 -55 -23.5 -84 t-56.5 -29q-20 0 -48 17.5t-28 60.5q0 23 10.5 37t30.5 14q10 0 17 -2q12 20 12 59q0 29 -15.5 52.5t-44.5 23.5q-66 0 -97.5 -115.5t-31.5 -377.5q0 -201 7 -398q88 -4 172 -6q35 0 34 -12q0 -16 -32 -19q-41 -2 -84 -4t-88 -2q8 -188 21 -354t30 -287q8 -70 17 -115 t17.5 -71.5t17.5 -36.5t19 -10q31 0 62 36.5t51 69.5q16 29 37 29q16 0 21.5 -11.5t5.5 -21.5q0 -41 -37 -94t-88 -94q-41 -35 -82 -51.5t-72 -16.5q-63 0 -95 64.5t-48 214.5q-14 117 -19.5 295t-5.5 452q-164 -4 -327.5 -6t-311.5 -6q-2 -68 -5 -150t-8 -163.5t-9 -155.5 t-6 -127q-4 -72 -10.5 -171t-22 -207.5t-44 -215t-73.5 -191.5t-111.5 -137.5t-160.5 -52.5q-37 0 -75 14.5t-66.5 40t-47 60.5t-18.5 76q0 45 23.5 77.5t70.5 32.5q41 0 75 -25.5t34 -64.5q0 -25 -15 -47q84 25 157 162t107 399q29 203 47.5 425t26.5 413 q-86 -4 -155.5 -11.5t-122.5 -17.5q14 -20 14 -43q0 -31 -27.5 -55.5t-70.5 -24.5q-33 0 -57.5 18.5t-24.5 57.5q0 43 33.5 71.5t94 46t142.5 25t178 11.5q2 37 2 72.5v68.5q0 92 -3 201.5t-13 219t-30.5 211t-55.5 179.5t-85 125t-122 47q-57 0 -125 -31q59 -16 82 -58 t23 -83q0 -72 -40 -122t-106 -50q-68 0 -123 49t-55 135zM47 1991q0 -37 26.5 -57.5t55.5 -20.5q23 0 40.5 16.5t25.5 32.5q-6 -2 -23 -2q-14 0 -31.5 3t-32 14.5t-24.5 31t-10 51.5q-10 -12 -18.5 -30.5t-8.5 -38.5zM362 2255q90 -23 146.5 -88.5t90.5 -160.5t50.5 -216 t28.5 -254q16 -193 24 -371q2 66 3.5 133.5t1.5 133.5q0 199 -13.5 367.5t-48.5 268.5q-35 98 -101.5 141.5t-181.5 45.5z" />
<glyph unicode="I" horiz-adv-x="1347" d="M63 1493q0 117 40 206t114 149.5t179.5 90t234.5 29.5q102 0 198.5 -7t159.5 -9q23 45 60.5 87t93.5 42q41 0 63.5 -25.5t22.5 -66.5q0 -45 -44 -68t-122 -31q8 -84 30.5 -219t46 -298t42 -339t18.5 -344q0 -39 -2 -106.5t-11 -146.5t-27.5 -159.5t-52.5 -146t-85 -106.5 t-125 -41q-47 0 -93 16t-83 46t-59.5 69t-22.5 86q0 53 30.5 84.5t84.5 31.5q39 0 68.5 -25.5t29.5 -60.5t-22.5 -68.5t-53.5 -51.5q25 -20 53.5 -32.5t63.5 -12.5q59 0 83.5 48t24.5 132q0 113 -18 255t-39.5 294.5t-40 309.5t-18.5 302q0 123 17.5 244t64.5 237 q-61 -2 -146.5 -5t-177.5 -16.5t-182 -40t-161 -73.5t-115 -116.5t-44 -170.5q0 -35 11.5 -84t38 -96t66.5 -79.5t99 -32.5q61 0 92 37.5t31 82.5q0 16 -2 25q-23 -12 -51 -12q-31 0 -63.5 19.5t-32.5 66.5q0 39 32.5 73.5t90.5 34.5q57 0 95 -50t38 -122q0 -43 -17.5 -82 t-48.5 -68.5t-70.5 -48t-84.5 -18.5q-78 0 -135.5 38t-94.5 95.5t-54.5 124t-17.5 123.5zM414 1397q2 -12 20 -13q17 1 25 11q-8 25 -29 24q-10 0 -13 -7t-3 -15zM948 1458q0 -170 18.5 -335t41 -319.5t41 -294.5t18.5 -261q12 53 17.5 112.5t5.5 120.5q0 160 -13.5 340 t-31 359.5t-34 345.5t-22.5 297q-23 -84 -32 -175.5t-9 -189.5zM1061 1960q14 0 31.5 1t33 5t25.5 12.5t10 22.5q0 22 -20 22h-2q-27 0 -44.5 -18t-33.5 -45z" />
<glyph unicode="J" horiz-adv-x="1562" d="M109 387q0 88 28.5 186.5t87 181.5t147.5 138t210 55q141 0 218 -72.5t77 -193.5q0 -25 -9.5 -52.5t-28 -51t-45 -38t-61.5 -14.5q-37 0 -66.5 21.5t-29.5 62.5q0 31 21.5 51.5t50.5 20.5q20 0 42.5 -12.5t32.5 -36.5q10 25 11 49q0 55 -46.5 86t-111.5 31 q-78 0 -137.5 -41t-98.5 -103.5t-58 -136.5t-19 -141q0 -117 39.5 -221.5t109.5 -184.5t166 -126t211 -46q100 0 170 36t115 95.5t69.5 138t36.5 166t14 176.5t2 169q0 123 -6 253t-14 262t-14 263t-6 256q0 115 6 225q-20 -4 -41 -4h-37q-86 0 -167 15.5t-148.5 35 t-120 34.5t-82.5 15q-33 0 -54.5 -27.5t-21.5 -68.5q0 -16 4 -32.5t12 -26.5q30 28 73 28h3q29 0 53.5 -17t24.5 -52q0 -41 -31 -62.5t-67 -21.5q-66 0 -103 57t-37 133q0 31 9.5 62.5t29 56.5t49 41t68.5 16t108.5 -22.5t152.5 -50t169 -50t160 -24.5q8 49 31.5 81t76.5 32 q31 0 59.5 -15.5t28.5 -42.5q0 -29 -35.5 -49t-89.5 -31v-24q0 -106 19.5 -259t43 -330t43 -365.5t19.5 -364.5q0 -131 -21.5 -270.5t-84 -253t-179 -186t-306.5 -72.5q-147 0 -278.5 51t-231 140t-157.5 210t-58 262z" />
<glyph unicode="K" horiz-adv-x="2494" d="M41 1470q0 57 23.5 114.5t62.5 109t90 92.5t107 65q115 51 233.5 66.5t238 22t238.5 16.5t236 53q6 27 17 58.5t29.5 58t44 44t60.5 17.5q41 0 57.5 -23.5t16.5 -49.5q0 -35 -18.5 -65t-46 -56.5t-60.5 -46t-59 -31.5q0 -16 -1 -32.5t-1 -33.5q0 -182 17 -392t32 -421 q10 2 24 2q70 70 123.5 171.5t102.5 211t99 219t116.5 195.5t157 140.5t214.5 54.5q31 0 68 -4.5t68 -12.5q78 -23 113.5 -85t35.5 -134q0 -74 -44 -131t-122 -57q-41 0 -69.5 22.5t-28.5 63.5q0 29 17.5 57.5t58.5 28.5q16 0 27.5 -8.5t11.5 -30.5q0 -20 -11.5 -36.5 t-33.5 -21.5q0 -14 20 -14q41 4 65.5 38t24.5 71q0 27 -12 50t-31.5 41.5t-43 29t-46.5 10.5q-66 0 -132.5 -50.5t-131 -129t-128 -176t-126 -193.5t-121.5 -179t-117 -132q154 -6 286 -37t229.5 -92.5t153.5 -154.5t56 -226q0 -84 -21.5 -167t-46 -162t-46 -151.5 t-21.5 -138.5q0 -106 55.5 -158.5t126.5 -52.5q47 0 81 13.5t56.5 35t33 47t10.5 50.5v22q-39 -14 -60 -14q-47 0 -77.5 24.5t-30.5 61.5q0 35 29.5 58.5t70.5 23.5q35 0 63.5 -16.5t48 -42t31 -56.5t11.5 -59q0 -47 -20.5 -91.5t-59.5 -79t-92.5 -56t-116.5 -21.5 q-96 0 -164 29.5t-111 76.5t-62 108.5t-19 125.5q0 78 31.5 166t68.5 176t68.5 171t31.5 150q0 170 -162.5 276.5t-468.5 123.5q-25 -18 -52 -35t-56 -27q4 -61 6 -121.5t2 -117.5q0 -78 -9 -169t-32.5 -182.5t-62.5 -176.5t-97.5 -150.5t-140.5 -104.5t-188 -39 q-78 0 -142.5 17.5t-111.5 50.5t-74 77t-27 99q0 59 43 107.5t103 48.5q27 0 50.5 -11.5t40.5 -31t27.5 -45t10.5 -52.5q0 -18 -4 -37.5t-13 -33.5q31 -12 82 -13q104 0 175 48.5t117 125t71.5 173t37 192.5t13.5 182t2 144q-25 2 -47.5 8t-22.5 27q0 18 20.5 31.5 t49.5 21.5q0 94 -2 184t-2 176q0 135 4 262t16 256q-84 -20 -180 -25t-195.5 -7t-197.5 -5.5t-188 -17.5t-166 -46t-129 -91q-37 -41 -66 -93.5t-31 -117.5q4 0 10.5 1t12.5 1q33 0 62.5 -15t29.5 -48t-24.5 -50.5t-59.5 -17.5t-64.5 26.5t-29.5 81.5zM106 1442 q2 -18 11.5 -25.5t23.5 -11.5q12 0 22.5 7t10.5 18q-2 10 -13 13t-26 3q-17 0 -29 -4zM604 158q0 -18 14.5 -35t34.5 -19q16 16 17 39q0 18 -10.5 34t-24.5 16q-10 0 -20.5 -10.5t-10.5 -24.5zM1331 2034q8 4 22.5 12t28 18.5t23.5 21.5t10 21q0 18 -16 19 q-25 0 -43.5 -28.5t-24.5 -63.5zM1554 1227q70 100 134.5 216t131 224.5t141.5 195.5t165 128q-82 -14 -144.5 -55.5t-111.5 -101.5t-90 -135t-77 -155t-72 -162t-77 -155z" />
<glyph unicode="L" horiz-adv-x="2228" d="M160 1456q0 104 31.5 181t83 128.5t116 76t129.5 24.5q68 0 125 -19.5t98 -55.5t64.5 -86t23.5 -110q0 -41 -23.5 -73.5t-78.5 -32.5q-37 0 -74 28.5t-37 81.5q0 18 14.5 39t45.5 21q12 0 23.5 -4t21.5 -8q-4 37 -24.5 66.5t-50.5 50t-64.5 30.5t-67.5 10 q-68 0 -124 -25.5t-97 -71.5t-63.5 -107.5t-22.5 -131.5q0 -115 42 -199.5t110.5 -146t157.5 -101.5t184.5 -63.5t189.5 -33t172 -9.5q102 0 182 13q6 84 9.5 170t7.5 174q4 57 12 132t24.5 153.5t45 154.5t72.5 135.5t106.5 96t146.5 36.5q70 0 121 -29.5t85 -78.5 t50.5 -113.5t16.5 -134.5q0 -123 -40 -241.5t-112 -220t-174 -180.5t-225 -122q0 -78 -6.5 -179t-26 -207.5t-56.5 -207t-96 -174.5q20 -10 67.5 -32.5t113 -50t146.5 -56.5t167 -53.5t173 -40t167 -15.5q88 0 146.5 34t58.5 99q0 16 -6 35q-16 -23 -45 -35t-60 -12 q-37 0 -67.5 20.5t-30.5 63.5t33.5 76t80.5 33q66 0 109 -49.5t43 -116.5q0 -68 -35 -121t-90 -90t-123.5 -55.5t-136.5 -18.5q-115 0 -227.5 39t-214 92t-186.5 105.5t-142 81.5q-47 -41 -105.5 -58.5t-121.5 -17.5q-35 0 -79 7t-84 24.5t-67.5 46t-27.5 69.5q0 23 15 38.5 t36.5 24.5t46 12t43.5 3q61 0 124.5 -13.5t100.5 -19.5q53 59 91 144.5t63.5 179.5t39 189.5t15.5 174.5q-84 -12 -176 -12q-86 0 -186.5 12.5t-201 41t-193.5 76.5t-164.5 119t-114.5 167t-43 223zM1380 1296q20 145 57.5 261t82.5 196t95 123t101 43q29 0 64 -18 q-42 41 -99 41q-76 0 -126 -42t-81.5 -102.5t-48 -129.5t-24.5 -122q-10 -63 -14.5 -124.5t-6.5 -125.5zM1388 956q117 33 206 96.5t149.5 148.5t90.5 189.5t30 221.5q0 137 -45 204.5t-97 67.5q-55 0 -109 -62.5t-100.5 -182t-80.5 -291.5t-44 -392z" />
<glyph unicode="M" horiz-adv-x="2889" d="M76 1659q0 84 32.5 158.5t91 130t136.5 88t168 32.5q102 0 177 -38.5t127 -109.5t86 -167t54 -211q29 51 66 104.5t81 96.5t96 70.5t109 27.5q49 0 87 -27.5t66 -72.5t47.5 -104.5t31.5 -123t19.5 -128t11.5 -119.5q41 119 93 246.5t120.5 235t154.5 177.5t193 70 q61 0 117.5 -29t97.5 -88t65.5 -151.5t24.5 -219.5q0 -135 -23.5 -271t-52.5 -270.5t-52.5 -265.5t-23.5 -258q0 -78 13.5 -141t41 -110.5t68.5 -73t99 -25.5q23 0 48 5t52 18q66 37 110 104.5t44 136.5q0 18 -3 29q-16 -27 -35.5 -37t-41.5 -10q-29 0 -53.5 18.5 t-24.5 59.5q0 53 39 93t92 40q37 0 61.5 -18.5t40 -48t21.5 -64.5t6 -66q0 -80 -34 -147.5t-88 -116.5t-123.5 -76.5t-139.5 -27.5q-88 0 -154.5 37.5t-111.5 105.5t-67.5 161t-22.5 201q0 123 9 247t20 250t20.5 251t9.5 252q0 82 -6 155.5t-20.5 129t-39 87t-61.5 31.5 q-47 0 -95 -42t-95.5 -108.5t-91.5 -150.5t-79.5 -167t-63.5 -157.5t-42 -121.5q4 -59 9 -133t5 -154q0 -82 -9 -175t-27.5 -173t-48 -132t-72.5 -52q-20 0 -35 18t-24 48t-13 69t-4 80q0 98 24.5 202.5t55.5 233.5q4 47 6 113.5t2 140.5q0 121 -9 222t-28.5 175t-51.5 115 t-77 41q-53 0 -101 -34t-90 -83t-75 -105.5t-53 -101.5q16 -129 21 -267t5 -282q0 -68 -2 -163t-13 -200.5t-33.5 -208.5t-61.5 -185t-98.5 -133.5t-143.5 -51.5q-59 0 -112.5 24.5t-93.5 66.5t-63.5 98.5t-23.5 120.5q0 68 27.5 111.5t83.5 43.5q39 0 69.5 -23.5 t30.5 -60.5q0 -35 -25.5 -61.5t-66.5 -26.5q-16 0 -25 2q0 -94 52.5 -158.5t130.5 -64.5q51 0 87.5 39t61.5 104.5t39 154.5t22.5 188.5t10.5 206t2 208.5q0 236 -15.5 432.5t-58.5 337.5t-119 219t-196 78q-72 0 -129.5 -29.5t-97.5 -75.5t-61.5 -104.5t-21.5 -113.5 q0 -80 39 -141.5t107 -67.5q-2 8 -2 22q0 47 33.5 88t83.5 41q47 0 77.5 -38t30.5 -85q0 -63 -45 -107t-111 -44q-63 0 -115.5 25.5t-89 67.5t-57 97t-20.5 115zM2165 1927q29 -33 48 -84t30.5 -115.5t15.5 -139t4 -152.5q0 -190 -15.5 -383t-23.5 -367q14 104 38 208.5 t44.5 209t35.5 209t15 211.5q0 180 -53 280.5t-139 122.5z" />
<glyph unicode="N" horiz-adv-x="1957" d="M20 158q0 41 26 74.5t81 33.5q25 0 46.5 -15t21.5 -40q0 -23 -14.5 -33t-35.5 -10q-23 0 -34 12q-10 -10 -11 -22q0 -33 25 -55.5t60.5 -36t75.5 -19.5t71 -6q100 0 180 43t141.5 120t103.5 183.5t68.5 230t39 263t12.5 282.5q0 152 -16.5 290t-59.5 244.5t-117 169 t-188 62.5q-68 0 -122.5 -29.5t-91 -78.5t-56 -109.5t-19.5 -122.5q0 -37 9 -72.5t29.5 -63.5t52.5 -45t75 -17q25 0 41 12q-29 0 -43.5 18.5t-14.5 42.5q0 41 37 70t78 29q35 0 61.5 -22.5t26.5 -65.5q0 -82 -55 -130.5t-150 -48.5q-66 0 -116 26t-85.5 69t-54 97 t-18.5 111q0 76 32.5 147t89 124t133.5 85t163 32q94 0 167 -37.5t126 -98.5q100 -113 189 -287.5t189.5 -398t224.5 -486.5t292 -548q-16 88 -31 194.5t-25 224.5t-16 244t-6 253q0 145 8 291.5t25.5 280.5t45 252t68.5 204t95.5 135t123.5 49q80 0 161 -46t146.5 -118 t106.5 -159t41 -169q0 -41 -13.5 -79.5t-37 -67.5t-58 -46.5t-77.5 -17.5q-29 0 -59 10.5t-54.5 29t-39.5 44t-15 56.5q0 49 28.5 73.5t63.5 24.5q29 0 59.5 -15.5t48.5 -39.5q8 23 9 49q0 43 -30 98.5t-74 104.5t-95 82.5t-94 33.5q-53 0 -94.5 -62.5t-73 -162.5t-54 -226 t-37 -255t-20.5 -249t-6 -206q0 -150 3 -314.5t20 -348.5q10 -98 23 -183.5t13 -117.5q0 -27 -19.5 -41.5t-39.5 -14.5q-23 0 -39 11.5t-33.5 38t-39 67.5t-54.5 100q-86 158 -166 342.5t-154.5 369.5t-143 360.5t-132.5 312.5q41 -154 53.5 -319t12.5 -306q0 -63 -3 -162.5 t-18.5 -211t-50.5 -223t-97.5 -203t-158.5 -147.5t-236 -56q-72 0 -147.5 17t-137 51t-101.5 81t-40 109z" />
<glyph unicode="O" horiz-adv-x="1751" d="M84 1028q0 70 9 158t30.5 180t57.5 180t90.5 157t127 110.5t166.5 41.5q88 0 156 -53q76 78 176 124t225 46q160 0 266.5 -74.5t171 -193.5t92 -266.5t27.5 -294.5q0 -131 -20.5 -269.5t-63.5 -268.5t-108.5 -245.5t-155.5 -202.5t-206.5 -137.5t-260.5 -50.5 q-207 0 -354.5 94.5t-242.5 246t-139 341t-44 377.5zM141 1081q0 -106 17.5 -219.5t53.5 -223.5t91 -207t132 -172t176.5 -118t219.5 -43q147 0 259 74t194 195q96 145 132 291.5t36 314.5q0 92 -7 195.5t-25.5 204t-48.5 192.5t-75 161.5t-106.5 111.5t-140.5 42 q-125 -12 -219.5 -78.5t-158 -169t-95 -230.5t-31.5 -259q0 -82 17.5 -185.5t59.5 -195.5t109.5 -154.5t169.5 -62.5q41 0 80 16.5t68.5 46t48 68.5t18.5 84q0 35 -14 61q-23 -41 -56.5 -66.5t-74.5 -25.5q-47 0 -78 37t-31 84q0 66 42 108.5t102 42.5q49 0 89 -21.5 t69.5 -56t46 -79.5t16.5 -90q0 -68 -24.5 -127.5t-67.5 -103.5t-100.5 -68.5t-121.5 -24.5q-121 0 -204.5 62.5t-135 157.5t-74 211t-22.5 220q0 96 13.5 191.5t40 184.5t66.5 168t93 144q-53 23 -106 23q-102 0 -184.5 -57.5t-139.5 -153.5t-88 -226t-31 -274zM1190 1882 q90 -47 150.5 -143.5t97.5 -228.5t52 -292.5t15 -336.5q14 90 20.5 158.5t6.5 144.5q0 129 -16.5 246.5t-55.5 212t-105.5 157t-164.5 82.5z" />
<glyph unicode="P" horiz-adv-x="2324" d="M74 1407q0 117 38 212t103.5 168t151.5 125t182 86t197.5 49t195.5 15q104 0 243.5 -14t288 -49t293 -93.5t258 -143.5t183 -200.5t69.5 -267.5q0 -117 -51 -227.5t-136 -196.5t-193.5 -138t-225.5 -52q-51 0 -104.5 10t-102.5 30.5t-90 51.5t-67 74q10 -104 15 -212 t5 -212q0 -111 -9 -228.5t-39 -216t-87 -162t-154 -63.5q-55 0 -86.5 30t-31.5 71t28.5 74.5t75.5 33.5q31 0 53.5 -27.5t22.5 -68.5v-16.5t-4 -18.5q41 2 62.5 46t31.5 100.5t12 110.5t2 77q0 115 -11 247t-23.5 268t-23.5 268t-11 249q0 199 28.5 406.5t98.5 388.5 q-158 24 -268 24h-9q-133 0 -265 -29.5t-237.5 -98t-172 -180.5t-66.5 -273q0 -55 16 -94.5t42 -65t58.5 -37.5t65.5 -12q45 0 85 18.5t70.5 48t49 68.5t18.5 80q0 57 -22.5 84.5t-51.5 27.5q-10 0 -17 -6t-11 -14q23 -2 26 -25q0 -23 -15 -31t-32 -8q-23 2 -40 16.5 t-17 41.5q0 51 33 76.5t73 25.5q35 0 62 -15.5t45 -41t27.5 -59t9.5 -68.5q0 -72 -30 -139.5t-77 -121t-107.5 -85t-123.5 -31.5q-61 0 -116.5 22.5t-97.5 65.5t-67.5 106.5t-25.5 145.5zM1268 1446q0 -82 5 -175t15 -196q18 43 54 71t83 28q43 0 70 -27t27 -68 q0 -33 -26 -49t-54 -16q-23 0 -41.5 9t-26.5 30q-23 -10 -32 -32t-9 -44q0 -47 26.5 -79t67.5 -51.5t89.5 -28.5t89.5 -9q98 0 181 48t143.5 125t95 172t34.5 192q0 160 -63.5 269t-168 182t-238.5 116t-273 69q-29 -133 -39 -264t-10 -272zM1894 1784q98 -86 156.5 -200 t58.5 -249q0 -57 -12 -117.5t-35.5 -119t-59.5 -111.5t-81 -96q119 70 190.5 188.5t71.5 278.5q0 141 -81 245.5t-208 180.5z" />
<glyph unicode="Q" horiz-adv-x="1728" d="M96 879q0 45 5 118.5t19.5 157.5t38 169t60.5 154.5t87 112.5t118 43q27 0 53 -14q25 78 79 142.5t125 110.5t152.5 71.5t159.5 25.5q123 0 217.5 -42t163 -111.5t113.5 -161.5t72.5 -194.5t39 -207t11.5 -198.5q0 -145 -23.5 -285.5t-76 -264.5t-134.5 -225.5 t-196 -166.5q23 -61 44 -122t48 -120q23 -53 54.5 -120.5t74.5 -127t98 -99.5t127 -40q55 0 106.5 23.5t91.5 60.5t63.5 83t23.5 91q0 49 -29 72.5t-61 23.5q-14 0 -28.5 -6t-23.5 -18h11q29 0 40 -12.5t11 -28.5q-2 -14 -16.5 -27.5t-36.5 -13.5q-20 0 -37 13t-17 42 q0 43 33 63.5t70 20.5q59 0 103 -39t44 -108q0 -76 -36.5 -146t-95 -124t-129.5 -86t-138 -32q-92 0 -164 48.5t-125 122t-89 159.5t-58 162q-33 115 -56 238q-141 -55 -325 -56q-178 0 -303 75t-205 198t-117 278.5t-37 317.5zM201 942q0 -184 46 -353t159 -280 q-35 57 -61 140t-44 180.5t-27.5 206t-9.5 217.5q0 182 20.5 307t55.5 192q-45 -45 -72.5 -125.5t-42 -170t-19.5 -174.5t-5 -140zM313 1038q0 -96 11.5 -202.5t32 -207t50 -184.5t64.5 -135q98 -139 299 -139q162 0 285 49q-14 78 -31.5 152.5t-44.5 150.5 q-10 -14 -22.5 -19t-24.5 -7q-18 0 -29.5 14t-11.5 33q0 29 20.5 43t46.5 14q29 0 49.5 -24.5t30.5 -49.5q27 -59 50.5 -127.5t46.5 -140.5q104 57 180 144t125 196t73.5 231.5t24.5 249.5q0 84 -11 176.5t-36 181.5t-67 169t-104.5 141t-146 97t-194.5 36q-61 0 -135 -26.5 t-138.5 -71.5t-107.5 -105.5t-43 -126.5q0 -37 15.5 -63.5t40 -44t55 -26.5t63.5 -9q4 0 10 1t11 1q-12 25 -13 47q0 53 38 80t83 27t84 -28t39 -81q0 -41 -29.5 -66.5t-69.5 -41t-83 -21.5t-70 -6q-51 0 -98 15.5t-84 45t-59.5 70.5t-22.5 92q0 10 1 21.5t3 23.5 q-11 8 -31 8q-53 0 -89 -134t-36 -423z" />
<glyph unicode="R" horiz-adv-x="2004" d="M-6 1460q0 147 63.5 265t167 200t235.5 125t267 43q98 0 169 -27.5t120 -81t79.5 -130t49.5 -175.5q45 55 102.5 110.5t121 99.5t132 73t135.5 29q78 0 139.5 -36t103.5 -97.5t64.5 -142.5t22.5 -169q0 -117 -41 -217t-114.5 -177t-175 -125t-222.5 -62 q57 -59 129 -189.5t153 -292t170 -334t184 -314.5t195.5 -233t200.5 -91q29 0 76 13t92 37.5t79 59.5t36 78q-23 -10 -42.5 -17.5t-41.5 -7.5q-41 0 -63.5 28t-22.5 65q0 39 15.5 62.5t36 37.5t43 19t34.5 5q47 0 82 -39.5t35 -103.5q0 -82 -49 -143q-78 -127 -193 -193.5 t-240 -66.5q-113 0 -201.5 61.5t-161.5 166.5t-134.5 244.5t-118.5 297.5q-47 127 -90 253t-88 237.5t-93.5 203.5t-103.5 149q-53 0 -88 1.5t-63 5.5q0 -68 -1 -145t-2 -153.5t-4.5 -151.5t-7.5 -136q-6 -80 -18 -149.5t-39 -123t-71 -84t-113 -30.5q-61 0 -114.5 20.5 t-93.5 53t-63.5 75.5t-23.5 86q0 23 9 47.5t26.5 44t43 33t58.5 13.5q41 0 70.5 -27t29.5 -68q0 -25 -14 -48t-43 -38q20 -23 41.5 -30t38.5 -7q59 0 92 48.5t51 146.5q12 61 21.5 141t16.5 166t12 172t8 160q-37 10 -60.5 27.5t-23.5 44.5q0 25 19 44t67 23 q0 184 -18.5 351t-62.5 294t-119 202t-192 75q-113 0 -214 -45t-177 -120t-121 -173t-45 -203q0 -72 14.5 -120t39 -77.5t55.5 -43t63 -13.5q41 0 74 17.5t55.5 45t33.5 61.5t11 67q0 25 -10 45q-4 -29 -16 -51.5t-45 -22.5q-20 0 -29.5 15.5t-9.5 37.5q0 35 27.5 69 t70.5 34q25 0 40 -13.5t24.5 -35t12.5 -46t3 -49.5q0 -68 -24.5 -124t-65.5 -96t-95.5 -62.5t-111.5 -22.5t-106.5 25.5t-84 72t-55 109.5t-20.5 137zM774 240q0 -19 10 -27q31 8 31 37q0 18 -20 18t-21 -28zM1153 1626q16 -111 20.5 -239.5t6.5 -278.5q29 -8 61.5 -21.5 t71.5 -35.5q111 2 208 39.5t167.5 107.5t111.5 167t41 220q0 68 -13 129.5t-41 107.5t-71 73.5t-100 27.5q-61 0 -125 -27.5t-125 -71.5t-115.5 -96.5t-97.5 -101.5zM1606 563q51 -119 100 -248t101.5 -252.5t109.5 -235.5t123.5 -196t144.5 -133t172 -49q58 0 117 16 q-117 0 -213 63.5t-193.5 198t-208 341t-253.5 495.5z" />
<glyph unicode="S" horiz-adv-x="1718" d="M84 428q0 109 31.5 211t88 182t134.5 128t172 48q84 0 135 -53t51 -127q0 -76 -48 -130t-124 -54q-43 0 -75.5 28.5t-32.5 73.5q0 35 23.5 65.5t70.5 30.5q18 0 37.5 -8t36.5 -18q4 16 4 31q0 39 -25.5 64.5t-77.5 25.5q-70 0 -125 -37t-95 -96.5t-61.5 -135 t-21.5 -153.5q0 -147 70 -261t176.5 -193t235.5 -120t249 -41q115 0 217.5 27t180.5 85t123 149.5t45 218.5q0 131 -56.5 252.5t-142.5 229t-187.5 201t-189.5 167.5q-82 68 -150.5 130t-117.5 124.5t-77 130t-28 147.5q0 86 33 149.5t89.5 106.5t132 64.5t159.5 21.5 q57 0 118.5 -16.5t113 -50t84 -85t32.5 -118.5q0 -37 -11 -74t-32.5 -66.5t-54.5 -47t-78 -17.5q-66 0 -101.5 38t-35.5 87q0 45 26.5 65.5t65.5 20.5q35 0 72 -20.5t47 -65.5q20 12 32.5 43t12.5 59q0 51 -25.5 85t-64.5 55.5t-85 30.5t-87 9q-47 0 -98.5 -11t-96.5 -35.5 t-73.5 -65.5t-28.5 -101q0 -98 61.5 -173.5t149.5 -147.5q139 -113 271 -226.5t234.5 -244.5t165 -286.5t62.5 -352.5q0 -152 -44 -278t-131 -217t-217 -141t-304 -50q-92 0 -189.5 22.5t-190.5 66.5t-177 107.5t-146.5 144.5t-99.5 180t-37 212zM573 1774q0 -78 30 -145.5 t84 -134.5t129 -134.5t167 -145.5q76 -66 152.5 -137t146.5 -149t126 -164t89 -178q-16 113 -66.5 217t-124 198.5t-164 179t-184.5 162.5q-96 78 -166.5 136.5t-116.5 106.5t-70.5 93t-31.5 95z" />
<glyph unicode="T" horiz-adv-x="1898" d="M121 1483q0 117 45 216t122 173t180 116t218 42q188 0 390 -46.5t419 -95.5q-4 43 -8 88t-4 56q0 24 20 24q8 0 15.5 -17.5t11.5 -45t7 -59t7 -58.5q160 -35 323 -59.5t337 -24.5q47 0 91 3t78.5 14.5t55 30t20.5 48.5q0 14 -2 23q0 -23 -15 -35t-38 -12 q-33 0 -62.5 28.5t-29.5 69.5q0 29 20.5 54.5t55.5 25.5q27 0 48 -16.5t36.5 -40t23.5 -50t8 -49.5q0 -59 -31.5 -92t-76.5 -50.5t-93 -21.5t-79 -4q-158 0 -321.5 25.5t-338.5 60.5q14 -86 37 -211t44.5 -270t37 -303t15.5 -309q0 -61 -3.5 -141.5t-15.5 -165.5 t-36.5 -167.5t-65.5 -147t-103.5 -104.5t-148.5 -40q-39 0 -78 11t-69.5 33.5t-50 55.5t-19.5 76q0 37 27.5 72.5t93.5 35.5q43 0 75.5 -23.5t32.5 -64.5q0 -16 -6 -35q57 25 96 84.5t64.5 138.5t40 171t21.5 184t8 177t1 149q0 211 -15 411.5t-34 393.5q-178 35 -355 63.5 t-353 28.5q-109 0 -203 -32t-165 -88t-112 -135t-41 -173q0 -43 13.5 -84t40 -73t66.5 -51.5t93 -19.5q84 0 141.5 47.5t57.5 114.5q0 8 -2 17.5t-4 19.5q-16 -10 -42 -21.5t-60 -11.5q-37 0 -73 17.5t-36 62.5q0 47 43 78t98 31q39 0 69 -16.5t50.5 -43t29.5 -58.5t9 -63 q0 -66 -26.5 -113.5t-71.5 -78.5t-101.5 -46.5t-117.5 -15.5q-84 0 -145.5 27t-102.5 71t-61.5 100t-20.5 114zM545 1493q0 -14 14 -23q8 23 29.5 35.5t48.5 16.5q-12 4 -22.5 6t-20.5 2q-23 0 -36 -11.5t-13 -25.5zM1171 119q0 -23 16.5 -31t33.5 -8q12 0 28 4q2 6 2 20 q0 18 -9 35t-32 17q-14 0 -26.5 -10.5t-12.5 -26.5zM2347 1962q0 -10 8 -16q10 4 21.5 9t23.5 5q17 0 33 -12q-14 16 -27.5 29.5t-29.5 13.5q-29 -4 -29 -29z" />
<glyph unicode="U" horiz-adv-x="2174" d="M74 1642q0 82 38 170.5t102.5 160t152.5 118.5t188 47q139 0 225 -66.5t133.5 -168t63.5 -221t16 -226.5q0 -145 -14 -318t-30.5 -338t-31 -302.5t-14.5 -208.5q0 -199 121 -199q94 0 197.5 86t204 246t193.5 390t165 519q-2 20 -7 66.5t-11.5 105t-11.5 123t-5 123.5 q0 90 14.5 145.5t51.5 55.5q31 0 51 -22.5t32 -60.5t16.5 -87t4.5 -101q0 -53 -4 -107t-9 -102.5t-10.5 -84.5t-7.5 -54q3 -189 3 -380v-95v-22q0 -228 20 -433q6 -57 14 -118.5t26.5 -111.5t48.5 -82t79 -32q47 0 83 34t36 81q0 20 -4.5 38.5t-4.5 31.5q0 29 19 28 q18 0 29.5 -13t18.5 -31.5t9 -38t2 -33.5q0 -55 -23.5 -101.5t-61.5 -79t-85 -51t-96 -18.5q-90 0 -142.5 54t-80 131t-35.5 161t-8 145q0 137 9 302t19 321q-35 -115 -79 -235.5t-97 -234.5t-114.5 -214.5t-132 -175t-150.5 -118.5t-166 -44q-49 0 -91 15.5t-75 50 t-51.5 91t-18.5 136.5q0 100 9.5 216t21.5 249t21.5 282.5t9.5 319.5q0 55 -3 122.5t-14.5 138.5t-31 137.5t-52 118.5t-78.5 84t-112 32q-63 0 -123.5 -36t-107.5 -91.5t-76 -123t-29 -130.5q0 -41 11.5 -83t37 -76t66.5 -55.5t98 -21.5q59 0 98 35t39 82q0 23 -12 47 q-25 -20 -49 -20q-31 0 -44 13t-13 30q0 27 27.5 53t68.5 26q29 0 51.5 -13t37.5 -32.5t23.5 -44t8.5 -47.5q0 -45 -19.5 -82t-52.5 -64.5t-79 -43t-97 -15.5q-88 0 -153.5 30t-109.5 79t-65.5 111.5t-21.5 125.5z" />
<glyph unicode="V" horiz-adv-x="1961" d="M74 1479q0 94 39 183t106.5 157.5t160.5 110.5t202 42q154 0 271.5 -90t207.5 -235.5t155.5 -328.5t114.5 -369.5t85 -359.5t67 -296q84 438 143.5 746.5t100 515t65.5 327.5t41 184q20 80 48 146.5t68 115t93 75t125 26.5q55 0 98 -29.5t43 -83.5q0 -37 -26.5 -64.5 t-67.5 -27.5q-27 0 -51 37q-55 -8 -101.5 -62.5t-94.5 -189.5t-104.5 -368.5t-133.5 -598.5q-45 -211 -76 -364.5t-51.5 -272t-34 -211t-21.5 -178.5q-4 -49 -30.5 -80.5t-67.5 -31.5q-61 0 -68 106q-4 84 -28.5 214t-64.5 286t-92 326t-112.5 332.5t-126 307t-133.5 248.5 q-23 37 -49 72t-58 61.5t-71 43t-88 16.5q-96 0 -169 -35t-121 -91t-72.5 -128t-24.5 -145q0 -115 42 -181.5t101 -66.5q33 0 59.5 22.5t45 56t29 75.5t10.5 79q0 33 -6.5 59.5t-14.5 36.5q-12 -29 -32.5 -44t-43.5 -15q-35 0 -52 29.5t-17 58.5q0 41 31.5 72t78.5 31 q43 0 70 -27t42 -66t20.5 -82t5.5 -75q0 -80 -20.5 -140.5t-52.5 -100.5t-73 -60.5t-80 -20.5q-47 0 -90 23.5t-76.5 65.5t-53 100.5t-19.5 130.5zM766 1864q84 -90 169 -247t163 -346.5t143.5 -392t110.5 -384.5q-23 115 -51.5 247.5t-66.5 269t-85 268.5t-104.5 245.5 t-127 202t-151.5 137.5z" />
<glyph unicode="W" horiz-adv-x="2576" d="M61 1571q0 94 28 192.5t85 179t145.5 132t206.5 51.5q78 0 144.5 -31t122 -80t99.5 -110.5t77 -124.5q100 -199 155.5 -410t84 -428t45 -436t40.5 -436q33 215 78 423.5t97.5 415.5t106.5 414t105 418q6 25 18.5 51.5t41.5 26.5q41 0 51 -62q63 -432 142 -820t186 -765 q16 176 40.5 396t65.5 443.5t105.5 427t160.5 347.5q14 20 38 48t52.5 52.5t60.5 42t62 17.5q45 0 76 -30t31 -83q0 -43 -17.5 -76t-46 -54.5t-65.5 -31.5t-76 -10h-19.5t-19.5 2q-55 -82 -103 -206t-88 -268.5t-72 -299t-55.5 -300t-39 -272.5t-21.5 -215q-2 -16 -5 -34.5 t-10 -35t-20.5 -26.5t-33.5 -10q-29 0 -53.5 26.5t-41.5 67.5q-61 166 -110 346t-88 366.5t-71 376t-56 373.5q-102 -389 -183 -787t-122 -800q-4 -27 -8.5 -55.5t-14.5 -53t-27.5 -41t-44.5 -18.5q-31 0 -51 14.5t-32.5 40t-20.5 59.5t-14 71q-16 86 -41 235.5t-59.5 332.5 t-80 384t-99.5 387t-117.5 342t-137.5 250q-45 59 -97 91t-110 32q-59 0 -115.5 -34t-102.5 -92.5t-73.5 -134t-27.5 -161.5q0 -78 19.5 -142.5t54 -111.5t81 -73.5t101.5 -26.5q47 0 76.5 20t46.5 53q-41 2 -71 31t-30 70q0 18 5.5 40.5t16.5 41t28.5 31t42.5 12.5 q59 0 89.5 -51.5t30.5 -116.5q0 -92 -63.5 -152.5t-165.5 -60.5q-74 0 -133.5 31.5t-101.5 85t-64.5 125t-22.5 151.5zM567 2044q96 -53 177 -187.5t149 -315.5t121 -394t96 -422q-27 258 -77 519t-154 499q-23 49 -53.5 99t-68.5 91t-86 71t-104 40zM2613 1729 q41 0 80 26.5t39 73.5q0 16 -10 16t-24.5 -11t-29 -28.5t-29 -38t-26.5 -38.5z" />
<glyph unicode="X" horiz-adv-x="2367" d="M90 293q0 41 14.5 80t41 69.5t62.5 49t77 18.5q57 0 89 -37t32 -74q0 -39 -24 -62.5t-58 -23.5q-23 0 -44.5 15.5t-21.5 54.5q0 10 2 18.5t6 18.5q-27 0 -45 -12.5t-30.5 -33t-18.5 -44t-6 -43.5q0 -88 64.5 -138.5t152.5 -50.5q131 0 234.5 84t190.5 228.5t165 336 t160 404.5q-61 143 -125 269t-133.5 220.5t-149.5 148.5t-172 54q-59 0 -114.5 -18.5t-98.5 -53t-68.5 -84t-25.5 -110.5q0 -66 33.5 -121t91.5 -82q6 37 38.5 62.5t67.5 25.5q33 0 53.5 -23.5t20.5 -54.5q0 -59 -38 -83.5t-91 -24.5q-61 0 -108.5 28.5t-80 74.5t-49 103.5 t-16.5 112.5q0 76 29.5 142.5t82 116t123 78t150.5 28.5q98 0 183 -55.5t160 -150.5t142.5 -224t132.5 -277q51 133 105.5 256t116.5 228q47 80 105 152.5t128 129t151 89t177 32.5q68 0 132 -19.5t114.5 -58.5t80 -98t29.5 -139q0 -55 -18.5 -110.5t-53 -99.5t-83 -71.5 t-105.5 -27.5q-29 0 -60.5 7t-57 22.5t-42 40t-16.5 59.5q0 29 18.5 50t51.5 21q35 0 50 -16.5t15 -32.5q0 -39 -33 -55q23 -29 70 -29q35 0 59.5 15.5t41 39t23.5 53t7 60.5q0 68 -26.5 116t-66.5 77.5t-86 44t-87 14.5q-92 0 -167 -53.5t-147.5 -169t-151.5 -299 t-179 -445.5q106 -236 203.5 -423t188.5 -317t178 -198.5t173 -68.5q47 0 95 19.5t86 50t62.5 68.5t24.5 75q0 23 -7 40t-23 25q-4 -31 -22.5 -52.5t-51.5 -21.5q-29 2 -44 28t-15 54q0 45 33.5 75t82.5 30q66 0 109 -49t43 -135q0 -76 -39 -144.5t-99.5 -120t-132 -81 t-137.5 -29.5q-106 0 -194 65.5t-174 197.5t-177.5 331.5t-203.5 470.5q-33 -86 -75 -189.5t-94 -210t-118 -207t-145.5 -178.5t-176 -125t-208.5 -47q-66 0 -123.5 24.5t-100.5 67.5t-68.5 102.5t-25.5 129.5zM809 252q61 68 114.5 151.5t101.5 178t91 198t84 207.5 q-10 23 -17.5 42t-17.5 42q-37 -102 -76.5 -211.5t-82.5 -216t-92.5 -207t-104.5 -184.5zM1204 1178l35 -82q47 125 92 242.5t91 222t94.5 190.5t99.5 150q-68 -53 -125 -131t-107.5 -171.5t-94.5 -201t-85 -219.5z" />
<glyph unicode="Y" horiz-adv-x="1961" d="M129 1524q0 98 38 188t99.5 161t140 113t160.5 42q104 0 181 -45.5t131.5 -122t89.5 -179t54 -216t26.5 -232.5t7.5 -229q0 -150 -7.5 -278t-11.5 -210q98 143 192.5 265t179.5 235.5t155.5 223.5t122.5 230q4 16 7 58.5t7 95.5t11 109.5t19.5 103.5t30 78t43.5 31 q47 0 65.5 -38t18.5 -81q0 -78 -36.5 -172t-86.5 -193q39 -242 74 -521t35 -570q0 -131 -18.5 -267.5t-58.5 -265.5t-104.5 -242.5t-155.5 -199.5t-211 -135t-271 -49q-92 0 -180.5 31.5t-156 83.5t-108.5 121t-41 144q0 104 59.5 162t160.5 58q47 0 84.5 -15.5t63.5 -41 t40 -58.5t14 -66q0 -41 -26.5 -70.5t-73.5 -29.5t-91 38t-48 114q-43 0 -61.5 -28t-18.5 -56q0 -59 30.5 -111.5t86 -92.5t129 -62.5t159.5 -22.5q145 0 243.5 93t161 250t96.5 360.5t52.5 424.5t27.5 444.5t21 417.5q-74 -131 -160.5 -261t-171.5 -252.5t-159 -234.5 t-123 -204q-16 -33 -30.5 -45t-32.5 -12q-23 0 -38.5 19.5t-15.5 78.5q0 45 5.5 114.5t11.5 154.5t11 180.5t5 187.5q0 111 -6 223.5t-22.5 217t-45 195.5t-73.5 158.5t-109.5 106.5t-151.5 39q-70 0 -134 -35t-114.5 -94t-80 -138t-29.5 -167q0 -45 10.5 -87t29.5 -75 t48 -53.5t66 -20.5q31 0 59.5 13.5t52 33t41 45t29.5 50.5q-39 10 -53.5 41.5t-14.5 68.5q0 45 27 73t61 28q53 0 83 -48.5t30 -103.5q0 -61 -25.5 -117.5t-68.5 -99.5t-97.5 -69.5t-111.5 -26.5q-68 0 -116 30.5t-78.5 79.5t-45 109.5t-14.5 120.5zM1565 -483 q125 156 191.5 385t66.5 540q0 262 -25.5 495.5t-52.5 432.5q0 -135 2 -289.5t2 -361.5q0 -399 -41 -703.5t-143 -498.5z" />
<glyph unicode="Z" horiz-adv-x="1939" d="M90 1581q0 109 36 195t98.5 145t150.5 91t192 32q111 0 229.5 -21.5t237.5 -47t234.5 -47t220.5 -21.5q70 0 141 12q10 8 26.5 23.5t38 31t45 26.5t48.5 11q29 0 38 -11t9 -24q0 -41 -50 -64.5t-114 -33.5q-57 -47 -106 -105.5t-91 -121t-77 -127t-64 -125.5 q29 -4 55.5 -6t55.5 -2q8 0 15.5 1t17.5 1q4 16 17 32.5t36 16.5q16 0 29.5 -12.5t13.5 -32.5q0 -25 -12.5 -40.5t-32 -24.5t-44 -13t-46.5 -4q-35 0 -69 5t-66 11q-37 -82 -77 -182t-85 -206.5t-98.5 -216.5t-116 -210t-136 -187t-161.5 -151q86 -25 176 -53.5t180 -51 t183.5 -38t185.5 -15.5q14 0 52 2.5t88 11.5t104.5 26.5t98.5 47t73.5 74.5t29.5 109q0 49 -22.5 96t-63.5 57q8 -18 8 -38q0 -47 -38.5 -72t-79.5 -25q-43 0 -72 28t-29 69q0 33 15.5 58t40 40.5t54 24t58.5 8.5q49 0 87 -21.5t63.5 -56.5t39 -78t13.5 -88q0 -102 -51 -176 t-126 -122t-162 -71.5t-159 -23.5q-96 0 -201.5 24.5t-211 61.5t-207 78.5t-189.5 74.5q-53 -31 -116.5 -52t-145.5 -21q-31 0 -63.5 9t-59 26.5t-44 42t-17.5 55.5q0 39 30.5 51t63.5 12q39 0 92 -9t92 -17q90 82 186.5 210.5t195 281.5t198.5 315.5t201 316.5 q-23 4 -47.5 8t-47.5 4q-29 0 -48 -6t-38 -6q-20 0 -20 20q0 23 39 34t82 11q29 0 58.5 -3t58.5 -7q92 139 182 256t176 195q-27 -2 -48.5 -2h-37.5q-115 0 -227.5 18.5t-223 41t-219 40.5t-217.5 18q-88 0 -162.5 -19t-129 -62t-85 -111t-30.5 -162q0 -47 9 -92t30.5 -80 t56.5 -56.5t84 -21.5q37 0 65.5 21.5t28.5 62.5q-35 0 -58.5 20.5t-23.5 49.5q0 39 28.5 63.5t63.5 24.5q27 0 47.5 -14.5t33.5 -37t19.5 -50t6.5 -54.5q0 -51 -20.5 -91t-53.5 -66.5t-75 -41t-87 -14.5q-61 0 -109 29t-82 76t-51.5 105.5t-17.5 119.5zM193 205 q0 -12 23.5 -21.5t45.5 -9.5q16 0 38 4.5t42 14.5q-16 6 -54 14t-67 8t-28 -10zM561 211q133 96 228.5 220t171 263.5t138 290t130.5 299.5q-76 -133 -154 -273.5t-159.5 -279.5t-170 -271t-184.5 -249z" />
<glyph unicode="[" horiz-adv-x="495" d="M137 45q0 86 13.5 216t13.5 329q0 319 -6 603t-6 562q0 117 7 172t40 78q29 20 92 31.5t131 11.5q31 0 31 -16q0 -17 -35 -19q-109 -10 -149 -29.5t-40 -76.5q0 -193 11.5 -381.5t25 -374.5t24.5 -370.5t11 -368.5q0 -86 -8 -185.5t-8 -183.5q0 -37 2 -67.5t10 -54 t26.5 -38t49.5 -16.5l49 -4q18 -2 23.5 -7.5t5.5 -9.5q0 -10 -21.5 -21t-83.5 -11q-70 0 -110.5 18t-62 50t-29 74t-7.5 89z" />
<glyph unicode="\" horiz-adv-x="679" d="M51 1739q0 25 12.5 43t30.5 18q23 0 36 -18.5t28 -46.5q10 -23 25.5 -62t30.5 -83t30.5 -91t27.5 -84q111 -360 204 -725.5t188 -734.5q4 -4 8 -12q6 -14 10 -31q0 -23 -16 -23q-8 0 -13 5q-6 6 -12 20t-12 31.5t-11.5 33t-7.5 23.5q-41 119 -83 231.5t-81.5 224 t-77.5 226.5t-75 242q-16 53 -39 137t-51.5 184.5t-61 211t-67.5 216.5q-10 10 -16.5 28.5t-6.5 35.5z" />
<glyph unicode="]" horiz-adv-x="604" d="M20 1993q0 14 11.5 22t27 12.5t31.5 6.5t27 2q25 0 64.5 -1t76.5 -5.5t64.5 -10.5t27.5 -16q0 -6 -7 -21.5t-14 -34t-14.5 -40t-7.5 -41.5q0 -51 26.5 -197.5t57.5 -360.5t57.5 -480.5t26.5 -555.5q0 -100 -2 -203.5t-12 -201.5q-8 -66 -53.5 -81t-114.5 -15q-41 0 -85 2 t-81 13t-60.5 32.5t-23.5 58.5q0 23 14.5 43.5t48.5 20.5q18 0 46 -2t56 -5.5t50.5 -5.5t34.5 -2q8 106 10 214t2 218q0 285 -14.5 565.5t-28.5 565.5q-2 39 -6 86t-7 94t-5 91t-2 79q0 47 5 80t27 63q-29 6 -65.5 11.5t-69.5 5.5q-32 0 -57 -6q-18 -23 -37 -25 q-10 0 -17.5 7t-7.5 18zM84 -127q0 -20 16 -25l19 48q-12 4 -15 4q-10 0 -15 -8.5t-5 -18.5z" />
<glyph unicode="^" horiz-adv-x="716" d="M154 1489q0 12 16 22q68 41 111 91.5t53 130.5q4 23 11 43t28 20q12 0 18 -13.5t9 -31.5t4.5 -39.5t5.5 -38.5q12 -57 55 -95t100 -54q51 -14 51 -29q-2 -18 -28.5 -29.5t-61.5 -11.5q-63 0 -115.5 40t-70.5 108q-8 -16 -27.5 -39t-44 -43.5t-50 -35t-44.5 -14.5 q-20 0 -20 19z" />
<glyph unicode="_" horiz-adv-x="821" d="M41 78q0 23 32.5 36t76 19t86.5 7t63 1h152q61 0 123.5 -1t114.5 -5t85 -12t33 -23q0 -31 -146.5 -44t-412.5 -13h-56.5t-52.5 2q-12 -14 -33 -14q-20 0 -42.5 12t-22.5 35z" />
<glyph unicode="`" horiz-adv-x="516" d="M102 1686q0 45 19.5 77.5t60.5 32.5q31 0 43.5 -20.5t12.5 -38.5q0 -29 -11.5 -54.5t-11.5 -54.5q0 -23 14.5 -49.5t53.5 -54.5q25 -18 48 -27.5t43.5 -15.5t33 -13.5t12.5 -19.5q0 -14 -33 -14q-18 0 -47 7t-68 23q-29 12 -58.5 32t-54 46.5t-41 62t-16.5 81.5z" />
<glyph unicode="a" horiz-adv-x="1146" d="M86 631q0 98 32 204.5t93 194.5t151.5 144.5t204.5 56.5q68 0 131.5 -32t104.5 -103q16 78 41.5 127t60.5 49q18 0 24.5 -13.5t6.5 -31.5q0 -20 -7 -47t-17.5 -51.5t-19.5 -44t-15 -25.5q-4 -35 -6.5 -60.5t-2.5 -54.5q0 -37 3 -102.5t9.5 -141t15.5 -155.5t21.5 -143.5 t26.5 -104.5t33 -41q10 0 31.5 19.5t33.5 64.5q-16 4 -27 19.5t-11 37.5q0 29 20 50.5t43 21.5q20 0 35.5 -19.5t15.5 -66.5q0 -35 -17.5 -77t-45 -79t-62.5 -61.5t-71 -24.5q-47 0 -79 45t-50.5 117t-25.5 162t-7 182v50.5t2 54.5q-47 -90 -98.5 -169t-109.5 -138.5 t-121.5 -94.5t-131.5 -35q-102 0 -158.5 84t-56.5 232zM201 664q0 -43 6 -88.5t21.5 -81t40 -59t61.5 -23.5h12q-33 23 -54.5 73t-34.5 109t-18.5 117.5t-5.5 99.5v25.5t2 25.5q-30 -98 -30 -198zM262 815q0 -39 7 -103.5t24.5 -126t44.5 -105.5t63 -44q33 0 74 27 q47 33 90 80t81 100t68.5 108.5t53.5 104.5q4 45 9 89t14 85q-20 74 -82 105.5t-123 31.5q-113 0 -190 -58t-124 -146q-4 -35 -7 -73t-3 -75z" />
<glyph unicode="b" horiz-adv-x="915" d="M18 2015q0 25 10.5 51.5t27 50t40 39t47.5 15.5q92 0 125 -185.5t33 -555.5q0 -104 -2 -198.5t-6 -178.5q23 37 49.5 74.5t57 67.5t66.5 49.5t79 19.5q61 0 107 -29t79 -74t54.5 -102.5t35 -115.5t18.5 -112.5t5 -93.5q0 -80 -12.5 -162.5t-45 -151.5t-91 -112 t-148.5 -43q-106 0 -185 56.5t-114 158.5q-10 -68 -26.5 -134t-36 -120.5t-41 -87t-46.5 -32.5q-31 0 -30 32q0 14 10 39q70 154 89 411t19 603q0 109 -2 216.5t-7 208.5t-11 192t-14 169q-4 -16 -18.5 -28.5t-41.5 -12.5q-39 0 -56.5 26t-17.5 50zM86 2007q0 -18 14 -18 q10 0 14.5 11t4.5 21q0 15 -4 27q-16 -6 -22.5 -18.5t-6.5 -22.5zM264 623q6 -61 28.5 -112.5t57.5 -88.5t77 -56.5t89 -19.5q59 0 99 27.5t66 73t38 101.5t16 114q-6 66 -27.5 147.5t-57.5 153t-85 121t-108 49.5q-33 0 -58.5 -19.5t-46 -45.5t-36 -53.5t-27.5 -43.5 q-6 -115 -13.5 -196t-9.5 -120q-2 -10 -2 -17v-15zM446 1169q55 0 101.5 -28.5t82.5 -75.5t62.5 -106.5t42.5 -122.5q-6 63 -20.5 129.5t-39 121t-58 89t-78.5 34.5t-93 -41z" />
<glyph unicode="c" horiz-adv-x="909" d="M72 641q0 109 34.5 211t98 182t155 129t203.5 49q115 0 169 -54t54 -138q0 -43 -15 -88t-40.5 -82t-61.5 -60.5t-77 -23.5q-47 0 -76 39t-29 92q0 18 5.5 37.5t16.5 37t28.5 29t40.5 11.5q20 0 37.5 -14.5t17.5 -43.5q0 -16 -10.5 -35.5t-32.5 -19.5q-9 0 -21 6 q-10 -8 -13 -20.5t-3 -22.5q0 -45 39 -45q20 0 37.5 15.5t30 38t19.5 51t7 57.5q0 72 -42 116t-124 44q-63 0 -119 -23q-57 -106 -103 -236t-46 -255q0 -53 6 -107.5t24.5 -101.5t50.5 -84t83 -56q20 -10 43 -12q27 -6 61 -6q47 0 84 19.5t67.5 51t56.5 72.5t50 84 q6 12 15.5 23.5t19.5 11.5q20 0 21 -49q0 -53 -29 -103.5t-77 -90t-111.5 -64.5t-131.5 -25q-109 0 -187.5 42t-128.5 109t-73.5 146.5t-23.5 155.5zM176 696q0 -70 15.5 -135t46.5 -121q-14 43 -19.5 88t-5.5 93q0 141 38 254.5t91 211.5q-84 -55 -125 -158.5t-41 -232.5z " />
<glyph unicode="d" horiz-adv-x="1067" d="M86 623q0 150 36 254t95 169.5t136 96.5t159 31q47 0 95 -8.5t98 -24.5q4 98 11 216t18 237.5t27.5 232t39 200t51.5 139.5t66 52q18 0 31.5 -29.5t21.5 -83t12 -128t4 -165.5q0 -137 -12 -290.5t-37 -307t-59.5 -299t-79.5 -268.5q29 -221 70.5 -319.5t95.5 -98.5 q25 0 56.5 18.5t53.5 35.5q10 8 17.5 13t15.5 5q10 0 10 -22q0 -31 -13 -67t-38 -64.5t-59.5 -48t-77.5 -19.5q-94 0 -143.5 106.5t-69.5 309.5q-82 -121 -186.5 -178.5t-196.5 -57.5q-66 0 -113 32t-76.5 83t-44 115.5t-14.5 132.5zM174 672q0 -53 10.5 -107.5t34 -98.5 t59 -74t84.5 -34q-29 18 -52 52t-38.5 77t-23.5 92.5t-8 98.5q0 217 110 377q-78 -41 -127 -131t-49 -252zM285 702q0 -53 10 -111.5t30.5 -106.5t52.5 -80.5t77 -36.5q68 16 132 63t124 135q-6 78 -8.5 164t-2.5 184v63t2 87q-47 14 -95 22.5t-93 8.5q-63 0 -119 -19 q-53 -82 -81.5 -175t-28.5 -198zM786 930q0 -47 0.5 -96.5t4.5 -100.5q33 125 59.5 265.5t44.5 279.5t28.5 270t10.5 238q0 139 -3 195.5t-11 56.5q-14 0 -37 -88t-44.5 -239.5t-37 -353.5t-15.5 -427z" />
<glyph unicode="e" horiz-adv-x="942" d="M86 684q0 100 33 200.5t93 180.5t147 129t196 49q129 0 191.5 -58.5t62.5 -152.5q0 -106 -49 -177t-128 -114t-175.5 -60t-190.5 -17h-59q12 -84 44 -155t82 -124t116.5 -83t148.5 -30q55 0 107.5 15.5t97.5 50.5q-16 4 -26.5 18.5t-10.5 24.5q0 23 15.5 38t37.5 15 q23 0 38 -14t15 -41q0 -39 -25.5 -81t-71.5 -77t-108.5 -57.5t-134.5 -22.5q-96 0 -178 42t-141 115t-93 172t-34 214zM203 733.5q0 -8.5 2 -16.5q61 12 135 40.5t138.5 74t107.5 107.5t43 140q0 47 -18.5 76t-69.5 29q-74 0 -136.5 -43t-107.5 -107.5t-69.5 -140.5 t-24.5 -143v-16.5zM330 700q78 8 153.5 30t136 61.5t98.5 101t38 147.5q0 45 -16.5 81t-55.5 57q33 -45 33 -103q0 -80 -35 -140.5t-91 -106.5t-125 -76.5t-136 -51.5z" />
<glyph unicode="f" horiz-adv-x="851" d="M37 1061q0 18 14.5 25.5t30.5 7.5q29 0 73 -3.5t107 -5.5q-2 92 -3 180.5t-1 174.5q0 53 1 120.5t8 139.5t22.5 141.5t44 123.5t72 87t106.5 33q74 0 141.5 -38t117.5 -99.5t81 -137t31 -149.5q0 -96 -60.5 -155.5t-150.5 -59.5q-31 0 -61.5 10t-54.5 27.5t-39 42 t-15 55.5q0 29 23.5 54.5t64.5 25.5q29 0 54.5 -18t33.5 -84q49 4 84 42.5t35 98.5q0 51 -23.5 108.5t-63.5 104.5t-90.5 78.5t-101.5 31.5q-78 0 -133 -100t-55 -324q0 -125 6 -255t16 -259q76 0 148.5 5.5t150.5 5.5q33 0 44.5 -7.5t11.5 -23.5q0 -18 -10.5 -38.5t-31 -38 t-50 -29t-68.5 -11.5q-41 0 -89 6.5t-98 14.5q12 -129 24.5 -249t23 -221.5t16.5 -180t6 -125.5q0 -51 -13.5 -100.5t-35 -88.5t-47 -62.5t-51.5 -23.5q-16 0 -22.5 11.5t-6.5 23.5q0 29 18.5 111.5t18.5 226.5q0 29 -3 95.5t-6 159.5t-8.5 206.5t-7.5 234.5q-43 6 -77.5 9 t-61.5 8q-39 4 -64.5 16t-25.5 41z" />
<glyph unicode="g" horiz-adv-x="972" d="M82 -147q0 55 24.5 109t65.5 96t95.5 68t115.5 26q47 0 87 -21.5t40 -77.5q0 -41 -33 -72.5t-71 -31.5q-35 0 -56.5 25.5t-21.5 56.5q0 10 1 18t5 21q-45 -23 -79 -71t-34 -114q0 -61 24.5 -111t66.5 -86t94.5 -56.5t107.5 -20.5q76 0 131 35t91 96t53.5 146t17.5 188 q0 184 -12.5 328.5t-26.5 287.5q-33 -59 -77 -116.5t-96 -104.5t-111.5 -75.5t-127.5 -28.5q-117 0 -187.5 73.5t-70.5 198.5q0 92 29 184t85 165t137 119t186 46q115 0 206 -68v111q0 66 5.5 91.5t19.5 25.5q6 0 12 -6.5t8 -22.5q8 -133 28 -268t39 -272.5t33.5 -274.5 t14.5 -272q0 -115 -16.5 -242t-62.5 -234.5t-127 -178t-212 -70.5q-78 0 -150.5 29.5t-127.5 80.5t-89 121t-34 150zM213 657q0 -43 8 -80.5t26.5 -66.5t47.5 -46.5t70 -17.5q39 0 75 13q-86 18 -133 79.5t-47 182.5q0 113 45 215q-45 -59 -68.5 -131t-23.5 -148zM293 731 q0 -123 51 -182.5t145 -69.5q76 41 144.5 115t128.5 154q-12 129 -19 278q-75 57 -161 57q-59 0 -109.5 -18t-93.5 -53q-39 -53 -62.5 -129t-23.5 -152z" />
<glyph unicode="h" horiz-adv-x="983" d="M-10 137q0 35 16.5 60.5t42.5 25.5q23 0 45 -22q12 47 21.5 109.5t14.5 169t7 269t2 412.5v171t1 176t2 157t3 111q2 86 7.5 153.5t16.5 113.5t33.5 70.5t59.5 24.5q41 0 69.5 -33.5t28.5 -83.5q0 -27 -10 -59.5t-41 -32.5q-16 0 -35 10q-10 -51 -19 -141t-16.5 -196.5 t-11.5 -219t-4 -206.5v-86t2 -91q43 66 97.5 134.5t113.5 113.5q53 43 110.5 64.5t104.5 21.5q49 0 82 -16.5t51.5 -45t25.5 -68.5t7 -87q0 -90 -11 -181t-24.5 -177t-25 -163t-11.5 -134q0 -37 9.5 -77t25.5 -65q16 14 36 21.5t38 9.5q29 0 56.5 -18.5t27.5 -59.5 q0 -39 -28.5 -65.5t-73.5 -26.5q-76 0 -120 61.5t-65.5 150.5t-28 191.5t-6.5 186.5q0 49 1 98.5t1 96.5q0 145 -14 212.5t-55 67.5q-37 0 -80 -33.5t-87 -83t-85 -105.5t-70 -101q2 -96 5.5 -203t3.5 -230t-10.5 -206.5t-32 -135t-53 -74t-72.5 -22.5q-33 0 -55.5 22.5 t-22.5 63.5zM608 1288q55 -29 80 -125q8 -37 11 -94t4.5 -126t1.5 -144.5t2 -147.5q10 102 25.5 216t15.5 249q0 29 -2.5 59.5t-12.5 57.5t-30.5 43t-55.5 16q-10 0 -19.5 -1t-19.5 -3zM797 297q23 -33 47 -33q14 0 19 7.5t5 15.5q0 14 -10 20t-22 6q-10 0 -20.5 -5 t-18.5 -11z" />
<glyph unicode="i" horiz-adv-x="499" d="M96 1370q0 33 28 56.5t81 25.5q12 12 35.5 21.5t46.5 9.5q72 0 101.5 -40t29.5 -87t-38 -86t-104 -39q-74 0 -127 42t-53 97zM125 592q0 61 4 144t17.5 157t38 125t67.5 51q23 0 37 -19.5t21 -49t10.5 -62.5t3.5 -59q0 -59 -5.5 -133t-15.5 -150t-24.5 -146.5 t-34.5 -121.5q6 -25 21.5 -43.5t31.5 -28.5q20 -14 27.5 -21.5t7.5 -17.5q0 -18 -20.5 -32.5t-51.5 -14.5q-45 0 -71.5 44t-41 108.5t-18.5 137t-4 132.5zM205 643q0 -66 5 -131.5t17 -126.5q14 80 25.5 182.5t11.5 210.5q0 86 -6 128t-12 42q-8 0 -15.5 -25.5t-13.5 -68.5 t-9 -98.5t-3 -112.5zM242 1397q0 -33 10 -54.5t29 -21.5q12 0 24 15.5t12 33.5q0 20 -14 36.5t-35 16.5q-10 0 -17 -6t-9 -20z" />
<glyph unicode="j" horiz-adv-x="501" d="M-158 -492q0 68 42 109t100 41q29 0 59.5 -18.5t30.5 -59.5q0 -29 -17.5 -48t-44.5 -19q-23 0 -31 18t-8 37q-4 2 -14 2t-27.5 -14.5t-17.5 -55.5q0 -47 29.5 -72.5t56.5 -25.5q53 0 91 36t62.5 96t38 141t19.5 169t7 180.5t1 176.5q0 115 -1 227.5t-1 218.5q0 84 2 168 t10.5 150.5t25.5 107.5t48 41q29 0 47.5 -22.5t18.5 -44.5q0 -18 -12.5 -36t-41.5 -28q-2 -43 -3 -102.5t-1 -124.5q0 -111 8.5 -221.5t19.5 -221t19.5 -221t8.5 -221.5q0 -94 -11.5 -196.5t-45.5 -186.5t-97 -139.5t-168 -55.5q-84 0 -143.5 58.5t-59.5 156.5zM121 1354 q0 39 23.5 73t52.5 46q4 41 37.5 65.5t76.5 24.5q41 0 68 -17.5t43 -41t23.5 -49t7.5 -44.5q0 -68 -58.5 -111t-144.5 -43q-49 0 -89 21.5t-40 75.5zM184 1354q0 -29 19.5 -37t48.5 -8q16 0 35.5 2t36 7t27.5 13t11 19q0 14 -17 21t-41.5 12.5t-50.5 11.5t-40 18 q-29 -33 -29 -59z" />
<glyph unicode="k" horiz-adv-x="1009" d="M94 2134q0 35 25.5 62.5t66.5 27.5q47 0 73 -25.5t38 -63.5t15 -81t3 -76q0 -106 -16 -229t-35.5 -262t-37 -293t-19.5 -322q57 63 118.5 115.5t126 101t132 94.5t137.5 95q-23 4 -40 21.5t-17 41.5q0 39 27.5 53.5t62.5 14.5q57 0 81.5 -25.5t24.5 -60.5 q0 -59 -44 -111.5t-111.5 -98.5t-148.5 -89t-157 -82q100 -57 163 -150.5t124 -238.5q43 -104 75 -180t57.5 -125t49 -72.5t52.5 -23.5q18 0 27 5t16 15q-12 14 -13 33q0 23 18.5 40t41.5 17q49 0 49 -49q0 -37 -36 -78t-116 -41q-86 0 -144 50.5t-100 129t-75 175 t-67 187.5t-72.5 167t-94.5 115q-47 -25 -85 -49.5t-62 -47.5q0 -141 15.5 -286.5t53.5 -290.5q6 -23 7 -43q0 -31 -15.5 -49.5t-42.5 -18.5q-16 0 -33.5 8.5t-31.5 32.5q-12 23 -19.5 48.5t-10.5 62.5t-4 86t-1 121q0 197 12.5 414.5t26.5 426.5t26.5 395.5t12.5 319.5 q-43 0 -76 22.5t-33 63.5zM731 1337q0 -16 29 -28q18 10 18 26q0 4 -5 11.5t-19 7.5q-23 0 -23 -17z" />
<glyph unicode="l" horiz-adv-x="499" d="M25 2064q0 53 24.5 97.5t81.5 44.5q53 0 83 -41t45 -96.5t18.5 -113t3.5 -89.5q0 -63 -4.5 -155.5t-10.5 -204t-13 -233.5t-13.5 -243t-10.5 -233.5t-4 -204.5q0 -88 5.5 -146.5t14.5 -94.5t22.5 -50t31.5 -14q27 0 53.5 22.5t55.5 73.5q18 31 25 42t16 11q12 0 15 -14 t3 -29q0 -45 -13.5 -91t-37 -84t-54 -62.5t-63.5 -24.5q-57 0 -91 56.5t-50.5 142.5t-21.5 185t-5 185q0 281 12.5 558.5t12.5 574.5q0 41 -1.5 86t-7.5 86q-14 -14 -29.5 -24.5t-31.5 -10.5q-37 0 -49 33t-12 61z" />
<glyph unicode="m" horiz-adv-x="1583" d="M82 1288q0 39 20.5 78t67.5 39q31 0 55.5 -17.5t43 -47t30.5 -67.5t18 -79q55 66 100.5 99.5t104.5 33.5q74 0 122 -46t79 -115.5t46 -148.5t22 -143q29 53 75.5 119t104 122t124 95t134.5 39q61 0 96 -33.5t50.5 -86t18.5 -115t3 -121.5q0 -80 -3 -168t-3 -174 q0 -47 1 -101.5t5 -102.5t13 -86t28 -54q14 8 30.5 14t32.5 6q29 0 41 -22.5t12 -42.5q0 -43 -38.5 -75t-83.5 -32q-53 0 -86 27t-51.5 67.5t-24.5 90t-6 94.5q0 70 5 163t12 191t12 192.5t5 163.5q0 45 -8 74t-20.5 44.5t-26.5 20.5t-29 5q-55 0 -113.5 -38t-114.5 -99.5 t-105.5 -136t-83.5 -148.5q2 -57 3 -122.5t2 -130t2 -123t1 -99.5q0 -27 -2 -64t-12.5 -69.5t-30 -55t-53.5 -22.5q-31 0 -48.5 28.5t-17.5 94.5q0 49 5 109.5t14.5 125t18.5 127t19 113.5q-6 164 -20 277.5t-39 184t-56.5 101.5t-70.5 31q-43 0 -84 -34t-102 -112 q2 -16 3 -32.5t1 -32.5q0 -109 -10.5 -234t-23.5 -246.5t-23.5 -227t-10.5 -173.5q0 -53 -9 -86t-44 -33q-27 0 -44.5 14.5t-28.5 39t-15 54.5t-4 60q0 63 15 170t32.5 229t33 245.5t15.5 222.5q0 59 -2 91.5t-10 57.5q-35 -20 -62 -20t-42 18.5t-15 44.5zM156 1290 q2 -16 13.5 -19t23.5 -3q-8 29 -13.5 37t-9.5 8q-6 0 -10 -7.5t-4 -15.5z" />
<glyph unicode="n" horiz-adv-x="1134" d="M27 1300q0 29 23.5 53.5t58.5 24.5q33 0 55 -26.5t37 -61.5t24 -71t13 -56q14 -70 24 -146.5t14 -144.5q31 66 75 149t100.5 156.5t128 125t161.5 51.5q76 0 119 -35t65.5 -89t29 -122t6.5 -131q0 -131 -13.5 -272.5t-13.5 -276.5q0 -109 14.5 -184.5t44.5 -89.5 q23 23 41.5 36t52.5 13q20 0 41 -11.5t21 -39.5q0 -20 -10.5 -38t-26.5 -30t-35.5 -19.5t-38.5 -7.5q-66 0 -100.5 34t-51 86t-19.5 113.5t-3 115.5v172.5t-3 139t-8 116t-13 102.5q-14 78 -35 129t-45.5 82t-52 43t-56.5 12q-35 0 -68.5 -21.5t-68.5 -56.5 q-45 -53 -82 -118.5t-64.5 -133t-47 -129t-27.5 -106.5q0 -18 3 -47t5 -66t4 -77.5t2 -81.5q0 -102 -16.5 -158.5t-69.5 -56.5q-43 0 -57 50t-14 136q0 43 3 87t7 84t8 72.5t8 51.5q0 78 -3 171t-10 182t-19.5 164t-30.5 116q-12 -23 -35 -23q-16 0 -33.5 16.5t-17.5 42.5z M682 1239q47 -8 82 -36.5t59.5 -74t41 -102.5t26.5 -121q0 63 -4 124t-20.5 109t-49.5 77.5t-92 29.5q-23 0 -43 -6z" />
<glyph unicode="o" d="M72 678q0 92 33.5 188.5t95 176t147.5 130t191 50.5q100 0 179 -57.5t132 -143.5t80.5 -186.5t27.5 -186.5q0 -90 -24.5 -172t-71.5 -143.5t-115.5 -98t-158.5 -36.5q-100 0 -193.5 37.5t-165 102t-114.5 153t-43 186.5zM156 756q0 -78 30.5 -157t86 -142.5t133 -103.5 t172.5 -40q74 0 127 27t85.5 73t48 107.5t15.5 132.5q0 70 -10 158t-43 166t-95.5 130t-166.5 52q-55 0 -90 -20.5t-55.5 -52t-29 -72.5t-8.5 -80q0 -35 7.5 -77t23.5 -79t41 -61.5t61 -24.5q29 0 53.5 11.5t37.5 23.5q-41 16 -78 37.5t-37 69.5q0 27 21.5 48t70.5 21 q63 0 98 -27.5t35 -80.5q0 -35 -14 -68t-39 -57.5t-56.5 -39t-64.5 -14.5q-55 0 -98 34t-73 86t-46 112.5t-16 121.5q0 71 30 130q-78 -74 -117.5 -162t-39.5 -182z" />
<glyph unicode="p" horiz-adv-x="1064" d="M66 1260q0 23 7 47t19 44.5t31.5 34t44.5 13.5q31 0 53.5 -31t35.5 -82t20.5 -114.5t11.5 -131.5q39 35 88 74t104.5 72t115.5 54.5t122 21.5q80 0 130 -37t78.5 -94.5t40 -130t11.5 -142.5q0 -117 -33 -221.5t-91 -183t-137 -123.5t-173 -45q-74 0 -138.5 27.5 t-123.5 74.5q-6 -197 -7 -416q0 -111 3.5 -220t9.5 -214q39 -10 54 -30.5t15 -49.5q0 -27 -12 -47t-30.5 -34.5t-41 -21.5t-43.5 -7q-59 0 -73.5 33.5t-14.5 105.5q0 133 8.5 292t18.5 327.5t18.5 342t8.5 332.5q0 111 -8.5 222.5t-28.5 187.5q-10 -12 -20.5 -15.5 t-20.5 -3.5q-27 0 -40 28t-13 61zM285 442q49 -39 104 -56t109 -17q94 0 159.5 42t110.5 107q53 104 53 236q0 174 -63.5 269t-192.5 95q-35 0 -74.5 -10t-80.5 -27q-33 -23 -60.5 -44t-56.5 -42q2 -35 2 -70.5v-66.5q0 -78 -3 -183.5t-7 -232.5zM528 1153q16 2 31.5 3 t32.5 1q68 0 118 -26.5t83.5 -71.5t52 -102.5t22.5 -120.5q2 16 3 32.5t1 32.5q0 49 -7 101.5t-27.5 95.5t-56.5 69.5t-91 26.5q-41 0 -82 -11.5t-80 -29.5z" />
<glyph unicode="q" d="M92 664q0 100 25.5 205.5t79 191.5t135.5 140t194 54q68 0 131.5 -19t128.5 -48q4 41 8.5 80t8.5 75q8 74 55 74q23 0 32 -13.5t9 -29.5t-11 -23.5t-22 -9.5q2 -57 3 -170.5t2 -256t1 -300v-301.5q0 -111 -3 -203t-3 -200q0 -92 2 -174t9.5 -142.5t20.5 -96.5t36 -36 q8 0 22.5 6.5t24.5 6.5t10 -15q0 -16 -28.5 -41.5t-83.5 -27.5q-47 0 -75 62.5t-42 160.5t-18.5 216t-4.5 226q0 203 6 410q-86 -78 -185 -133.5t-206 -55.5q-78 0 -129 35t-80.5 90.5t-41 124t-11.5 138.5zM170 725q0 -57 7 -119.5t29.5 -114t65.5 -85t115 -33.5 q-53 16 -88 67.5t-57.5 117t-31.5 137t-9 130.5q0 35 3 69t11 69q-23 -55 -34 -117t-11 -121zM242 821q0 -59 9 -131t32.5 -135t62.5 -106t98 -43q29 0 67 9t71 25q43 23 85 49.5t81 55.5q6 166 15 320.5t21 289.5q-66 14 -127 26.5t-120 12.5q-115 0 -195 -61 q-53 -43 -76.5 -116t-23.5 -196z" />
<glyph unicode="r" horiz-adv-x="892" d="M35 940q0 45 29.5 70.5t70.5 25.5q29 0 54.5 -13t48 -32.5t40 -42t31.5 -41.5q14 45 46 115t78 134.5t107.5 110.5t137.5 46q70 0 116 -43t46 -113q0 -23 -8.5 -49.5t-24.5 -49t-40 -37.5t-54 -15q-39 0 -67 24.5t-28 59.5q0 33 19.5 52t52.5 32q-8 12 -33 12 q-39 0 -79.5 -26.5t-78.5 -76t-72 -118t-58 -152.5q16 -51 33.5 -109.5t30.5 -119t21.5 -121t8.5 -111.5q0 -33 -3 -66.5t-13.5 -61t-28 -46t-45.5 -18.5q-43 0 -68.5 36.5t-39 87t-16.5 101.5t-3 80q0 57 6 122.5t22 135.5q-18 39 -38.5 74.5t-49.5 66.5q-25 -25 -57 -24 q-47 0 -70.5 32.5t-23.5 67.5zM313 481q0 -25 3 -68.5t9.5 -87.5t16.5 -76t27 -32q8 0 13 11.5t5 56.5q0 94 -21 183t-44 150q-4 -33 -6.5 -67.5t-2.5 -69.5zM682 1083q0 -24 21 -24h2q18 0 28 15.5t10 31.5q-16 6 -26 6q-16 0 -25.5 -9t-9.5 -20z" />
<glyph unicode="s" horiz-adv-x="841" d="M88 381q0 39 10.5 75t33 64.5t57 46t83.5 17.5q68 0 113 -43t45 -103q0 -35 -18.5 -64.5t-59.5 -29.5q-35 0 -50 22.5t-15 41.5q0 14 5 26t27 12q10 0 33 -6q-2 23 -12 38.5t-25.5 24.5t-31 13t-27.5 4q-49 0 -69.5 -40t-20.5 -85q0 -53 20.5 -96t53 -72.5t72.5 -46 t81 -16.5q45 0 83 18.5t66.5 50t45 72.5t16.5 88q0 74 -34.5 131.5t-89 106.5t-121 95t-130.5 97q-51 41 -91 95.5t-40 125.5q0 55 37 106.5t92.5 90.5t118 61.5t115.5 22.5q37 0 74.5 -15.5t67.5 -40t48.5 -58t18.5 -70.5q0 -33 -12.5 -56.5t-32 -39t-43 -23.5t-45.5 -8 q-47 0 -74 29.5t-27 70.5t28 74t62 43q-16 20 -33.5 30.5t-52.5 10.5q-33 0 -75.5 -17.5t-81.5 -44t-67 -56.5t-28 -56q0 -41 62.5 -88t195.5 -131q74 -47 132.5 -93.5t98.5 -97.5t61.5 -110.5t21.5 -135.5q0 -80 -26.5 -150.5t-75 -124.5t-117 -85t-152.5 -31 q-59 0 -113.5 26.5t-95.5 72t-66.5 105.5t-25.5 126zM131 1010q18 -68 80.5 -121t139.5 -106.5t150.5 -114t110.5 -142.5q-12 57 -46 105.5t-80 91.5t-99 80t-102 71.5t-90 67.5t-64 68zM504 1118q6 -26 31 -26h2q16 0 27 10t11 28q0 9 -4 25q-16 -23 -31.5 -28t-35.5 -9z " />
<glyph unicode="t" horiz-adv-x="819" d="M47 1204q0 18 21.5 29.5t51.5 17.5t59.5 8.5t45.5 2.5h47q2 31 3 61.5t1 60.5q0 51 -6 118t-16 106q-27 10 -27 41q0 29 32 49t58 20q35 0 44.5 -30.5t9.5 -65.5q0 -92 -5.5 -181t-15.5 -181q33 -2 64.5 -2.5t62.5 -0.5q33 0 67 2.5t66 6.5q4 18 18.5 30.5t35.5 12.5 q20 0 32.5 -13.5t12.5 -35.5q0 -43 -35 -72t-107 -29q-59 0 -109 8.5t-116 16.5q-12 -117 -26.5 -236t-14.5 -235q0 -129 23.5 -217t58.5 -141.5t78 -76t82 -22.5q74 0 112.5 43t38.5 113q0 35 -9 70.5t-32 68.5q-23 -23 -50.5 -36t-53.5 -13q-43 0 -63.5 29.5t-20.5 70.5 q0 59 43 99t100 40q51 0 85 -28.5t54.5 -68.5t27.5 -85t7 -78q0 -68 -22.5 -137.5t-64.5 -126.5t-101 -94t-135 -37q-78 0 -128 33t-79 85t-41 118.5t-12 134.5q0 70 8 155.5t19.5 181t22.5 196t19 200.5q-16 2 -30.5 2h-30.5q-49 0 -81 -7t-52 -7q-27 0 -27 26zM287 481 q0 -80 18.5 -137t49 -94t69.5 -54.5t78 -17.5q41 0 75.5 18.5t61.5 51.5q-43 -31 -96 -31q-96 0 -163 74t-93 221v-31z" />
<glyph unicode="u" horiz-adv-x="1112" d="M31 1180q0 39 34.5 72.5t88.5 33.5q41 0 67.5 -16.5t43 -42t23.5 -59t7 -68.5q0 -43 -8 -120t-19.5 -164t-19.5 -172t-8 -146q0 -143 39.5 -204t91.5 -61q47 0 95 41t91 99.5t77 124t54 112.5q-6 68 -10 141.5t-4 174.5q0 143 18.5 219t69.5 76q27 0 43 -15.5t26.5 -40 t14.5 -54.5t4 -60q0 -111 -20.5 -230t-57.5 -231q27 -145 67 -226t81 -81q20 0 36.5 21.5t28.5 46t24.5 46t24.5 21.5q16 0 26.5 -24.5t10.5 -61.5q0 -33 -11 -70t-32.5 -68.5t-53.5 -52t-73 -20.5q-39 0 -68.5 24.5t-53 66.5t-41 100.5t-29.5 125.5q-25 -47 -59 -100 t-76 -97t-91 -74t-100 -30q-37 0 -79 24.5t-75.5 75t-56 126t-22.5 180.5q0 82 8 173t17 174t17.5 147.5t8.5 95.5q-27 -41 -82 -41q-41 0 -64.5 29.5t-23.5 58.5zM737 1036q0 -70 2 -133t9 -123q8 37 14 79t10 81t6 73t2 56q0 53 -7 73.5t-13 20.5t-13.5 -25.5t-9.5 -101.5 z" />
<glyph unicode="v" horiz-adv-x="1067" d="M-2 1044q0 35 15.5 67t40 55.5t56 38t64.5 14.5q98 0 171 -77t125 -199t86 -275.5t58 -307.5q43 82 88.5 179.5t84 187.5t68.5 166t42 115q-45 20 -68.5 67t-23.5 101q0 20 5 47.5t17.5 50t32 39t47.5 16.5q29 0 45.5 -18.5t25.5 -43t11 -48t2 -31.5q0 -39 -8 -81 t-18 -83q18 -6 39 -6q29 0 56 10t42 21q8 6 14 6q12 0 12 -15q0 -16 -34 -32q-23 -10 -49.5 -14.5t-49.5 -4.5h-20t-21 2q-39 -121 -86 -247t-91 -239.5t-78.5 -204.5t-47.5 -140q-27 -100 -73 -101q-27 0 -44.5 32t-17.5 104q0 59 -8 142t-25.5 174t-42 183t-58.5 173 t-76 142.5t-93 90.5q0 -57 -30.5 -106.5t-92.5 -49.5q-41 0 -66.5 30t-25.5 70zM74 1030q2 -24 33 -24h2q45 2 57 36.5t16 69.5q-4 0 -9 1t-9 1q-37 0 -63.5 -21.5t-26.5 -62.5zM846 1176q0 -47 15 -85.5t50 -52.5q10 35 21.5 86.5t11.5 94.5q0 39 -10 57t-23 18 q-29 0 -47 -37.5t-18 -80.5z" />
<glyph unicode="w" horiz-adv-x="1476" d="M37 1116q0 41 27.5 77t89.5 36q51 0 94 -39t71 -84q59 -98 95.5 -215t57 -240t32.5 -246.5t24 -236.5q66 82 122.5 192.5t97.5 227.5q-20 90 -34 175t-14 175q0 53 4.5 102.5t13.5 87t22.5 60t29.5 22.5q27 0 43 -41t24.5 -90t10.5 -91t2 -44q0 -80 -12.5 -159.5 t-24.5 -141.5q31 -109 62.5 -198t66.5 -177q35 88 90 200t108.5 232.5t92.5 248.5t39 251q-14 -27 -36 -36t-46 -9q-43 0 -73 29.5t-30 77.5q0 31 12.5 59.5t34 51t50 35.5t59.5 13q78 0 114 -69.5t36 -180.5q0 -86 -28 -181t-69 -192.5t-90 -191.5t-94 -178t-78 -151.5 t-41 -112.5q4 -10 5 -18.5t1 -24.5q0 -29 -15 -48.5t-34 -19.5q-23 0 -33 20.5t-10 49.5v14t2 17q-12 35 -31.5 81t-39 95t-37 99t-29.5 93q-25 -66 -56.5 -144.5t-67.5 -148t-73.5 -116.5t-74.5 -47q-39 0 -53.5 34.5t-24.5 106.5q-23 158 -54.5 326.5t-66.5 304.5 q-25 94 -43 153.5t-33.5 91t-30 43t-30.5 11.5q-10 0 -14 -17q10 -4 18 -19.5t8 -31.5q0 -25 -18.5 -38t-40.5 -13q-29 0 -54.5 26.5t-25.5 71.5zM246 1128q20 -27 41.5 -83t45 -130.5t45 -162.5t43 -178.5t39.5 -176t32 -157.5q-41 369 -102.5 596t-143.5 292zM758 993 q0 -149 33 -288q10 55 16 111t6 114q0 33 -3 71.5t-9 72.5t-13.5 55.5t-13.5 21.5q-10 0 -13 -49t-3 -109zM1188 1272q0 -14 5 -24.5t15 -10.5q12 0 27 10.5t27 20.5q-6 20 -14.5 32.5t-24.5 12.5q-10 0 -22.5 -9.5t-12.5 -31.5z" />
<glyph unicode="x" horiz-adv-x="1128" d="M27 1001q0 49 23.5 93.5t60 77t82 52t88.5 19.5q47 0 82.5 -17.5t62.5 -45t45 -62.5t35 -67q20 -45 39.5 -94.5t40.5 -102.5q20 63 46.5 140t62.5 144.5t82 112.5t108 45q57 0 97 -30.5t40 -77.5q0 -37 -17.5 -58.5t-39 -33t-40 -14.5t-22.5 -3q-33 0 -56.5 11.5 t-39.5 27.5q-59 -57 -103.5 -149t-85.5 -201q37 -98 73 -193.5t73 -171t75 -121.5t76 -46q49 0 70 38.5t21 92.5q-31 0 -52.5 11t-21.5 46q0 45 26.5 81t69.5 36q27 0 45.5 -17.5t30.5 -42t18 -53.5t6 -51q0 -51 -13 -100.5t-37.5 -88t-62.5 -62.5t-87 -24q-68 0 -119 42 t-93 115t-77 169t-70 207q-33 -88 -66.5 -171t-74.5 -146.5t-90 -101.5t-111 -38q-41 0 -70.5 23.5t-29.5 60.5q0 41 27.5 72t64.5 31q23 0 38 -11.5t17 -34.5q0 -16 -6 -29.5t-10 -23.5q45 18 86 65.5t76 111t65.5 137t57.5 145.5q-23 78 -49.5 155.5t-55.5 155.5 q-29 72 -67.5 118t-91.5 46q-37 0 -70 -14.5t-56.5 -39t-38 -55t-14.5 -63.5q0 -63 52 -63q10 0 14 2q-2 6 -2 20q0 35 22.5 55.5t55.5 20.5q35 0 61.5 -21.5t26.5 -54.5q0 -37 -16.5 -63.5t-41 -44t-52 -25.5t-48.5 -8q-68 0 -106.5 46t-38.5 109zM846 1161q12 -12 28 -12 q6 0 13.5 4t7.5 14q0 15 -14 15q-10 0 -19.5 -6.5t-15.5 -14.5z" />
<glyph unicode="y" horiz-adv-x="948" d="M37 1188q0 31 37 48t73 17q66 0 108 -38.5t42 -131.5q0 -55 -12.5 -126.5t-26.5 -147.5t-26.5 -150.5t-12.5 -136.5q0 -98 39 -98q37 0 89 36t109.5 107.5t116 181t105.5 257.5q-4 63 -7 112t-3 96q0 92 15 145.5t50 53.5q41 0 56.5 -47t15.5 -102q0 -33 -4 -66 t-9.5 -62.5t-11.5 -52t-10 -34.5q8 -98 28.5 -217t40 -245t35 -254t15.5 -249q0 -104 -20.5 -222t-67.5 -217.5t-122 -166t-185 -66.5q-66 0 -114 25.5t-80 66.5t-48 92.5t-16 102.5t15 104.5t47 94.5t79 67.5t112 26.5q66 0 104 -36t38 -95q0 -43 -29 -82t-78 -39 q-43 0 -67.5 29.5t-24.5 66.5q-25 -23 -38 -61.5t-13 -81.5q0 -33 7 -68t24.5 -63.5t44 -47t63.5 -18.5q61 0 105.5 35t72 88t43 118.5t23.5 128t9 115t1 76.5q0 96 -9 199.5t-22.5 207t-28 205t-24.5 193.5q-35 -86 -82 -180t-107.5 -172t-130 -128t-147.5 -50 q-66 0 -94.5 57t-28.5 137q0 82 12.5 176.5t28 179.5t28.5 148.5t13 85.5q0 43 -18 55q-10 -18 -27.5 -27t-34.5 -9q-29 0 -47 14t-18 39zM492 -135q0 -23 11 -42.5t27 -19.5q10 0 17.5 6.5t7.5 20.5q0 20 -13.5 29.5t-27.5 9.5q-16 0 -22 -4z" />
<glyph unicode="z" horiz-adv-x="1087" d="M76 295q0 29 23.5 41t50.5 12q12 0 28 -4q23 14 56.5 46t70.5 75t76 91t74 95q-12 4 -23.5 7.5t-21.5 7.5q-86 23 -136.5 26.5t-50.5 24.5q0 23 30 35t62 12q51 0 100.5 -10.5t96.5 -22.5q70 98 127 189.5t135 193.5q-10 -2 -15 -2h-7q-82 0 -149.5 7t-123 16.5 t-96.5 16.5t-68 7q0 -104 -84 -104q-33 0 -59.5 25.5t-26.5 72.5q0 45 34 79t85 34q57 0 113.5 -13.5t114 -30t117 -29.5t120.5 -13q25 0 61.5 6t59.5 18q20 23 42.5 37t45.5 14t31 -12t8 -24q0 -18 -12.5 -34t-32 -27t-43 -19.5t-45.5 -14.5q-59 -96 -112.5 -203.5 t-106.5 -218.5q20 -4 40.5 -6t43.5 -2q33 0 50 9.5t34 9.5q10 0 16 -11.5t6 -21.5q0 -25 -11 -40t-28.5 -24.5t-38 -12.5t-39.5 -3q-29 0 -58.5 4t-59.5 10q-47 -90 -96.5 -171t-106.5 -144q57 -10 115.5 -26.5t115 -31t110.5 -24.5t105 -10q63 0 103.5 27.5t40.5 68.5 q0 8 -2 17.5t-9 17.5q-20 -20 -38 -21q-18 0 -26.5 13.5t-8.5 27.5q0 20 17.5 37t39.5 17q29 0 52.5 -25t23.5 -78q0 -49 -22.5 -91t-58.5 -70.5t-83 -45t-96 -16.5q-59 0 -113.5 17.5t-108 42t-104.5 53t-102 53.5q-31 -12 -63 -20.5t-64 -8.5q-16 0 -38 3t-41.5 11.5 t-32.5 21.5t-13 36z" />
<glyph unicode="{" horiz-adv-x="819" d="M68 1124q0 33 19 58.5t54 25.5q43 0 81 -29.5t67 -58.5q47 8 82 34t35 77q0 78 -34 152.5t-76 147.5t-76 145.5t-34 148.5q0 80 44 140t126 60q35 0 75 -13t75 -37.5t57.5 -57.5t22.5 -72q0 -35 -34 -55.5t-69 -20.5q-23 0 -43 10.5t-20 35.5q0 29 22.5 44t42.5 29 q-59 72 -143 72q-23 0 -40 -13.5t-28.5 -31t-16.5 -36.5t-5 -32q0 -61 47 -139t104.5 -162t104.5 -171t47 -165q0 -80 -55.5 -131t-124.5 -67q41 -53 79 -112.5t38 -131.5q0 -68 -26 -135.5t-55.5 -137t-55 -143t-25.5 -153.5q0 -55 15 -108.5t50 -96.5t91.5 -69.5 t136.5 -26.5q33 0 56 19.5t23 53.5q0 14 -2 23q-10 -23 -24 -34t-31 -11q-20 0 -29.5 18.5t-9.5 42.5q0 35 21.5 68t62.5 33q33 0 53.5 -19.5t32.5 -48.5t17.5 -59.5t5.5 -51.5q0 -45 -16.5 -86t-47 -71.5t-71.5 -48t-91 -17.5q-86 0 -163.5 32t-136 88t-93.5 131t-35 161 q0 100 37 195.5t81 182.5t81 163.5t37 138.5q0 45 -21.5 93t-68.5 107q-12 -2 -25.5 -2h-25.5q-29 0 -58.5 7.5t-55.5 22.5t-42 39t-16 56zM141 1122q0 -20 35 -20q4 0 7 1t7 1q-8 10 -19 21.5t-19 11.5q-10 0 -11 -15zM477 1827q4 -2 15 -2q10 0 17 3t7 13q0 4 -6 14z" />
<glyph unicode="|" horiz-adv-x="438" d="M164 936q0 211 4 421t14 419q-16 4 -16 28q0 8 1 20.5t5 25t10.5 21.5t16.5 9q14 0 17 -24.5t3 -34.5q14 -442 29.5 -879.5t36.5 -878.5q12 -6 12 -34q0 -20 -15.5 -51t-50.5 -31q-29 0 -35 30.5t-10 77.5q-6 94 -10 203t-7 222.5t-4 229t-1 226.5z" />
<glyph unicode="}" horiz-adv-x="913" d="M8 -121q0 31 17.5 56.5t50.5 25.5q23 0 41 -15.5t18 -41.5q0 -14 -6 -30.5t-16 -25.5q16 -47 51 -62t69 -15q45 0 77 21.5t52.5 56t28.5 79.5t8 92q0 63 -7 120t-15 109t-15.5 103t-7.5 103q0 45 6.5 93t24.5 97t52 99.5t89 97.5q-74 86 -112.5 179t-38.5 210 q0 63 9 126.5t19.5 128t19.5 128t9 127.5q0 33 -4 72.5t-18.5 73.5t-43 56.5t-75.5 22.5q-29 0 -43.5 -11t-14.5 -28q0 -25 19 -41q8 20 27 21q16 0 23 -13.5t7 -27.5q0 -29 -18.5 -44.5t-42.5 -15.5q-43 0 -70.5 36t-27.5 83q0 59 43 95t96 36q68 0 111.5 -25.5t70.5 -68.5 t37 -99.5t10 -115.5q0 -113 -19.5 -226.5t-19.5 -228.5q0 -129 44 -212t126 -144q23 14 64 34.5t82 20.5q37 0 66.5 -19.5t29.5 -66.5q-6 -76 -60.5 -112.5t-119.5 -36.5q-63 0 -113 28q-55 -59 -76.5 -124.5t-21.5 -145.5q0 -59 13 -127t28.5 -136.5t29 -136t13.5 -124.5 q0 -63 -22.5 -117.5t-64.5 -94.5t-99.5 -63.5t-125.5 -23.5q-35 0 -80 13t-85.5 38t-69.5 59.5t-29 77.5zM711 897q31 -20 61 -20q18 0 33.5 10t15.5 33q0 16 -28 16q-16 0 -37.5 -8t-44.5 -31z" />
<glyph unicode="~" horiz-adv-x="1449" d="M76 612q0 47 22 82q29 47 92.5 84t141.5 37q109 0 210 -46t198.5 -100.5t193.5 -100.5t199 -46q35 0 69.5 6.5t59.5 34.5q23 33 22 76q0 35 -12 62.5t-35 52.5q-8 -33 -40 -55.5t-64 -22.5q-39 0 -69 21.5t-30 58.5q0 53 42 87t95 34q45 0 80 -24t59.5 -58.5t37 -78.5 t12.5 -83q0 -61 -28.5 -103.5t-73 -68t-99.5 -37.5t-106 -12q-104 0 -200.5 26.5t-189 66.5t-183.5 85t-183 80q-39 16 -78 16q-33 0 -55.5 -16.5t-22.5 -53.5q0 -16 8.5 -34.5t20.5 -35t27.5 -26.5t31.5 -10t23.5 12.5t7.5 24.5q-10 -10 -27 -10q-16 0 -32.5 12t-16.5 31 q0 23 18.5 39t41.5 16q31 0 44 -32t13 -60q0 -35 -17.5 -60.5t-58.5 -25.5q-29 0 -56.5 14t-48 36.5t-32.5 50.5t-12 54zM215 750h10q49 0 107.5 -18.5t120 -45.5t123 -56.5t120.5 -51.5q61 -25 135 -49.5t150 -34.5q-84 31 -162 77.5t-156.5 91t-158.5 77t-168 32.5 q-66 0 -121 -22z" />
<glyph unicode="&#xa1;" horiz-adv-x="401" d="M102 1673q0 27 14.5 46.5t35.5 19.5q8 0 18 -2q23 8 44.5 16t43.5 8q41 0 66.5 -26.5t25.5 -65.5q0 -43 -32.5 -66.5t-77.5 -23.5q-18 0 -42 5t-45.5 16.5t-36 30t-14.5 42.5zM160 588q0 104 2 210.5t5 207t7 191.5t10 167q2 25 9.5 36t17.5 11q25 0 29 -45 q4 -123 9 -239.5t12 -234.5t17.5 -237.5t22.5 -246.5q4 -37 11 -87.5t17.5 -102.5t24 -101t27.5 -86q16 -43 33.5 -72t17.5 -55q0 -23 -17.5 -33t-39.5 -10q-55 0 -96 65.5t-68 170t-39 234.5t-12 257z" />
<glyph unicode="&#xa2;" horiz-adv-x="1107" d="M88 868q0 90 29.5 168t84 138.5t131.5 102.5t173 60q-4 86 -7 157t-3 120q0 61 20.5 96t36.5 35q12 0 18.5 -15.5t8.5 -33.5q4 -84 10 -171t12 -175q12 2 24.5 2h26.5q45 0 87 -6.5t76 -20.5t54.5 -38.5t20.5 -61.5q0 -18 -5 -39t-17.5 -38.5t-31 -28.5t-44.5 -11 q-41 0 -69 25.5t-28 54.5q0 14 11.5 26.5t42.5 12.5q16 0 31.5 -4t29.5 -9q-4 20 -22.5 34t-43 21t-54 10t-58.5 3h-29q8 -123 12.5 -233.5t4.5 -200.5v-159t-3 -138q14 -4 26.5 -5t27.5 -3h12q47 0 102.5 5t102.5 16t78.5 30.5t31.5 48.5q0 12 -1 18.5t-1 10.5t2 8t11 4 q18 0 31.5 -20.5t13.5 -38.5q0 -43 -42 -79t-105.5 -61.5t-135.5 -40t-133 -14.5h-21v-47q0 -90 3.5 -147.5t7.5 -91t7 -50t3 -26.5q0 -33 -21 -33q-14 0 -30.5 25.5t-28.5 82.5q-10 47 -15 123t-7 172q-94 14 -176 52t-142.5 95.5t-95.5 129t-35 153.5zM227 918 q0 -104 54.5 -197.5t177.5 -140.5q-92 61 -142.5 165.5t-50.5 217.5q0 111 43 188q-43 -49 -62.5 -109.5t-19.5 -123.5zM301 975q0 -135 62.5 -238.5t168.5 -154.5v97t-2 99q-4 121 -9 248t-11 244q-39 -10 -70.5 -25t-60.5 -31q-33 -37 -55.5 -99t-22.5 -140zM758 1188 q2 -10 13 -20.5t24 -10.5q8 0 11 10.5t3 14.5q-8 4 -22.5 5t-28.5 1z" />
<glyph unicode="&#xa3;" horiz-adv-x="1257" d="M39 287q0 14 21.5 34.5t72.5 20.5q16 0 36.5 -2t43.5 -2q74 18 117 61t65.5 98.5t29.5 118t7 121.5v37t-2 39q-59 4 -83.5 9t-24.5 16q0 8 8 14t20 9t24.5 5t20.5 2h33q-8 111 -18.5 223.5t-10.5 215.5q0 68 16.5 145.5t55.5 145t103.5 112.5t160.5 45q78 0 146.5 -41 t120 -102.5t81 -135t29.5 -139.5q0 -39 -10 -75.5t-31.5 -66.5t-54.5 -47.5t-80 -17.5q-59 0 -110.5 25t-89.5 63.5t-59.5 88t-21.5 100.5q0 61 39 111.5t109 50.5q41 0 69.5 -33t28.5 -94q0 -39 -21.5 -75t-66.5 -36q-39 0 -74 23q8 -25 27.5 -51.5t45.5 -47t57.5 -34 t62.5 -13.5q53 0 74.5 34t21.5 91t-23.5 118.5t-65.5 113t-99.5 85t-124.5 33.5q-59 0 -99.5 -26.5t-65 -68.5t-34.5 -91t-10 -94q0 -106 22.5 -247.5t38.5 -283.5h39h150.5t96.5 -3t51.5 -9t15.5 -18q0 -43 -140 -43q-41 0 -95 3t-112 5q2 -27 3.5 -52.5t1.5 -49.5 q0 -123 -34 -218.5t-134 -164.5q70 -10 132 -26.5t119.5 -33t108.5 -29t98 -12.5q104 0 173 55.5t69 153.5q0 29 -6 59.5t-18.5 56t-31 42t-42.5 16.5q-14 0 -27 -6q10 -10 13 -20.5t3 -18.5q0 -20 -15 -30.5t-32 -10.5q-35 0 -52 21.5t-17 44.5q0 45 43 67.5t86 22.5 q49 0 84 -29t56.5 -71t30.5 -91t9 -92q0 -61 -20.5 -117.5t-59.5 -100.5t-95 -69.5t-130 -25.5q-84 0 -158 27.5t-146.5 60.5t-147.5 60.5t-158 27.5q-74 -29 -138 -29q-41 0 -71.5 16.5t-30.5 45.5zM748 1434q2 -10 15 -23.5t30 -13.5q10 0 18 16.5t8 32.5q0 27 -8 35 t-20 8q-33 -8 -43 -55z" />
<glyph unicode="&#xa4;" horiz-adv-x="1327" d="M94 213q0 23 14.5 48.5t47.5 25.5q20 0 33.5 -15.5t13.5 -33.5q0 -14 -6 -23q27 12 58.5 36.5t64 57.5t65.5 71t61 77q-59 29 -91.5 78t-32.5 118q2 72 37.5 148t101.5 135q-23 59 -44.5 118.5t-47 106.5t-55 77t-64.5 30q-45 0 -60.5 -24.5t-15.5 -53.5q0 -16 3 -30.5 t7 -22.5q8 10 19.5 21t25.5 11q23 0 35 -17t12 -40q0 -29 -17 -49.5t-44 -20.5q-10 0 -25.5 6.5t-29 20.5t-22.5 40t-9 67q0 80 43 113.5t109 33.5q57 0 100 -33t71.5 -83t45 -110.5t24.5 -115.5q41 27 91.5 42t105.5 15q43 0 84 -12t78 -35q16 59 35.5 122t45 115t58.5 86 t78 34q43 0 72.5 -38t29.5 -79q0 -23 -15.5 -44.5t-41.5 -21.5q-20 0 -34.5 14.5t-14.5 37.5q0 20 12 32q-6 8 -14 8q-23 0 -40.5 -46t-47.5 -124q-12 -35 -30 -71.5t-34 -69.5q57 -53 91 -124.5t34 -147.5q0 -94 -45 -151.5t-131 -86.5q8 -31 24.5 -72.5t41 -79.5t57 -66 t73.5 -28q23 0 51.5 10.5t28.5 45.5q0 18 -12 35.5t-29 21.5q-10 -25 -29.5 -34t-31.5 -9q-43 6 -43 45q0 23 18.5 42.5t61.5 19.5q25 0 49.5 -9.5t43.5 -26t32.5 -42t13.5 -58.5q0 -37 -15.5 -61.5t-39 -40.5t-50 -23.5t-51.5 -7.5q-49 0 -88 33t-66.5 82t-47 106.5 t-31.5 106.5q-37 -10 -80 -13t-92 -3q-106 0 -184 26q-25 -47 -61 -100t-79 -98t-88 -75t-86 -30q-39 0 -62.5 24.5t-23.5 55.5zM451 676q0 -55 30.5 -92t74.5 -59.5t95 -32t92 -9.5q45 0 87 11.5t74 34t51.5 58.5t19.5 83q0 51 -22.5 97t-59.5 81t-84 54.5t-98 19.5 q-61 0 -109.5 -22.5t-82.5 -58.5t-51 -79t-17 -86zM1128 1196q2 -2 9 -2q14 0 20 9t6 20q0 12 -12 18z" />
<glyph unicode="&#xa5;" horiz-adv-x="1308" d="M61 1313q0 55 37 101t99 46q57 0 102 -41t74 -88q74 -117 114.5 -246t63.5 -258q10 72 23.5 159t34 177t51 175t75.5 150.5t106.5 105.5t141.5 40q61 0 112.5 -33.5t87.5 -86t56.5 -115t20.5 -117.5q0 -74 -47.5 -126t-114.5 -52q-59 0 -106.5 40t-47.5 103 q0 33 12.5 56.5t32 39t42 22.5t44.5 11q-12 47 -35.5 78t-54.5 31q-53 0 -105.5 -68.5t-101.5 -177.5t-95 -242t-87 -260q2 -23 2 -44t2 -44q86 12 150.5 28.5t99.5 16.5q25 0 24 -20q0 -41 -68.5 -64.5t-199.5 -27.5q2 -35 3 -71t5 -71q90 6 150.5 24.5t85.5 18.5 q23 0 22 -16q0 -16 -20.5 -29.5t-55 -24t-80.5 -19.5t-98 -15q4 -41 8.5 -80t8.5 -80h18q35 0 35 -26q0 -16 -6 -36t-19.5 -38.5t-32 -30.5t-42.5 -12q-35 0 -56.5 22.5t-33 59.5t-14.5 84t-3 98v31h-22q-98 0 -140.5 16t-42.5 49q0 27 27 27q18 0 68.5 -8.5t109.5 -12.5 q2 37 3 72t5 68q-59 4 -114.5 12t-77.5 12q14 -14 14 -31q0 -10 -8 -18t-24 -8q-23 0 -38.5 17.5t-15.5 39.5q0 49 64 49q12 0 33.5 -2t47 -5t53.5 -5t50 -2h21q2 20 3 40.5t3 41.5q-66 274 -172 498q-35 76 -66 118.5t-59 42.5q-18 0 -32.5 -21.5t-14.5 -53.5 q0 -27 11 -53.5t34 -26.5q12 0 17 11t6 24.5t3 24.5t11 11q10 -4 16 -25.5t6 -29.5q0 -29 -19.5 -49t-54.5 -20q-59 0 -92 43t-33 96zM1104 1239q0 -29 4 -54.5t14 -25.5t19.5 10.5t15.5 23.5t9 27.5t3 24.5q0 25 -11 43.5t-34 18.5q-4 0 -6 -1t-6 -1q-4 -8 -6 -25.5 t-2 -40.5z" />
<glyph unicode="&#xa6;" horiz-adv-x="935" d="M322 1774q0 16 7 27t17 11q17 1 23 -34q25 -186 39 -362.5t14 -368.5q0 -53 -13.5 -78t-29.5 -25t-28.5 23.5t-12.5 70.5q0 88 2 176.5t2 176.5q0 174 -6 350q-8 4 -11 14t-3 19zM340 -39v717q0 43 9 71.5t36 28.5q23 0 30 -29.5t7 -78.5q0 -68 -3 -160t-7 -193.5 t-9.5 -204t-7.5 -190.5q12 -6 13 -18q0 -16 -11.5 -30.5t-21.5 -14.5q-23 0 -29 26.5t-6 75.5z" />
<glyph unicode="&#xa7;" horiz-adv-x="882" d="M78 362q0 47 16.5 83t43 60.5t59 37t65.5 12.5q59 0 106.5 -40t47.5 -120q0 -59 -25.5 -96t-73.5 -37q-23 0 -47 19.5t-24 56.5q0 20 10 37.5t29 19.5q25 0 37 -18q6 14 6 41q0 43 -29 64.5t-63 21.5q-43 0 -81 -40t-38 -102q0 -55 24.5 -93t59.5 -60.5t75.5 -31.5 t73.5 -9q43 0 94.5 18.5t95.5 53t73.5 85t29.5 115.5q0 41 -17.5 75t-46 60.5t-65.5 48t-76 40.5q-31 14 -80 30.5t-95 44t-79.5 67.5t-33.5 99t22.5 126t50.5 122q-43 29 -69.5 72t-26.5 110q0 61 26.5 118.5t71.5 103t105.5 72t130.5 26.5q51 0 92 -17.5t68.5 -46 t42 -64.5t14.5 -71q0 -70 -38 -110.5t-83 -40.5q-41 0 -59.5 26.5t-18.5 61.5q0 51 33 84q-33 23 -80 22q-31 0 -60.5 -12t-53 -33.5t-38 -52.5t-14.5 -66q0 -59 42 -98t134 -74q47 -18 99.5 -39.5t95.5 -51.5t71.5 -69.5t28.5 -95.5q0 -53 -26.5 -103t-65.5 -93 q59 -37 102.5 -94.5t43.5 -143.5q0 -88 -38 -159.5t-98.5 -124t-135.5 -81t-146 -28.5q-55 0 -108.5 18.5t-94.5 53t-66.5 88t-25.5 122.5zM215 963q0 -45 29.5 -75t70.5 -49.5t84 -30.5t68 -20q31 -10 67.5 -22t71.5 -31q41 53 41 119q0 74 -40 116t-99 67.5t-128 46 t-126 51.5q-16 -41 -27.5 -86t-11.5 -86zM543 1409q0 -20 20 -20q10 0 14.5 9t4.5 19q0 25 -25 39q-4 -8 -9 -21.5t-5 -25.5z" />
<glyph unicode="&#xa8;" horiz-adv-x="616" d="M160 1513q0 17 4 25q2 27 20.5 53.5t46.5 26.5q29 0 40.5 -27.5t11.5 -56.5q0 -25 -20.5 -54.5t-49.5 -29.5q-25 0 -39 20.5t-14 42.5zM334 1509q0 18 8 40t22.5 40.5t33 30.5t38.5 12q37 0 57.5 -25.5t20.5 -66.5q0 -14 -4 -34.5t-13.5 -39t-24.5 -32t-40 -13.5 q-35 0 -66.5 23.5t-31.5 64.5zM401 1534q14 -12 19.5 -22.5t9.5 -26.5q18 4 23.5 18.5t5.5 30.5t-4 29.5t-21 13.5q-10 -2 -18 -14.5t-15 -28.5z" />
<glyph unicode="&#xa9;" horiz-adv-x="1851" d="M82 817q0 123 47 254t123 245t170 202t190 124q16 6 36 8.5t38 6.5q72 31 148.5 45t156.5 14q188 0 332.5 -74.5t242 -198.5t147.5 -284t50 -330q0 -184 -55 -335.5t-156.5 -259t-245 -166t-319.5 -58.5q-178 0 -341 61.5t-289 170t-200.5 256t-74.5 319.5zM180 840 q0 -102 33 -214t104 -204q-33 106 -51 223t-18 236q0 98 14 192t47 180q-57 -80 -93 -185t-36 -228zM299 872q0 -78 8 -156.5t24.5 -153.5t41 -141.5t57.5 -119.5q119 -98 267.5 -141t299.5 -43q152 0 282 52t226.5 149.5t150.5 236.5t54 311q0 154 -49 298.5t-144.5 256 t-234.5 178t-319 66.5q-162 0 -286 -65.5t-208 -175t-127 -253t-43 -299.5zM565 807q0 98 30 192.5t87 166t140 115.5t188 44q45 0 91 -11t84 -37t61.5 -67t23.5 -98q0 -25 -9.5 -49.5t-24.5 -44t-36.5 -32.5t-48.5 -13q-43 0 -73.5 37t-30.5 84q0 29 10 50.5t24 41.5 q-33 35 -78 51t-88 16q-10 0 -21 -1t-22 -3q-82 -96 -122.5 -195.5t-40.5 -215.5q0 -70 11 -134.5t30 -125.5q53 -66 125.5 -104t164.5 -38q49 0 94.5 11.5t81 25.5t59 25.5t32.5 11.5q10 0 10 -10t-35 -37t-92 -55q-53 -29 -119.5 -50.5t-134.5 -21.5q-90 0 -158.5 40 t-116 105.5t-72 150.5t-24.5 175zM643 903q0 -53 8 -100t25 -92q-4 27 -6 55.5t-2 56.5q0 123 44 227.5t128 190.5q-49 -16 -86 -50t-61.5 -80t-37 -100.5t-12.5 -107.5z" />
<glyph unicode="&#xaa;" horiz-adv-x="669" d="M84 1599q0 31 24.5 62t58.5 56.5t70.5 41t63.5 15.5q51 0 80 -24t43 -62.5t17 -89t3 -101.5q0 -92 8.5 -141t57.5 -49q20 0 36.5 11t26.5 11q14 0 15 -16q0 -12 -10.5 -29.5t-26.5 -32t-37.5 -24.5t-44.5 -10q-76 0 -104 86q-57 -113 -154 -113q-49 0 -82 33.5t-33 103.5 q0 68 59.5 110t143.5 42q16 0 28.5 -1t24.5 -1q4 41 10.5 80.5t6.5 80.5q0 10 -1 26.5t-6.5 32t-15.5 27t-31 11.5q-18 0 -39.5 -12.5t-41 -31t-35 -40t-21.5 -39.5q39 -10 39 -35q0 -16 -19.5 -30.5t-45.5 -14.5q-27 0 -47.5 20t-20.5 47zM139 1012q0 25 19.5 37t47 18 t59.5 8t59 4q41 4 69.5 10.5t50.5 6.5q25 0 37.5 -13.5t12.5 -27.5q0 -20 -28 -37t-67 -29t-81.5 -19t-71.5 -7q-35 0 -71 10t-36 39zM190 1341q0 -41 15.5 -54t32.5 -13q31 0 60.5 20.5t53.5 55.5q-4 14 -4 29.5v31.5v25h-12q-70 0 -108 -22.5t-38 -72.5z" />
<glyph unicode="&#xab;" horiz-adv-x="696" d="M84 797q0 18 11 30.5t34 28.5q72 53 115 96t61 90q-25 -10 -37 -10q-23 0 -22 21q0 12 8 26.5t20.5 25.5t24.5 18t23 7q29 0 37 -21.5t8 -43.5q0 -43 -14.5 -80t-37 -68.5t-50 -59.5t-54.5 -54q39 -29 77 -61.5t67.5 -72.5t48 -86t18.5 -100q0 -20 -5 -43.5t-17.5 -45 t-31 -36t-44.5 -16.5q-25 0 -47.5 12.5t-40 32t-28.5 46t-11 54.5q0 25 10 42.5t39 17.5q10 0 21.5 -2t25.5 -8q-20 72 -58 122t-116 89q-12 6 -23.5 18t-11.5 31zM322 805q0 23 15 31t30 8q10 0 17 -2t15 -4q59 35 84 80t29 110q0 23 10 23q16 0 26.5 -28t10.5 -42 q0 -47 -32.5 -93t-67.5 -75q59 -35 92 -119t33 -182q0 -27 -5.5 -47.5t-23.5 -20.5t-27 25q-6 14 -14 59t-22 86q-6 20 -15.5 46t-22 48.5t-28.5 40t-39 25.5q-6 -2 -20 -2q-16 0 -30.5 7t-14.5 26z" />
<glyph unicode="&#xac;" horiz-adv-x="1376" d="M66 895q0 33 20 54.5t54 33.5t77 16.5t88 4.5q104 0 201.5 -3.5t189.5 -3.5q98 0 186.5 2.5t180.5 14.5q16 4 41.5 7t48.5 3q18 0 39.5 -12.5t21.5 -42.5q0 -16 -23.5 -27.5t-62.5 -17.5q-2 -20 -2 -40v-36q0 -57 5.5 -113.5t21.5 -111.5q14 14 33.5 19t34.5 5 q45 0 73.5 -37t28.5 -84q0 -41 -25.5 -74.5t-83.5 -33.5q-53 0 -85.5 28.5t-51 69.5t-24.5 83t-6 71q0 72 8 131t18 114q-66 -6 -143.5 -7t-143.5 -1q-100 0 -171.5 3t-135 6.5t-128 6.5t-146.5 3q-35 0 -63.5 -6.5t-47.5 -26.5q-12 -16 -16 -16q-12 2 -12 18zM1176 559 q12 -23 25 -31t24 -8q8 0 12 8.5t4 18.5q0 18 -9 25.5t-18 7.5q-14 0 -22 -6.5t-16 -14.5z" />
<glyph unicode="&#xad;" horiz-adv-x="645" d="M98 690q0 25 14.5 40t36 24.5t49 12.5t56.5 3q41 0 90 -2t92 -8t72 -18.5t29 -34.5q0 -23 -24 -35.5t-60.5 -18.5t-85 -7t-97.5 -1h-32q-16 -27 -62 -27q-39 0 -58.5 23t-19.5 49z" />
<glyph unicode="&#xae;" horiz-adv-x="1941" d="M59 842q0 96 26 199.5t71 200.5t108.5 184t137 153t157.5 103.5t170 37.5q70 27 134.5 44.5t135.5 17.5q158 0 309.5 -85t271.5 -223.5t192.5 -311.5t72.5 -349q0 -147 -53 -272t-131 -199q-104 -160 -278.5 -238.5t-372.5 -78.5q-168 0 -337 60t-305.5 168.5 t-222.5 258.5t-86 330zM143 840q0 -111 42 -207t113 -175t163 -140.5t192.5 -103.5t202.5 -63.5t195 -21.5q135 0 254.5 39t210 115.5t143.5 192.5t53 269q0 176 -65.5 344t-177 298.5t-259 210t-309.5 79.5q-78 0 -138.5 -18.5t-111.5 -50t-96 -74.5t-90 -92 q-14 -16 -32.5 -32.5t-41.5 -16.5q-19 0 -37 18q-94 -117 -152.5 -270.5t-58.5 -300.5zM498 1174q0 45 25.5 76.5t68.5 52t99.5 29.5t119.5 9q86 0 158.5 -22.5t125 -67.5t82 -111.5t29.5 -154.5q0 -82 -39 -135t-149 -53h-18.5t-18.5 2q33 -47 68.5 -98.5t78.5 -96.5 t94.5 -73.5t116.5 -28.5q31 0 52 10q-18 10 -39 29.5t-21 44.5q0 29 29 39t63 10q70 0 70 -41q0 -35 -22.5 -68.5t-56.5 -59.5t-74 -41t-72 -15q-39 0 -77 13t-79 56t-85 122t-95 208q-14 2 -43 8t-29 23q0 10 11.5 17t23.5 7t19.5 -4t15.5 -10t18 -10t27 -4q63 0 102 33.5 t39 121.5q0 74 -22.5 123t-61.5 80t-91 44t-114 15q2 -201 5.5 -324.5t5.5 -198.5t3 -113.5t1 -65.5q0 -78 -22.5 -126t-82.5 -48q-18 0 -38.5 9t-39 21.5t-30 25.5t-11.5 24q0 10 13 10q8 0 29.5 -10.5t37.5 -10.5q23 0 33 23t12 57q6 186 15.5 364.5t32.5 362.5 q-35 0 -71 -5t-65.5 -15t-49 -26.5t-19.5 -41.5q0 -35 17.5 -69.5t39.5 -34.5q20 0 27.5 27.5t7.5 46.5q0 16 -6 32.5t-6 26.5q0 16 14 16q20 0 29 -28q4 -12 6 -24.5t2 -24.5q0 -23 -5 -47.5t-15.5 -44t-28 -33t-43.5 -13.5q-27 0 -49.5 17.5t-40 44t-27.5 57.5t-10 60z M866 1737q121 0 234.5 -41t214 -114t183.5 -170t142.5 -209.5t92 -235.5t32.5 -244q0 -12 -1 -24.5t-1 -24.5q6 35 10.5 69.5t4.5 73.5q0 111 -29 223.5t-82 216t-126 193.5t-161 156.5t-187 104.5t-206 38q-64 0 -121 -12zM1085 592q41 -59 90.5 -103.5t108.5 -44.5 q43 0 78 23q-11 -4 -31 -4q-78 0 -138 37t-108 92zM1399 588q2 -18 13.5 -27.5t25.5 -13.5q4 6 12 16t8 19q0 14 -22 14q-25 0 -37 -8z" />
<glyph unicode="&#xaf;" horiz-adv-x="555" d="M141 1491q2 27 19.5 37t29.5 14q41 12 84 19.5t86 7.5q12 0 31 -1t36 -6.5t28.5 -15.5t11.5 -26t-39 -27.5t-88 -18t-96 -9.5t-62 -3q-16 0 -28.5 6.5t-12.5 22.5z" />
<glyph unicode="&#xb0;" horiz-adv-x="616" d="M98 1458q0 61 43 109q0 96 50.5 139t121.5 43q39 0 77 -13.5t67.5 -39t48 -62.5t18.5 -86q0 -59 -31.5 -106t-80.5 -70q-29 -18 -72 -33.5t-90 -15.5q-59 0 -105.5 28.5t-46.5 106.5zM141 1462q0 -29 16.5 -48t49.5 -23q-41 42 -57 112q-8 -18 -9 -41zM199 1583 q0 -88 31.5 -132t86.5 -44q23 0 46.5 9t44 27.5t33 44t12.5 58.5q0 55 -38 90t-87 35q-33 -2 -64 -15.5t-61 -33.5q-2 -10 -3 -19.5t-1 -19.5z" />
<glyph unicode="&#xb1;" horiz-adv-x="749" d="M111 735q0 41 25.5 64.5t62.5 23.5q16 0 49 -2t76 -4q4 49 5 88t1 51q0 27 10 35t20 8q29 0 40.5 -56t11.5 -130h65q39 0 63.5 2t41 5t26.5 5t21 2q10 0 17 -9t7 -25q0 -18 -20.5 -37t-53 -33t-72.5 -23.5t-79 -9.5h-22q-2 -29 -4.5 -54.5t-6.5 -49.5q16 -6 17 -23 q0 -16 -23.5 -29.5t-42.5 -13.5q-18 0 -26.5 15.5t-8.5 35.5v46t4 73q-29 2 -56.5 2t-59.5 2q-4 -10 -17.5 -15t-27.5 -5q-16 0 -29.5 16.5t-13.5 44.5zM135 365q0 35 39 49t86 14q59 0 109.5 -4t122.5 -4h28.5t28.5 2q6 29 31 29t42 -20.5t17 -45.5t-15.5 -41t-41 -25.5 t-58 -12.5t-65.5 -3q-41 0 -97.5 1t-106.5 7t-85 18.5t-35 35.5z" />
<glyph unicode="&#xb2;" horiz-adv-x="749" d="M80 1163q0 16 17.5 29.5t58.5 13.5q57 35 108 85t89 109.5t60.5 124t22.5 130.5q0 70 -21.5 99.5t-56.5 29.5q-20 0 -51 -13.5t-58.5 -35t-48 -50t-20.5 -57.5q0 -25 14.5 -33t28.5 -8q16 0 31.5 6t26.5 17q-8 12 -9 28q0 23 16.5 34t39.5 11q20 0 35.5 -13t15.5 -44 q0 -33 -15.5 -58.5t-39 -44t-51 -27.5t-52.5 -9q-53 0 -89 37t-36 90q0 41 24.5 81t61.5 71.5t82 51t86 19.5q43 0 85 -20.5t75 -54t53.5 -78t20.5 -91.5q0 -90 -88 -193.5t-275 -211.5q61 -20 133 -44t150 -24q39 0 69.5 10.5t47.5 34.5q-25 4 -36.5 18.5t-11.5 28.5 q0 39 48 39q27 0 39 -20.5t12 -52.5q0 -39 -19.5 -71t-48.5 -53.5t-62.5 -33.5t-60.5 -12q-41 0 -78.5 16t-74.5 39.5t-76 47.5t-80 36q-29 -16 -51 -17q-41 0 -41 33zM344 1309q86 78 128 150.5t42 150.5q0 35 -10 61.5t-27 48.5q6 -30 6 -63q0 -92 -41 -183.5t-98 -164.5z " />
<glyph unicode="&#xb3;" horiz-adv-x="663" d="M70 1157q0 63 41 111.5t106 48.5q41 0 68.5 -25.5t27.5 -56.5q0 -25 -17 -48.5t-56 -23.5q-12 0 -24.5 7.5t-16.5 25.5q-27 -10 -27 -37q0 -20 15.5 -35.5t38 -27t49 -17.5t51.5 -8q33 16 62.5 46t51 68t33.5 81t12 86q0 47 -17 89t-52 60q-14 -10 -41 -21.5t-49 -11.5 q-33 0 -33 25q0 16 19.5 34.5t54.5 18.5q23 23 32 48.5t9 50.5q0 51 -34 87.5t-87 36.5q-47 0 -94 -32q25 -10 32.5 -23.5t7.5 -27.5q0 -29 -23.5 -43.5t-45.5 -14.5q-16 2 -31.5 16.5t-15.5 38.5q0 31 20.5 56.5t51 45t67.5 31t72 11.5q82 0 126 -47t44 -113 q-1 -71 -54 -137q78 -23 115 -83.5t37 -141.5q0 -61 -19.5 -116.5t-55.5 -98.5t-88 -68t-120 -25q-39 0 -82 8.5t-78.5 27t-59 49t-23.5 75.5zM412 1075q78 18 117.5 82t39.5 146q0 53 -20.5 101t-61.5 75q23 -35 34 -77t11 -83q0 -72 -30.5 -137.5t-89.5 -106.5z" />
<glyph unicode="&#xb4;" horiz-adv-x="671" d="M145 1442q0 16 33 28q35 14 74 32t70.5 40.5t53 52t21.5 68.5q0 16 -4 32.5t-4 33.5q0 31 18.5 44t36.5 13q35 0 59.5 -32t24.5 -75q0 -57 -36.5 -99t-90 -71.5t-112 -49t-101.5 -29.5q-6 -2 -18 -3q-25 0 -25 15z" />
<glyph unicode="&#xb5;" horiz-adv-x="1122" d="M-14 -408q0 29 13 41.5t32 12.5q16 0 34.5 -9.5t28.5 -27.5q4 27 4 90v125q0 96 7.5 246.5t16.5 325.5t20.5 357.5t21.5 340.5q-2 10 -9.5 51t-7.5 82q0 35 11.5 60.5t34.5 25.5q25 0 30.5 -31.5t7.5 -105.5v-88.5t2 -86.5q10 -66 30 -131t52.5 -117.5t77.5 -85 t109 -32.5q47 0 89 22.5t71 51.5q4 47 9 108.5t10 125t14.5 125.5t24.5 110.5t36.5 78t54.5 29.5q41 0 64.5 -49t23.5 -125q0 -98 -30.5 -203.5t-82.5 -183.5q0 -55 5.5 -119.5t16.5 -119t30.5 -90.5t50.5 -36q33 0 63.5 27t30.5 53q0 10 -5 20.5t-22 10.5q-10 0 -24 -8 q4 -8 4 -10q0 -10 -10.5 -18.5t-26.5 -8.5q-12 0 -21.5 9t-9.5 24q2 33 36 47t69 14q39 0 65.5 -23.5t26.5 -70.5q0 -43 -15.5 -82t-43 -68.5t-63.5 -46t-77 -16.5q-61 0 -101 30.5t-63.5 83t-33 121t-9.5 144.5q-76 -47 -159 -47q-100 0 -163 64.5t-97 156.5 q4 -184 6 -361.5t2 -355.5q0 -90 -3 -183t-20.5 -169t-54.5 -125t-104 -49q-29 0 -54.5 16.5t-25.5 52.5zM776 879q16 53 32.5 128.5t16.5 141.5q0 29 -4 42t-6 13q-8 0 -15 -37t-12.5 -89t-8.5 -107t-3 -92z" />
<glyph unicode="&#xb6;" horiz-adv-x="1640" d="M88 1255q0 115 53.5 203t140.5 147.5t199.5 90t233.5 30.5q66 0 135.5 -7t138 -14t132 -14.5t118.5 -7.5q57 0 112.5 8.5t100.5 33t72.5 68.5t27.5 114q-16 -8 -20 -9q-10 0 -14.5 6.5t-4.5 12.5q0 18 13.5 27.5t27.5 9.5q29 0 38.5 -28t9.5 -50q0 -72 -30 -120 t-80 -77.5t-115.5 -43t-135.5 -17.5q12 -164 24.5 -348.5t29 -356.5t38 -318t53.5 -233q23 14 54 15q53 0 88 -42t35 -91q0 -55 -35 -100.5t-92 -45.5q-59 0 -101.5 45t-69 120t-42 172t-22.5 202.5t-8 210t-1 192.5q0 154 4 303.5t8 272.5q-76 0 -124 1t-95 5 q12 -190 14 -396t4.5 -397.5t9.5 -353.5t27 -264q43 0 59.5 -14.5t16.5 -36.5q0 -35 -28.5 -67t-75.5 -32t-74 64.5t-41 158t-18.5 199t-4.5 187.5q0 113 7.5 245t18.5 263t23.5 247.5t24.5 198.5q-66 4 -134.5 7t-145.5 3q-72 0 -143.5 -51t-129 -127t-92.5 -164t-35 -159 q0 -53 11.5 -98.5t36 -80t64.5 -54t99 -19.5q45 0 85 14t71 40t48 60.5t17 73.5q0 12 -2 26.5t-6 28.5q-16 -23 -35.5 -36t-50.5 -13q-43 0 -70.5 34t-27.5 75q0 59 40 98t105 39q43 0 78 -20.5t59.5 -55.5t38 -79t13.5 -89q0 -68 -28 -121t-74 -89t-104 -54t-118 -18 q-98 0 -178 36.5t-135 99t-86 146.5t-31 178zM211 1212q0 -47 8 -90t27 -84q-18 57 -19 117q0 68 21.5 133.5t58.5 123.5t88 109.5t111 90.5q-63 -18 -116.5 -51t-93.5 -82t-62.5 -116t-22.5 -151zM584 1210l88 -20q-10 20 -25.5 35.5t-32.5 15.5q-12 0 -21 -9t-9 -22z M1430 225q0 -29 18 -28q20 0 28.5 20.5t8.5 34.5q0 35 -29 53q-10 -16 -18 -39.5t-8 -40.5z" />
<glyph unicode="&#xb7;" horiz-adv-x="438" d="M90 750q0 35 18.5 60.5t53.5 25.5q21 -1 31 -5q27 23 63 23q47 0 75.5 -37t28.5 -90q0 -59 -42 -89t-93 -30q-49 0 -92 41t-43 101zM227 733q0 -27 6 -35q43 0 43 29q0 14 -5 31.5t-21 17.5q-12 0 -17.5 -13t-5.5 -30z" />
<glyph unicode="&#xb8;" horiz-adv-x="528" d="M92 -193q0 37 30 65t73 28q31 0 51 -17.5t20 -40.5q0 -29 -26 -49q4 0 10 -1t10 -1q47 0 67.5 22.5t20.5 57.5q0 45 -27.5 66.5t-59.5 37t-59.5 33t-27.5 58.5q0 29 14.5 56.5t34.5 45.5l27 -16q-39 -45 -39 -78q0 -31 35 -44.5t75.5 -29.5t75.5 -48t35 -95 q0 -70 -48 -115t-134 -45q-63 0 -110.5 29.5t-47.5 80.5z" />
<glyph unicode="&#xb9;" horiz-adv-x="663" d="M80 1401q0 12 9 21.5t30 25.5q51 39 104 98.5t92 114.5v53t6.5 70t22.5 60.5t51 25.5q18 0 27.5 -14.5t9.5 -34.5q0 -16 -4 -36t-10 -38q2 -76 3 -161t4 -168t10 -155.5t20 -123.5q41 6 61 16q-8 12 -8 21q0 12 11 23t38 11t38 -13t11 -30q0 -29 -37 -54.5t-95 -43.5 t-131 -29.5t-146 -11.5q-23 0 -35 6t-12 27q0 35 30.5 57.5t65.5 22.5q10 0 17 -1t18 -3q12 115 18 227.5t12 226.5q-18 -27 -43.5 -63.5t-53.5 -70.5t-55.5 -57.5t-49.5 -23.5q-29 0 -29 25zM362 1133h26.5t25.5 2q-16 135 -19.5 274t-5.5 281q-4 -6 -7 -12.5t-7 -10.5 q-6 -135 -7.5 -268t-5.5 -266z" />
<glyph unicode="&#xba;" horiz-adv-x="622" d="M84 1483q0 61 19.5 114.5t51 91t72.5 59t84 21.5q98 0 156.5 -60t58.5 -155q0 -45 -13 -93t-34.5 -89t-49 -73t-58.5 -44q-35 -14 -72 -14q-43 0 -83 18.5t-68.5 51t-46 77t-17.5 95.5zM113 1036q0 20 13 33.5t33.5 21t45 10.5t47.5 3q18 0 57 -2t78 -10.5t68.5 -23.5 t29.5 -40q0 -20 -23.5 -29.5t-58.5 -9.5q-29 0 -71.5 9.5t-81.5 9.5q-23 0 -47.5 -5.5t-46.5 -5.5q-23 0 -33 11.5t-10 27.5zM141 1520q0 -80 40 -131.5t100 -51.5q37 0 77 25q-35 0 -68.5 20.5t-61 56.5t-45 81t-17.5 94q0 10 1 19.5t3 19.5q-16 -35 -22.5 -69t-6.5 -64z M209 1610q0 -35 14.5 -72t38 -67.5t52 -51t59.5 -20.5q27 0 46 14t31.5 33.5t18.5 43.5t6 42q0 39 -21.5 70.5t-52 52t-63.5 32t-55 11.5q-39 0 -56.5 -26.5t-17.5 -61.5z" />
<glyph unicode="&#xbb;" horiz-adv-x="729" d="M92 485q0 98 35 194.5t109 164.5q-35 33 -62 80t-31 94q0 29 15 29q6 0 8 -8.5t6 -18.5q16 -41 38.5 -82t61.5 -70q27 16 50 17q25 0 41 -16.5t16 -39.5q0 -16 -11.5 -29.5t-33.5 -13.5q-25 0 -47 17q-37 -31 -54.5 -73t-26.5 -88t-19.5 -94t-32.5 -91 q-6 -12 -15.5 -21.5t-21.5 -9.5q-25 0 -25 59zM309 516q0 49 19.5 92t51.5 80t70.5 66.5t77.5 50.5q-72 29 -117.5 82t-45.5 106q0 27 9 49.5t22.5 38t27.5 24.5t22 9t9 -8q0 -12 -8.5 -34.5t-8.5 -63.5q0 -27 16.5 -53.5t40 -51t51 -45t52.5 -35.5q14 -2 24.5 -8t10.5 -20 q0 -31 -29 -31q-6 0 -8 2q-27 -10 -53.5 -31.5t-48 -49.5t-36 -61.5t-14.5 -70.5q0 -43 21 -82q0 8 9 16.5t32 8.5q20 0 29.5 -13.5t9.5 -33.5q0 -25 -12.5 -42.5t-31 -29.5t-40 -17.5t-39.5 -5.5q-53 0 -83 48.5t-30 113.5z" />
<glyph unicode="&#xbc;" horiz-adv-x="1597" d="M80 1401q0 12 9 21.5t30 25.5q51 39 104 98.5t92 114.5v53t6.5 70t22.5 60.5t51 25.5q18 0 27.5 -14.5t9.5 -34.5q0 -16 -4 -36t-10 -38q2 -76 3 -161t4 -168t10 -155.5t20 -123.5q41 6 61 16q-8 12 -8 21q0 12 11 23t38 11t38 -13t11 -30q0 -29 -37 -54.5t-95 -43.5 t-131 -29.5t-146 -11.5q-23 0 -35 6t-12 27q0 35 30.5 57.5t65.5 22.5q10 0 17 -1t18 -3q12 115 18 227.5t12 226.5q-18 -27 -43.5 -63.5t-53.5 -70.5t-55.5 -57.5t-49.5 -23.5q-29 0 -29 25zM106 131q0 31 15.5 79t42.5 83q541 729 923 1479q12 23 13.5 47t7.5 49 q10 43 31.5 67.5t44.5 24.5q27 0 26 -35q0 -35 -16 -81t-31 -75q-109 -211 -221.5 -411.5t-228 -396t-235 -387t-240.5 -386.5q14 -12 14 -30q0 -33 -31 -62.5t-65 -29.5q-18 0 -34 15t-16 50zM362 1133h26.5t25.5 2q-16 135 -19.5 274t-5.5 281q-4 -6 -7 -12.5t-7 -10.5 q-6 -135 -7.5 -268t-5.5 -266zM752 362q0 12 11 25.5t36 20.5q33 55 71.5 122.5t75.5 136t66.5 134t44.5 117.5q-10 -4 -22.5 -6.5t-24.5 -2.5q-18 0 -32.5 8.5t-14.5 30.5q0 37 28.5 73t67.5 36q27 -2 44 -17.5t27.5 -38t15.5 -48t5 -48.5q0 -61 -22.5 -125.5t-58.5 -126 t-80 -120t-87 -107.5q61 12 119.5 21.5t116.5 13.5q6 39 17 76.5t26.5 66.5t35 46.5t42.5 17.5q31 0 30 -29q0 -20 -7 -52t-11 -89q-2 -10 -2 -29q43 0 87 2t60 10q-4 8 -4 15q0 12 10.5 19t20.5 7q31 0 31 -37q0 -25 -17.5 -40t-46.5 -24t-66.5 -13.5t-76.5 -4.5 q0 -45 -1 -87t-7.5 -73.5t-20.5 -51t-41 -19.5q-35 0 -51.5 53.5t-16.5 124.5v25.5t3 25.5q-72 -2 -135.5 -7t-129.5 -11q-39 -45 -80 -45q-37 0 -36 24zM1018 952q0 -12 22 -12q15 0 23 2q2 6 2 16q0 31 -18 31q-4 0 -16.5 -8t-12.5 -29z" />
<glyph unicode="&#xbd;" horiz-adv-x="1562" d="M80 1401q0 12 9 21.5t30 25.5q51 39 104 98.5t92 114.5v53t6.5 70t22.5 60.5t51 25.5q18 0 27.5 -14.5t9.5 -34.5q0 -16 -4 -36t-10 -38q2 -76 3 -161t4 -168t10 -155.5t20 -123.5q41 6 61 16q-8 12 -8 21q0 12 11 23t38 11t38 -13t11 -30q0 -29 -37 -54.5t-95 -43.5 t-131 -29.5t-146 -11.5q-23 0 -35 6t-12 27q0 35 30.5 57.5t65.5 22.5q10 0 17 -1t18 -3q12 115 18 227.5t12 226.5q-18 -27 -43.5 -63.5t-53.5 -70.5t-55.5 -57.5t-49.5 -23.5q-29 0 -29 25zM106 131q0 31 15.5 79t42.5 83q541 729 923 1479q12 23 13.5 47t7.5 49 q10 43 31.5 67.5t44.5 24.5q27 0 26 -35q0 -35 -16 -81t-31 -75q-109 -211 -221.5 -411.5t-228 -396t-235 -387t-240.5 -386.5q14 -12 14 -30q0 -33 -31 -62.5t-65 -29.5q-18 0 -34 15t-16 50zM362 1133h26.5t25.5 2q-16 135 -19.5 274t-5.5 281q-4 -6 -7 -12.5t-7 -10.5 q-6 -135 -7.5 -268t-5.5 -266zM840 340q0 16 17 29.5t58 13.5q57 35 108.5 85t89.5 109.5t60.5 124t22.5 129.5q0 70 -21.5 100t-56.5 30q-20 0 -51 -13.5t-58.5 -35t-48 -50t-20.5 -57.5q0 -25 14.5 -33t28.5 -8q16 0 31.5 6t25.5 16q-8 12 -8 29q0 23 16.5 34t38.5 11 q20 0 36 -13t16 -44q0 -33 -15.5 -58.5t-39 -44t-51 -27.5t-52.5 -9q-53 0 -89 36.5t-36 90.5q0 41 24.5 80.5t61.5 71.5t82 51.5t86 19.5q43 0 85 -20.5t75 -54.5t53 -78t20 -91q0 -90 -88 -193.5t-274 -211.5q61 -20 133 -44t150 -24q39 0 69.5 10t46.5 35q-25 4 -36 18.5 t-11 28.5q0 39 47 39q27 0 39.5 -20.5t12.5 -53.5q0 -39 -19.5 -70.5t-48.5 -53t-62.5 -34t-60.5 -12.5q-41 0 -79 16.5t-74.5 40t-75.5 47t-80 36.5q-29 -16 -51 -17q-41 0 -41 33zM1104 485q86 78 128 151t42 150q0 35 -10.5 61.5t-26.5 49.5q6 -30 6 -63 q0 -92 -41 -183.5t-98 -165.5z" />
<glyph unicode="&#xbe;" horiz-adv-x="1597" d="M70 1157q0 63 41 111.5t106 48.5q41 0 68.5 -25.5t27.5 -56.5q0 -25 -17 -48.5t-56 -23.5q-12 0 -24.5 7.5t-16.5 25.5q-27 -10 -27 -37q0 -20 15.5 -35.5t38 -27t49 -17.5t51.5 -8q33 16 62.5 46t51 68t33.5 81t12 86q0 47 -17 89t-52 60q-14 -10 -41 -21.5t-49 -11.5 q-33 0 -33 25q0 16 19.5 34.5t54.5 18.5q23 23 32 48.5t9 50.5q0 51 -34 87.5t-87 36.5q-47 0 -94 -32q25 -10 32.5 -23.5t7.5 -27.5q0 -29 -23.5 -43.5t-45.5 -14.5q-16 2 -31.5 16.5t-15.5 38.5q0 31 20.5 56.5t51 45t67.5 31t72 11.5q82 0 126 -47t44 -113 q-1 -71 -54 -137q78 -23 115 -83.5t37 -141.5q0 -61 -19.5 -116.5t-55.5 -98.5t-88 -68t-120 -25q-39 0 -82 8.5t-78.5 27t-59 49t-23.5 75.5zM106 131q0 31 15.5 79t42.5 83q541 729 923 1479q12 23 13.5 47t7.5 49q10 43 31.5 67.5t44.5 24.5q27 0 26 -35q0 -35 -16 -81 t-31 -75q-109 -211 -221.5 -411.5t-228 -396t-235 -387t-240.5 -386.5q14 -12 14 -30q0 -33 -31 -62.5t-65 -29.5q-18 0 -34 15t-16 50zM412 1075q78 18 117.5 82t39.5 146q0 53 -20.5 101t-61.5 75q23 -35 34 -77t11 -83q0 -72 -30.5 -137.5t-89.5 -106.5zM752 362 q0 12 11 25.5t36 20.5q33 55 71.5 122.5t75.5 136t66.5 134t44.5 117.5q-10 -4 -22.5 -6.5t-24.5 -2.5q-18 0 -32.5 8.5t-14.5 30.5q0 37 28.5 73t67.5 36q27 -2 44 -17.5t27.5 -38t15.5 -48t5 -48.5q0 -61 -22.5 -125.5t-58.5 -126t-80 -120t-87 -107.5q61 12 119.5 21.5 t116.5 13.5q6 39 17 76.5t26.5 66.5t35 46.5t42.5 17.5q31 0 30 -29q0 -20 -7 -52t-11 -89q-2 -10 -2 -29q43 0 87 2t60 10q-4 8 -4 15q0 12 10.5 19t20.5 7q31 0 31 -37q0 -25 -17.5 -40t-46.5 -24t-66.5 -13.5t-76.5 -4.5q0 -45 -1 -87t-7.5 -73.5t-20.5 -51t-41 -19.5 q-35 0 -51.5 53.5t-16.5 124.5v25.5t3 25.5q-72 -2 -135.5 -7t-129.5 -11q-39 -45 -80 -45q-37 0 -36 24zM1018 952q0 -12 22 -12q15 0 23 2q2 6 2 16q0 31 -18 31q-4 0 -16.5 -8t-12.5 -29z" />
<glyph unicode="&#xbf;" horiz-adv-x="1347" d="M109 242q0 100 26.5 187t73.5 163t110.5 141.5t135.5 122.5q25 20 60.5 45t74.5 52.5t77 57t68 60.5q41 39 61.5 83t30.5 93q-37 14 -36 49q0 20 14 33.5t37 18.5q16 0 29.5 -16.5t13.5 -59.5q0 -66 -19.5 -121t-52.5 -94q-31 -37 -72 -74t-83 -71.5t-81.5 -67.5 t-66.5 -64q-92 -100 -151.5 -224t-59.5 -263q0 -76 20.5 -138.5t61.5 -108.5t101.5 -71.5t140.5 -25.5q86 0 183 23.5t178 73.5t134 131t53 196q0 37 -12 74.5t-35.5 68.5t-55.5 51.5t-69 20.5q-45 0 -86 -35q35 -6 58.5 -31.5t23.5 -60.5q0 -41 -29.5 -74t-68.5 -33 q-33 0 -62.5 24.5t-29.5 88.5q4 41 21.5 77t45 61.5t62.5 41t74 15.5q57 0 105 -30t82 -76t52.5 -101.5t18.5 -108.5q0 -137 -65.5 -246.5t-167 -185.5t-224.5 -117t-236 -41q-111 0 -196.5 39t-146 105.5t-91 154.5t-30.5 187zM707 1628q0 35 19 59.5t38 36.5l24 -12 q12 23 35 35t51 12q41 0 79 -26.5t38 -73.5q0 -31 -18.5 -51.5t-45 -32.5t-56 -17.5t-50.5 -5.5q-18 0 -37.5 3.5t-37 12.5t-28.5 23.5t-11 36.5z" />
<glyph unicode="&#xc0;" horiz-adv-x="2611" d="M51 270q0 63 16.5 130t45 119t69.5 86t90 34q37 0 72 -20.5t61.5 -51t42 -68.5t15.5 -73t-17.5 -62.5t-52.5 -27.5q-27 0 -54.5 22.5t-27.5 57.5t43 39q10 0 21.5 -1t21.5 -1q0 16 -8 35.5t-21.5 36t-31 27.5t-37.5 11q-31 0 -52.5 -20.5t-34.5 -53t-19.5 -73.5t-6.5 -80 q0 -121 42 -218.5t112 -165t159 -104t185 -36.5q147 0 261 70.5t205 210.5t166 347t144 482q-57 4 -113.5 6t-111.5 2q-88 0 -119 -12q12 -10 17.5 -20.5t5.5 -20.5q0 -18 -13.5 -30.5t-42.5 -12.5q-41 0 -72.5 25.5t-31.5 64.5q0 37 25.5 57t61.5 30.5t73 12.5t59 2 q74 0 145.5 -4t139.5 -10q53 207 101 411.5t110 409.5q-10 45 -11.5 69.5t-1.5 45.5q0 39 15.5 57t32.5 18q20 0 32.5 -24.5t12.5 -65.5q0 -39 -7 -69q8 -43 18.5 -132.5t26 -208t36 -258t44.5 -282.5h11q41 0 82 6q31 33 67 33q23 0 39 -10.5t16 -26.5t-17 -28.5t-46 -20.5 t-65.5 -13t-73.5 -8q29 -158 64.5 -306t79.5 -262t97.5 -182.5t114.5 -68.5q43 0 82 24.5t66.5 62.5t44 85t16.5 94t-26.5 77t-90.5 34q6 -16 6 -31q0 -41 -37.5 -60.5t-74.5 -19.5q-35 0 -55.5 22t-20.5 56q0 37 16.5 64.5t42 46t58 28t63.5 9.5q43 0 85 -16.5t75 -46 t53.5 -69.5t20.5 -87q0 -66 -34 -133.5t-88.5 -121t-120 -87t-126.5 -33.5q-63 0 -113.5 31.5t-90.5 88t-69.5 132.5t-50.5 162q-29 113 -50 241.5t-40 263.5h-24q-131 0 -244 7q-10 -49 -21.5 -99.5t-23.5 -103.5q-72 -313 -155 -525t-185 -342.5t-228 -185.5t-286 -55 q-109 0 -213.5 47t-187 134t-133 209t-50.5 271zM1481 2384q0 45 19.5 77.5t60.5 32.5q31 0 43 -20t12 -39q0 -29 -11.5 -54.5t-11.5 -53.5q0 -23 14.5 -49.5t53.5 -55.5q25 -18 48.5 -27.5t44 -15.5t32.5 -13t12 -20q0 -14 -33 -14q-18 0 -46.5 7.5t-67.5 23.5 q-29 12 -58.5 31.5t-54.5 46t-41 62.5t-16 81zM1554 1006q59 -6 120 -11.5t120 -9.5q-12 106 -23.5 210.5t-21.5 200t-19.5 177.5t-17.5 147q-35 -147 -72 -319t-86 -395z" />
<glyph unicode="&#xc1;" horiz-adv-x="2611" d="M51 270q0 63 16.5 130t45 119t69.5 86t90 34q37 0 72 -20.5t61.5 -51t42 -68.5t15.5 -73t-17.5 -62.5t-52.5 -27.5q-27 0 -54.5 22.5t-27.5 57.5t43 39q10 0 21.5 -1t21.5 -1q0 16 -8 35.5t-21.5 36t-31 27.5t-37.5 11q-31 0 -52.5 -20.5t-34.5 -53t-19.5 -73.5t-6.5 -80 q0 -121 42 -218.5t112 -165t159 -104t185 -36.5q147 0 261 70.5t205 210.5t166 347t144 482q-57 4 -113.5 6t-111.5 2q-88 0 -119 -12q12 -10 17.5 -20.5t5.5 -20.5q0 -18 -13.5 -30.5t-42.5 -12.5q-41 0 -72.5 25.5t-31.5 64.5q0 37 25.5 57t61.5 30.5t73 12.5t59 2 q74 0 145.5 -4t139.5 -10q53 207 101 411.5t110 409.5q-10 45 -11.5 69.5t-1.5 45.5q0 39 15.5 57t32.5 18q20 0 32.5 -24.5t12.5 -65.5q0 -39 -7 -69q8 -43 18.5 -132.5t26 -208t36 -258t44.5 -282.5h11q41 0 82 6q31 33 67 33q23 0 39 -10.5t16 -26.5t-17 -28.5t-46 -20.5 t-65.5 -13t-73.5 -8q29 -158 64.5 -306t79.5 -262t97.5 -182.5t114.5 -68.5q43 0 82 24.5t66.5 62.5t44 85t16.5 94t-26.5 77t-90.5 34q6 -16 6 -31q0 -41 -37.5 -60.5t-74.5 -19.5q-35 0 -55.5 22t-20.5 56q0 37 16.5 64.5t42 46t58 28t63.5 9.5q43 0 85 -16.5t75 -46 t53.5 -69.5t20.5 -87q0 -66 -34 -133.5t-88.5 -121t-120 -87t-126.5 -33.5q-63 0 -113.5 31.5t-90.5 88t-69.5 132.5t-50.5 162q-29 113 -50 241.5t-40 263.5h-24q-131 0 -244 7q-10 -49 -21.5 -99.5t-23.5 -103.5q-72 -313 -155 -525t-185 -342.5t-228 -185.5t-286 -55 q-109 0 -213.5 47t-187 134t-133 209t-50.5 271zM1554 1006q59 -6 120 -11.5t120 -9.5q-12 106 -23.5 210.5t-21.5 200t-19.5 177.5t-17.5 147q-35 -147 -72 -319t-86 -395zM1620 2140q0 17 33 29q35 14 73.5 31.5t70.5 40t53.5 52t21.5 68.5q0 16 -4 32.5t-4 33.5 q0 31 18.5 44t36.5 13q35 0 59.5 -31.5t24.5 -74.5q0 -57 -37 -99.5t-90 -72t-111.5 -49t-101.5 -29.5q-6 -2 -18 -2q-25 0 -25 14z" />
<glyph unicode="&#xc2;" horiz-adv-x="2611" d="M51 270q0 63 16.5 130t45 119t69.5 86t90 34q37 0 72 -20.5t61.5 -51t42 -68.5t15.5 -73t-17.5 -62.5t-52.5 -27.5q-27 0 -54.5 22.5t-27.5 57.5t43 39q10 0 21.5 -1t21.5 -1q0 16 -8 35.5t-21.5 36t-31 27.5t-37.5 11q-31 0 -52.5 -20.5t-34.5 -53t-19.5 -73.5t-6.5 -80 q0 -121 42 -218.5t112 -165t159 -104t185 -36.5q147 0 261 70.5t205 210.5t166 347t144 482q-57 4 -113.5 6t-111.5 2q-88 0 -119 -12q12 -10 17.5 -20.5t5.5 -20.5q0 -18 -13.5 -30.5t-42.5 -12.5q-41 0 -72.5 25.5t-31.5 64.5q0 37 25.5 57t61.5 30.5t73 12.5t59 2 q74 0 145.5 -4t139.5 -10q53 207 101 411.5t110 409.5q-10 45 -11.5 69.5t-1.5 45.5q0 39 15.5 57t32.5 18q20 0 32.5 -24.5t12.5 -65.5q0 -39 -7 -69q8 -43 18.5 -132.5t26 -208t36 -258t44.5 -282.5h11q41 0 82 6q31 33 67 33q23 0 39 -10.5t16 -26.5t-17 -28.5t-46 -20.5 t-65.5 -13t-73.5 -8q29 -158 64.5 -306t79.5 -262t97.5 -182.5t114.5 -68.5q43 0 82 24.5t66.5 62.5t44 85t16.5 94t-26.5 77t-90.5 34q6 -16 6 -31q0 -41 -37.5 -60.5t-74.5 -19.5q-35 0 -55.5 22t-20.5 56q0 37 16.5 64.5t42 46t58 28t63.5 9.5q43 0 85 -16.5t75 -46 t53.5 -69.5t20.5 -87q0 -66 -34 -133.5t-88.5 -121t-120 -87t-126.5 -33.5q-63 0 -113.5 31.5t-90.5 88t-69.5 132.5t-50.5 162q-29 113 -50 241.5t-40 263.5h-24q-131 0 -244 7q-10 -49 -21.5 -99.5t-23.5 -103.5q-72 -313 -155 -525t-185 -342.5t-228 -185.5t-286 -55 q-109 0 -213.5 47t-187 134t-133 209t-50.5 271zM1520 2167q0 12 16 22q68 41 111 91.5t53 129.5q4 23 11 43.5t28 20.5q12 0 18 -13.5t9 -32t4.5 -40t5.5 -37.5q12 -57 55 -95t100 -54q51 -14 51 -29q-2 -18 -28.5 -29.5t-61.5 -11.5q-63 0 -115.5 40t-70.5 107 q-8 -16 -27.5 -38.5t-44 -43t-50 -35t-44.5 -14.5q-20 0 -20 19zM1554 1006q59 -6 120 -11.5t120 -9.5q-12 106 -23.5 210.5t-21.5 200t-19.5 177.5t-17.5 147q-35 -147 -72 -319t-86 -395z" />
<glyph unicode="&#xc3;" horiz-adv-x="2611" d="M51 270q0 63 16.5 130t45 119t69.5 86t90 34q37 0 72 -20.5t61.5 -51t42 -68.5t15.5 -73t-17.5 -62.5t-52.5 -27.5q-27 0 -54.5 22.5t-27.5 57.5t43 39q10 0 21.5 -1t21.5 -1q0 16 -8 35.5t-21.5 36t-31 27.5t-37.5 11q-31 0 -52.5 -20.5t-34.5 -53t-19.5 -73.5t-6.5 -80 q0 -121 42 -218.5t112 -165t159 -104t185 -36.5q147 0 261 70.5t205 210.5t166 347t144 482q-57 4 -113.5 6t-111.5 2q-88 0 -119 -12q12 -10 17.5 -20.5t5.5 -20.5q0 -18 -13.5 -30.5t-42.5 -12.5q-41 0 -72.5 25.5t-31.5 64.5q0 37 25.5 57t61.5 30.5t73 12.5t59 2 q74 0 145.5 -4t139.5 -10q53 207 101 411.5t110 409.5q-10 45 -11.5 69.5t-1.5 45.5q0 39 15.5 57t32.5 18q20 0 32.5 -24.5t12.5 -65.5q0 -39 -7 -69q8 -43 18.5 -132.5t26 -208t36 -258t44.5 -282.5h11q41 0 82 6q31 33 67 33q23 0 39 -10.5t16 -26.5t-17 -28.5t-46 -20.5 t-65.5 -13t-73.5 -8q29 -158 64.5 -306t79.5 -262t97.5 -182.5t114.5 -68.5q43 0 82 24.5t66.5 62.5t44 85t16.5 94t-26.5 77t-90.5 34q6 -16 6 -31q0 -41 -37.5 -60.5t-74.5 -19.5q-35 0 -55.5 22t-20.5 56q0 37 16.5 64.5t42 46t58 28t63.5 9.5q43 0 85 -16.5t75 -46 t53.5 -69.5t20.5 -87q0 -66 -34 -133.5t-88.5 -121t-120 -87t-126.5 -33.5q-63 0 -113.5 31.5t-90.5 88t-69.5 132.5t-50.5 162q-29 113 -50 241.5t-40 263.5h-24q-131 0 -244 7q-10 -49 -21.5 -99.5t-23.5 -103.5q-72 -313 -155 -525t-185 -342.5t-228 -185.5t-286 -55 q-109 0 -213.5 47t-187 134t-133 209t-50.5 271zM1458 2271q0 63 44 92t100 29q61 0 108 -25.5t86 -57.5t74 -57.5t76 -25.5q29 0 44 14.5t15 34.5t-12.5 34.5t-25.5 25t-25.5 18.5t-12.5 21q0 25 25 24q20 0 37.5 -12t28 -31.5t16.5 -42t6 -43.5q0 -39 -15.5 -67.5t-39 -48 t-52 -28.5t-55.5 -9q-55 0 -97 35.5t-79 78.5t-71 79t-68 36q-20 0 -37 -13.5t-17 -37.5q0 -18 11 -29q14 8 24 8q16 0 23.5 -12t7.5 -29q0 -20 -16.5 -33.5t-40.5 -13.5q-27 0 -44.5 25.5t-17.5 60.5zM1554 1006q59 -6 120 -11.5t120 -9.5q-12 106 -23.5 210.5t-21.5 200 t-19.5 177.5t-17.5 147q-35 -147 -72 -319t-86 -395z" />
<glyph unicode="&#xc4;" horiz-adv-x="2611" d="M51 270q0 63 16.5 130t45 119t69.5 86t90 34q37 0 72 -20.5t61.5 -51t42 -68.5t15.5 -73t-17.5 -62.5t-52.5 -27.5q-27 0 -54.5 22.5t-27.5 57.5t43 39q10 0 21.5 -1t21.5 -1q0 16 -8 35.5t-21.5 36t-31 27.5t-37.5 11q-31 0 -52.5 -20.5t-34.5 -53t-19.5 -73.5t-6.5 -80 q0 -121 42 -218.5t112 -165t159 -104t185 -36.5q147 0 261 70.5t205 210.5t166 347t144 482q-57 4 -113.5 6t-111.5 2q-88 0 -119 -12q12 -10 17.5 -20.5t5.5 -20.5q0 -18 -13.5 -30.5t-42.5 -12.5q-41 0 -72.5 25.5t-31.5 64.5q0 37 25.5 57t61.5 30.5t73 12.5t59 2 q74 0 145.5 -4t139.5 -10q53 207 101 411.5t110 409.5q-10 45 -11.5 69.5t-1.5 45.5q0 39 15.5 57t32.5 18q20 0 32.5 -24.5t12.5 -65.5q0 -39 -7 -69q8 -43 18.5 -132.5t26 -208t36 -258t44.5 -282.5h11q41 0 82 6q31 33 67 33q23 0 39 -10.5t16 -26.5t-17 -28.5t-46 -20.5 t-65.5 -13t-73.5 -8q29 -158 64.5 -306t79.5 -262t97.5 -182.5t114.5 -68.5q43 0 82 24.5t66.5 62.5t44 85t16.5 94t-26.5 77t-90.5 34q6 -16 6 -31q0 -41 -37.5 -60.5t-74.5 -19.5q-35 0 -55.5 22t-20.5 56q0 37 16.5 64.5t42 46t58 28t63.5 9.5q43 0 85 -16.5t75 -46 t53.5 -69.5t20.5 -87q0 -66 -34 -133.5t-88.5 -121t-120 -87t-126.5 -33.5q-63 0 -113.5 31.5t-90.5 88t-69.5 132.5t-50.5 162q-29 113 -50 241.5t-40 263.5h-24q-131 0 -244 7q-10 -49 -21.5 -99.5t-23.5 -103.5q-72 -313 -155 -525t-185 -342.5t-228 -185.5t-286 -55 q-109 0 -213.5 47t-187 134t-133 209t-50.5 271zM1554 1006q59 -6 120 -11.5t120 -9.5q-12 106 -23.5 210.5t-21.5 200t-19.5 177.5t-17.5 147q-35 -147 -72 -319t-86 -395zM1565 2220q0 17 4 25q2 27 20.5 53t46.5 26q29 0 40.5 -27.5t11.5 -55.5q0 -25 -20.5 -54.5 t-49.5 -29.5q-25 0 -39 20.5t-14 42.5zM1739 2216q0 18 8 39.5t22.5 40t33 31t38.5 12.5q37 0 57.5 -25.5t20.5 -66.5q0 -14 -4 -35t-13.5 -39.5t-24.5 -31.5t-40 -13q-35 0 -66.5 23.5t-31.5 64.5zM1806 2241q14 -12 19.5 -23t9.5 -27q18 4 23.5 18.5t5.5 31.5 q0 16 -4.5 29.5t-20.5 13.5q-10 -2 -18.5 -14.5t-14.5 -28.5z" />
<glyph unicode="&#xc5;" horiz-adv-x="2611" d="M51 270q0 63 16.5 130t45 119t69.5 86t90 34q37 0 72 -20.5t61.5 -51t42 -68.5t15.5 -73t-17.5 -62.5t-52.5 -27.5q-27 0 -54.5 22.5t-27.5 57.5t43 39q10 0 21.5 -1t21.5 -1q0 16 -8 35.5t-21.5 36t-31 27.5t-37.5 11q-31 0 -52.5 -20.5t-34.5 -53t-19.5 -73.5t-6.5 -80 q0 -121 42 -218.5t112 -165t159 -104t185 -36.5q147 0 261 70.5t205 210.5t166 347t144 482q-57 4 -113.5 6t-111.5 2q-88 0 -119 -12q12 -10 17.5 -20.5t5.5 -20.5q0 -18 -13.5 -30.5t-42.5 -12.5q-41 0 -72.5 25.5t-31.5 64.5q0 37 25.5 57t61.5 30.5t73 12.5t59 2 q74 0 145.5 -4t139.5 -10q53 207 101 411.5t110 409.5q-10 45 -11.5 69.5t-1.5 45.5q0 39 15.5 57t32.5 18q20 0 32.5 -24.5t12.5 -65.5q0 -39 -7 -69q8 -43 18.5 -132.5t26 -208t36 -258t44.5 -282.5h11q41 0 82 6q31 33 67 33q23 0 39 -10.5t16 -26.5t-17 -28.5t-46 -20.5 t-65.5 -13t-73.5 -8q29 -158 64.5 -306t79.5 -262t97.5 -182.5t114.5 -68.5q43 0 82 24.5t66.5 62.5t44 85t16.5 94t-26.5 77t-90.5 34q6 -16 6 -31q0 -41 -37.5 -60.5t-74.5 -19.5q-35 0 -55.5 22t-20.5 56q0 37 16.5 64.5t42 46t58 28t63.5 9.5q43 0 85 -16.5t75 -46 t53.5 -69.5t20.5 -87q0 -66 -34 -133.5t-88.5 -121t-120 -87t-126.5 -33.5q-63 0 -113.5 31.5t-90.5 88t-69.5 132.5t-50.5 162q-29 113 -50 241.5t-40 263.5h-24q-131 0 -244 7q-10 -49 -21.5 -99.5t-23.5 -103.5q-72 -313 -155 -525t-185 -342.5t-228 -185.5t-286 -55 q-109 0 -213.5 47t-187 134t-133 209t-50.5 271zM1554 1006q59 -6 120 -11.5t120 -9.5q-12 106 -23.5 210.5t-21.5 200t-19.5 177.5t-17.5 147q-35 -147 -72 -319t-86 -395zM1569 2281q0 53 35 84t82 45q33 33 83 33q61 0 92 -44t31 -101q0 -82 -40 -119t-111 -37 q-33 0 -63.5 7.5t-55.5 24.5t-39 44t-14 63zM1624 2281q0 -29 26.5 -47t75.5 -18q39 0 66 15.5t27 58.5q0 20 -8.5 48.5t-36.5 28.5q-20 0 -31.5 -11t-26.5 -11q-14 0 -28 16q-35 -16 -49.5 -37.5t-14.5 -42.5z" />
<glyph unicode="&#xc6;" horiz-adv-x="3950" d="M20 270q0 63 16.5 130t45.5 119t70 86t90 34q37 0 71.5 -20.5t61 -51t42 -68.5t15.5 -73t-17.5 -62.5t-52.5 -27.5q-27 0 -54 22.5t-27 57.5t43 39q10 0 21 -1t22 -1q0 16 -8.5 35.5t-21.5 36t-30.5 27.5t-38.5 11q-31 0 -52 -20.5t-34.5 -53t-19.5 -73.5t-6 -80 q0 -121 42 -218.5t111.5 -165t158.5 -104t185 -36.5q147 0 261 70.5t205 210.5t166 347t145 482q-59 4 -114.5 6t-111.5 2q-88 0 -119 -12q12 -10 17.5 -20.5t5.5 -20.5q0 -18 -13.5 -30.5t-41.5 -12.5q-41 0 -73 25.5t-32 64.5q0 37 25.5 57t61.5 30.5t73 12.5t59 2 q74 0 145.5 -4t139.5 -10q53 207 101.5 411.5t109.5 409.5q-10 45 -11 69.5t-1 45.5q0 39 15 57t32 18q20 0 32.5 -24.5t12.5 -65.5q0 -39 -6 -69q6 -35 14 -100.5t18 -145.5q31 74 84.5 130t125 96t159.5 60.5t186 20.5q55 0 133 -5t167.5 -10t181.5 -10.5t172 -5.5 q117 0 232.5 9.5t213.5 35.5q2 25 10.5 50.5t23.5 47t36.5 35t50.5 13.5q35 0 62.5 -22.5t27.5 -59.5q0 -20 -11 -36.5t-28.5 -30t-38 -23.5t-36.5 -19q2 -41 13 -73.5t23.5 -59t22.5 -46t10 -32.5q0 -25 -15.5 -31.5t-29.5 -6.5q-35 0 -57.5 22.5t-36.5 55t-20.5 71.5 t-8.5 70q-172 -51 -373 -52q-70 0 -138 4.5t-136 8.5q-2 -23 -2 -46.5v-47.5q0 -180 13.5 -376t17.5 -368q76 35 149.5 70t151.5 35q72 0 101.5 -35t29.5 -84q0 -25 -9.5 -48.5t-24.5 -43t-34.5 -31.5t-40.5 -12q-43 0 -61.5 28.5t-18.5 59.5q0 37 17 65q-55 -2 -122 -28.5 t-138 -53.5q-2 -205 -40 -360.5t-116 -296.5q166 -61 292 -106.5t227.5 -74t184 -43t162.5 -14.5q109 0 175.5 44t66.5 124q0 35 -12.5 64.5t-38.5 46.5q4 -16 4 -21q0 -29 -25.5 -44t-56.5 -15q-47 4 -72.5 35t-25.5 67q0 37 26.5 60.5t69.5 23.5q45 0 85 -20.5t70.5 -54 t48 -76.5t17.5 -86q0 -78 -39 -138.5t-98 -100.5t-130 -60.5t-136 -20.5q-96 0 -209 30t-228.5 76t-226 100t-203.5 104q-31 -31 -67.5 -48.5t-75.5 -17.5q-20 0 -31 2q-49 -43 -106.5 -68.5t-110.5 -25.5q-63 0 -113.5 31.5t-90 88t-69.5 132.5t-50 162 q-29 113 -50.5 241.5t-39.5 263.5q-86 0 -148.5 1t-120.5 6q-10 -49 -21.5 -99.5t-23.5 -103.5q-72 -313 -154.5 -525t-185 -342.5t-228.5 -185.5t-286 -55q-109 0 -213 47t-187 134t-133.5 209t-50.5 271zM1524 1006q61 -4 120.5 -10.5t118.5 -10.5q-12 106 -23 210.5 t-21.5 200t-19.5 177.5t-18 147q-35 -147 -71.5 -319t-85.5 -395zM1833 1155q8 -43 14 -86t15 -86q51 0 92 6q31 33 67 33q23 0 39.5 -10.5t16.5 -26.5t-17.5 -28.5t-46 -20.5t-65.5 -13t-74 -8q29 -158 64.5 -306t79.5 -262t97.5 -182.5t114.5 -68.5q51 0 97 35 q-39 39 -39 92q0 37 25.5 65.5t82.5 28.5q10 0 19.5 -1t19.5 -3q2 12 3 24.5t1 24.5q0 47 -26.5 77t-90.5 34q6 -16 7 -31q0 -41 -38 -60.5t-75 -19.5q-35 0 -55.5 22t-20.5 56q0 37 16.5 64.5t42 46t58.5 28t63 9.5q43 0 85 -16.5t75 -46t53.5 -69.5t20.5 -87 q0 -23 -4 -43.5t-10 -40.5q27 53 46 100t34.5 96t25.5 103.5t20 120.5q6 41 9.5 83.5t7.5 88.5q-35 -6 -70 -7q-14 0 -32.5 1t-34 6.5t-25.5 13.5t-10 20q0 25 33 25q14 0 30.5 -1t32.5 -1q35 0 80 10q4 111 4 223.5t1 224t7 222t25 215.5q-98 10 -193.5 17t-187.5 7 q-72 0 -150.5 -18t-146.5 -63.5t-112 -121t-44 -188.5q0 -53 14.5 -102t44 -88t74 -62.5t103.5 -23.5q0 78 37 136t114 58q70 0 97.5 -40t27.5 -80q0 -55 -23.5 -96.5t-63.5 -70t-92 -43t-112 -14.5q-92 0 -161.5 33t-116.5 86zM2204 1194q20 0 46.5 6t26.5 33q0 10 -7 20.5 t-21 10.5q-16 0 -28.5 -16.5t-16.5 -53.5zM3097 958q0 -14 5 -26t21 -12q23 0 23 22q-4 14 -17.5 26.5t-29.5 12.5q-2 -8 -2 -23z" />
<glyph unicode="&#xc7;" horiz-adv-x="1445" d="M96 866q0 104 18.5 227.5t57.5 248t99.5 239.5t142.5 205t187.5 143t236.5 53q109 0 203 -50t162.5 -129t107.5 -176t39 -191q0 -57 -15.5 -108.5t-44 -90.5t-67.5 -62.5t-84 -23.5q-86 0 -86 113q0 45 13 86t33.5 75.5t44 64t46.5 54.5q-23 49 -59.5 112.5t-86 120 t-107.5 95.5t-124 39q-76 0 -154 -72q-74 -70 -135 -186.5t-104 -259t-67.5 -299t-24.5 -303.5q0 -156 33.5 -286t101 -223.5t169 -144.5t236.5 -51q74 0 143.5 25.5t125 71.5t93.5 107.5t46 135.5q4 27 14 39t21 12q10 0 19 -12t9 -41q0 -115 -43 -201t-114.5 -144.5 t-167.5 -87t-203 -28.5q-14 0 -26.5 1t-26.5 1q-14 -27 -15 -47q0 -31 35 -44t76 -29.5t76 -48.5t35 -95q0 -70 -48.5 -115t-134.5 -45q-63 0 -110 30t-47 81q0 37 29.5 64.5t72.5 27.5q31 0 51.5 -17.5t20.5 -39.5q0 -29 -27 -49q4 0 10 -1.5t11 -1.5q47 0 67.5 23t20.5 57 q0 45 -28 66.5t-59.5 37t-59 33t-27.5 58.5q0 27 14 59q-156 16 -272.5 93t-195.5 197t-118 275.5t-39 331.5zM215 950q0 -240 84 -432q-12 59 -17.5 124t-5.5 134q0 164 30 337t84 326.5t128 274.5t160 180q-106 -35 -191.5 -129t-145.5 -224t-93 -283.5t-33 -307.5z M1114 1249q0 -43 23 -43q18 0 34.5 14.5t31 38t22.5 54t8 65.5q0 33 -6.5 62.5t-16.5 54.5q-35 -51 -65.5 -118.5t-30.5 -127.5z" />
<glyph unicode="&#xc8;" horiz-adv-x="2199" d="M70 1432q0 115 44 207t122.5 155.5t187 97t235.5 33.5q55 0 133 -5t167.5 -10t181.5 -10.5t172 -5.5q117 0 232.5 9.5t213.5 35.5q2 25 10.5 50.5t23.5 47t36.5 35t50.5 13.5q35 0 62.5 -22.5t27.5 -59.5q0 -20 -11 -36.5t-28.5 -30t-38 -23.5t-37.5 -19 q2 -41 13.5 -73.5t24 -59t22.5 -46t10 -32.5q0 -25 -15.5 -31.5t-29.5 -6.5q-35 0 -57.5 22.5t-36.5 55t-20.5 71.5t-8.5 70q-172 -51 -373 -52q-70 0 -138 4.5t-136 8.5q-2 -23 -2 -46.5v-47.5q0 -180 13.5 -376t17.5 -368q76 35 149.5 70t151.5 35q72 0 101.5 -35 t29.5 -84q0 -25 -9.5 -48.5t-24.5 -43t-34.5 -31.5t-40.5 -12q-43 0 -61.5 28.5t-18.5 59.5q1 36 17 65q-55 -2 -122 -28.5t-138 -53.5q-2 -205 -40 -360.5t-116 -296.5q166 -61 292 -106.5t227.5 -74t184 -43t162.5 -14.5q109 0 175.5 44t66.5 124q0 35 -12.5 64.5 t-38.5 46.5q4 -16 4 -21q0 -29 -25.5 -44t-56.5 -15q-47 4 -72.5 35t-25.5 67q0 37 26.5 60.5t69.5 23.5q45 0 85 -20.5t70.5 -54t48 -76.5t17.5 -86q0 -78 -39 -138.5t-98 -100.5t-130 -60.5t-136 -20.5q-96 0 -209 30t-228.5 76t-226 100t-203.5 104q-31 -31 -67.5 -48.5 t-75.5 -17.5q-66 0 -105.5 44t-39.5 93q0 37 25.5 65.5t82.5 28.5q37 0 73 -11t70 -21q27 53 46.5 100t35 96t25.5 103.5t20 120.5q6 41 9.5 83.5t7.5 88.5q-35 -6 -70 -7q-14 0 -32.5 1t-34 6.5t-25.5 13.5t-10 20q0 25 33 25q14 0 30.5 -1t32.5 -1q35 0 80 10 q4 111 4 223.5t1 224t7 222t25 215.5q-98 10 -193.5 17t-187.5 7q-72 0 -150.5 -18t-146.5 -63.5t-112 -121t-44 -188.5q0 -53 14.5 -102t44 -88t73.5 -62.5t104 -23.5q0 78 37 136t114 58q70 0 97.5 -40t27.5 -80q0 -55 -23.5 -96.5t-63.5 -70t-92 -43t-112 -14.5 q-90 0 -160.5 33t-118.5 87t-72.5 126t-24.5 150zM539 1194q20 0 46.5 6t26.5 33q0 10 -7 20.5t-21 10.5q-16 0 -28.5 -16.5t-16.5 -53.5zM719 215q0 -10 14.5 -21.5t32.5 -11.5q22 0 49 23q-39 25 -78 24q-18 0 -18 -14zM1059 2302q0 45 19.5 78t60.5 33q31 0 43 -20.5 t12 -39.5q0 -29 -11.5 -54.5t-11.5 -53.5q0 -23 14.5 -49.5t53.5 -55.5q25 -18 48.5 -27.5t44 -15.5t32.5 -13t12 -20q0 -14 -33 -14q-18 0 -46.5 7.5t-67.5 23.5q-29 12 -58.5 31.5t-54 46t-41 62.5t-16.5 81zM1432 958q0 -14 5 -26t21 -12q23 0 23 22q-4 14 -17.5 26.5 t-29.5 12.5q-2 -8 -2 -23z" />
<glyph unicode="&#xc9;" horiz-adv-x="2199" d="M70 1432q0 115 44 207t122.5 155.5t187 97t235.5 33.5q55 0 133 -5t167.5 -10t181.5 -10.5t172 -5.5q117 0 232.5 9.5t213.5 35.5q2 25 10.5 50.5t23.5 47t36.5 35t50.5 13.5q35 0 62.5 -22.5t27.5 -59.5q0 -20 -11 -36.5t-28.5 -30t-38 -23.5t-37.5 -19 q2 -41 13.5 -73.5t24 -59t22.5 -46t10 -32.5q0 -25 -15.5 -31.5t-29.5 -6.5q-35 0 -57.5 22.5t-36.5 55t-20.5 71.5t-8.5 70q-172 -51 -373 -52q-70 0 -138 4.5t-136 8.5q-2 -23 -2 -46.5v-47.5q0 -180 13.5 -376t17.5 -368q76 35 149.5 70t151.5 35q72 0 101.5 -35 t29.5 -84q0 -25 -9.5 -48.5t-24.5 -43t-34.5 -31.5t-40.5 -12q-43 0 -61.5 28.5t-18.5 59.5q1 36 17 65q-55 -2 -122 -28.5t-138 -53.5q-2 -205 -40 -360.5t-116 -296.5q166 -61 292 -106.5t227.5 -74t184 -43t162.5 -14.5q109 0 175.5 44t66.5 124q0 35 -12.5 64.5 t-38.5 46.5q4 -16 4 -21q0 -29 -25.5 -44t-56.5 -15q-47 4 -72.5 35t-25.5 67q0 37 26.5 60.5t69.5 23.5q45 0 85 -20.5t70.5 -54t48 -76.5t17.5 -86q0 -78 -39 -138.5t-98 -100.5t-130 -60.5t-136 -20.5q-96 0 -209 30t-228.5 76t-226 100t-203.5 104q-31 -31 -67.5 -48.5 t-75.5 -17.5q-66 0 -105.5 44t-39.5 93q0 37 25.5 65.5t82.5 28.5q37 0 73 -11t70 -21q27 53 46.5 100t35 96t25.5 103.5t20 120.5q6 41 9.5 83.5t7.5 88.5q-35 -6 -70 -7q-14 0 -32.5 1t-34 6.5t-25.5 13.5t-10 20q0 25 33 25q14 0 30.5 -1t32.5 -1q35 0 80 10 q4 111 4 223.5t1 224t7 222t25 215.5q-98 10 -193.5 17t-187.5 7q-72 0 -150.5 -18t-146.5 -63.5t-112 -121t-44 -188.5q0 -53 14.5 -102t44 -88t73.5 -62.5t104 -23.5q0 78 37 136t114 58q70 0 97.5 -40t27.5 -80q0 -55 -23.5 -96.5t-63.5 -70t-92 -43t-112 -14.5 q-90 0 -160.5 33t-118.5 87t-72.5 126t-24.5 150zM539 1194q20 0 46.5 6t26.5 33q0 10 -7 20.5t-21 10.5q-16 0 -28.5 -16.5t-16.5 -53.5zM719 215q0 -10 14.5 -21.5t32.5 -11.5q22 0 49 23q-39 25 -78 24q-18 0 -18 -14zM1214 2079q0 16 33 28q35 14 74 32t70.5 40.5t53 52 t21.5 68.5q0 16 -4 32.5t-4 32.5q0 31 18.5 44.5t36.5 13.5q35 0 59.5 -32t24.5 -75q0 -57 -36.5 -99t-90 -71.5t-112 -49t-101.5 -30.5q-6 -2 -18 -2q-25 0 -25 15zM1432 958q0 -14 5 -26t21 -12q23 0 23 22q-4 14 -17.5 26.5t-29.5 12.5q-2 -8 -2 -23z" />
<glyph unicode="&#xca;" horiz-adv-x="2199" d="M70 1432q0 115 44 207t122.5 155.5t187 97t235.5 33.5q55 0 133 -5t167.5 -10t181.5 -10.5t172 -5.5q117 0 232.5 9.5t213.5 35.5q2 25 10.5 50.5t23.5 47t36.5 35t50.5 13.5q35 0 62.5 -22.5t27.5 -59.5q0 -20 -11 -36.5t-28.5 -30t-38 -23.5t-37.5 -19 q2 -41 13.5 -73.5t24 -59t22.5 -46t10 -32.5q0 -25 -15.5 -31.5t-29.5 -6.5q-35 0 -57.5 22.5t-36.5 55t-20.5 71.5t-8.5 70q-172 -51 -373 -52q-70 0 -138 4.5t-136 8.5q-2 -23 -2 -46.5v-47.5q0 -180 13.5 -376t17.5 -368q76 35 149.5 70t151.5 35q72 0 101.5 -35 t29.5 -84q0 -25 -9.5 -48.5t-24.5 -43t-34.5 -31.5t-40.5 -12q-43 0 -61.5 28.5t-18.5 59.5q1 36 17 65q-55 -2 -122 -28.5t-138 -53.5q-2 -205 -40 -360.5t-116 -296.5q166 -61 292 -106.5t227.5 -74t184 -43t162.5 -14.5q109 0 175.5 44t66.5 124q0 35 -12.5 64.5 t-38.5 46.5q4 -16 4 -21q0 -29 -25.5 -44t-56.5 -15q-47 4 -72.5 35t-25.5 67q0 37 26.5 60.5t69.5 23.5q45 0 85 -20.5t70.5 -54t48 -76.5t17.5 -86q0 -78 -39 -138.5t-98 -100.5t-130 -60.5t-136 -20.5q-96 0 -209 30t-228.5 76t-226 100t-203.5 104q-31 -31 -67.5 -48.5 t-75.5 -17.5q-66 0 -105.5 44t-39.5 93q0 37 25.5 65.5t82.5 28.5q37 0 73 -11t70 -21q27 53 46.5 100t35 96t25.5 103.5t20 120.5q6 41 9.5 83.5t7.5 88.5q-35 -6 -70 -7q-14 0 -32.5 1t-34 6.5t-25.5 13.5t-10 20q0 25 33 25q14 0 30.5 -1t32.5 -1q35 0 80 10 q4 111 4 223.5t1 224t7 222t25 215.5q-98 10 -193.5 17t-187.5 7q-72 0 -150.5 -18t-146.5 -63.5t-112 -121t-44 -188.5q0 -53 14.5 -102t44 -88t73.5 -62.5t104 -23.5q0 78 37 136t114 58q70 0 97.5 -40t27.5 -80q0 -55 -23.5 -96.5t-63.5 -70t-92 -43t-112 -14.5 q-90 0 -160.5 33t-118.5 87t-72.5 126t-24.5 150zM539 1194q20 0 46.5 6t26.5 33q0 10 -7 20.5t-21 10.5q-16 0 -28.5 -16.5t-16.5 -53.5zM719 215q0 -10 14.5 -21.5t32.5 -11.5q22 0 49 23q-39 25 -78 24q-18 0 -18 -14zM1051 2146q0 13 16 23q68 41 111 91t53 130 q4 23 11 43.5t28 20.5q12 0 18 -13.5t9 -32t4.5 -40t5.5 -37.5q12 -57 55 -95t100 -55q51 -14 51 -29q-2 -18 -28.5 -29.5t-61.5 -11.5q-63 0 -115.5 40t-70.5 108q-8 -16 -27.5 -38.5t-44 -43t-50 -35t-44.5 -14.5q-20 0 -20 18zM1432 958q0 -14 5 -26t21 -12q23 0 23 22 q-4 14 -17.5 26.5t-29.5 12.5q-2 -8 -2 -23z" />
<glyph unicode="&#xcb;" horiz-adv-x="2199" d="M70 1432q0 115 44 207t122.5 155.5t187 97t235.5 33.5q55 0 133 -5t167.5 -10t181.5 -10.5t172 -5.5q117 0 232.5 9.5t213.5 35.5q2 25 10.5 50.5t23.5 47t36.5 35t50.5 13.5q35 0 62.5 -22.5t27.5 -59.5q0 -20 -11 -36.5t-28.5 -30t-38 -23.5t-37.5 -19 q2 -41 13.5 -73.5t24 -59t22.5 -46t10 -32.5q0 -25 -15.5 -31.5t-29.5 -6.5q-35 0 -57.5 22.5t-36.5 55t-20.5 71.5t-8.5 70q-172 -51 -373 -52q-70 0 -138 4.5t-136 8.5q-2 -23 -2 -46.5v-47.5q0 -180 13.5 -376t17.5 -368q76 35 149.5 70t151.5 35q72 0 101.5 -35 t29.5 -84q0 -25 -9.5 -48.5t-24.5 -43t-34.5 -31.5t-40.5 -12q-43 0 -61.5 28.5t-18.5 59.5q1 36 17 65q-55 -2 -122 -28.5t-138 -53.5q-2 -205 -40 -360.5t-116 -296.5q166 -61 292 -106.5t227.5 -74t184 -43t162.5 -14.5q109 0 175.5 44t66.5 124q0 35 -12.5 64.5 t-38.5 46.5q4 -16 4 -21q0 -29 -25.5 -44t-56.5 -15q-47 4 -72.5 35t-25.5 67q0 37 26.5 60.5t69.5 23.5q45 0 85 -20.5t70.5 -54t48 -76.5t17.5 -86q0 -78 -39 -138.5t-98 -100.5t-130 -60.5t-136 -20.5q-96 0 -209 30t-228.5 76t-226 100t-203.5 104q-31 -31 -67.5 -48.5 t-75.5 -17.5q-66 0 -105.5 44t-39.5 93q0 37 25.5 65.5t82.5 28.5q37 0 73 -11t70 -21q27 53 46.5 100t35 96t25.5 103.5t20 120.5q6 41 9.5 83.5t7.5 88.5q-35 -6 -70 -7q-14 0 -32.5 1t-34 6.5t-25.5 13.5t-10 20q0 25 33 25q14 0 30.5 -1t32.5 -1q35 0 80 10 q4 111 4 223.5t1 224t7 222t25 215.5q-98 10 -193.5 17t-187.5 7q-72 0 -150.5 -18t-146.5 -63.5t-112 -121t-44 -188.5q0 -53 14.5 -102t44 -88t73.5 -62.5t104 -23.5q0 78 37 136t114 58q70 0 97.5 -40t27.5 -80q0 -55 -23.5 -96.5t-63.5 -70t-92 -43t-112 -14.5 q-90 0 -160.5 33t-118.5 87t-72.5 126t-24.5 150zM539 1194q20 0 46.5 6t26.5 33q0 10 -7 20.5t-21 10.5q-16 0 -28.5 -16.5t-16.5 -53.5zM719 215q0 -10 14.5 -21.5t32.5 -11.5q22 0 49 23q-39 25 -78 24q-18 0 -18 -14zM1147 2171q0 16 4 24q2 27 20.5 53.5t47.5 26.5 t40 -27.5t11 -56.5q0 -25 -20.5 -54.5t-49.5 -29.5q-25 0 -39 20.5t-14 43.5zM1321 2167q0 18 8 39.5t22.5 40t33 31t38.5 12.5q37 0 57.5 -26t20.5 -66q0 -14 -4 -35t-13 -39.5t-24.5 -31.5t-40.5 -13q-35 0 -66.5 23.5t-31.5 64.5zM1389 2191q14 -12 19 -22.5t9 -26.5 q18 4 23.5 18.5t5.5 30.5t-4 29.5t-21 13.5q-10 -2 -18 -14t-14 -29zM1432 958q0 -14 5 -26t21 -12q23 0 23 22q-4 14 -17.5 26.5t-29.5 12.5q-2 -8 -2 -23z" />
<glyph unicode="&#xcc;" horiz-adv-x="1347" d="M63 1493q0 117 40 206t114 149.5t179.5 90t234.5 29.5q102 0 198.5 -7t159.5 -9q23 45 60.5 87t93.5 42q41 0 63.5 -25.5t22.5 -66.5q0 -45 -44 -68t-122 -31q8 -84 30.5 -219t46 -298t42 -339t18.5 -344q0 -39 -2 -106.5t-11 -146.5t-27.5 -159.5t-52.5 -146t-85 -106.5 t-125 -41q-47 0 -93 16t-83 46t-59.5 69t-22.5 86q0 53 30.5 84.5t84.5 31.5q39 0 68.5 -25.5t29.5 -60.5t-22.5 -68.5t-53.5 -51.5q25 -20 53.5 -32.5t63.5 -12.5q59 0 83.5 48t24.5 132q0 113 -18 255t-39.5 294.5t-40 309.5t-18.5 302q0 123 17.5 244t64.5 237 q-61 -2 -146.5 -5t-177.5 -16.5t-182 -40t-161 -73.5t-115 -116.5t-44 -170.5q0 -35 11.5 -84t38 -96t66.5 -79.5t99 -32.5q61 0 92 37.5t31 82.5q0 16 -2 25q-23 -12 -51 -12q-31 0 -63.5 19.5t-32.5 66.5q0 39 32.5 73.5t90.5 34.5q57 0 95 -50t38 -122q0 -43 -17.5 -82 t-48.5 -68.5t-70.5 -48t-84.5 -18.5q-78 0 -135.5 38t-94.5 95.5t-54.5 124t-17.5 123.5zM414 1397q2 -12 20 -13q17 1 25 11q-8 25 -29 24q-10 0 -13 -7t-3 -15zM623 2384q0 45 19.5 77.5t59.5 32.5q31 0 43.5 -20t12.5 -39q0 -29 -11.5 -54.5t-11.5 -53.5 q0 -23 14.5 -49.5t53.5 -55.5q25 -18 48 -27.5t43.5 -15.5t33 -13t12.5 -20q0 -14 -33 -14q-18 0 -46.5 7.5t-67.5 23.5q-29 12 -58.5 31.5t-54.5 46t-41 62.5t-16 81zM948 1458q0 -170 18.5 -335t41 -319.5t41 -294.5t18.5 -261q12 53 17.5 112.5t5.5 120.5 q0 160 -13.5 340t-31 359.5t-34 345.5t-22.5 297q-23 -84 -32 -175.5t-9 -189.5zM1061 1960q14 0 31.5 1t33 5t25.5 12.5t10 22.5q0 23 -22 22q-27 0 -44.5 -18t-33.5 -45z" />
<glyph unicode="&#xcd;" horiz-adv-x="1347" d="M63 1493q0 117 40 206t114 149.5t179.5 90t234.5 29.5q102 0 198.5 -7t159.5 -9q23 45 60.5 87t93.5 42q41 0 63.5 -25.5t22.5 -66.5q0 -45 -44 -68t-122 -31q8 -84 30.5 -219t46 -298t42 -339t18.5 -344q0 -39 -2 -106.5t-11 -146.5t-27.5 -159.5t-52.5 -146t-85 -106.5 t-125 -41q-47 0 -93 16t-83 46t-59.5 69t-22.5 86q0 53 30.5 84.5t84.5 31.5q39 0 68.5 -25.5t29.5 -60.5t-22.5 -68.5t-53.5 -51.5q25 -20 53.5 -32.5t63.5 -12.5q59 0 83.5 48t24.5 132q0 113 -18 255t-39.5 294.5t-40 309.5t-18.5 302q0 123 17.5 244t64.5 237 q-61 -2 -146.5 -5t-177.5 -16.5t-182 -40t-161 -73.5t-115 -116.5t-44 -170.5q0 -35 11.5 -84t38 -96t66.5 -79.5t99 -32.5q61 0 92 37.5t31 82.5q0 16 -2 25q-23 -12 -51 -12q-31 0 -63.5 19.5t-32.5 66.5q0 39 32.5 73.5t90.5 34.5q57 0 95 -50t38 -122q0 -43 -17.5 -82 t-48.5 -68.5t-70.5 -48t-84.5 -18.5q-78 0 -135.5 38t-94.5 95.5t-54.5 124t-17.5 123.5zM414 1397q2 -12 20 -13q17 1 25 11q-8 25 -29 24q-10 0 -13 -7t-3 -15zM754 2140q-1 17 32 29q35 14 74 31.5t71 40t53.5 52t21.5 68.5q0 16 -4.5 32.5t-4.5 33.5q0 31 18.5 44 t37.5 13q35 0 59.5 -31.5t24.5 -74.5q0 -57 -37 -99.5t-90.5 -72t-111.5 -49t-101 -29.5q-6 -2 -19 -2q-25 0 -24 14zM948 1458q0 -170 18.5 -335t41 -319.5t41 -294.5t18.5 -261q12 53 17.5 112.5t5.5 120.5q0 160 -13.5 340t-31 359.5t-34 345.5t-22.5 297 q-23 -84 -32 -175.5t-9 -189.5zM1061 1960q14 0 31.5 1t33 5t25.5 12.5t10 22.5q0 23 -22 22q-27 0 -44.5 -18t-33.5 -45z" />
<glyph unicode="&#xce;" horiz-adv-x="1347" d="M63 1493q0 117 40 206t114 149.5t179.5 90t234.5 29.5q102 0 198.5 -7t159.5 -9q23 45 60.5 87t93.5 42q41 0 63.5 -25.5t22.5 -66.5q0 -45 -44 -68t-122 -31q8 -84 30.5 -219t46 -298t42 -339t18.5 -344q0 -39 -2 -106.5t-11 -146.5t-27.5 -159.5t-52.5 -146t-85 -106.5 t-125 -41q-47 0 -93 16t-83 46t-59.5 69t-22.5 86q0 53 30.5 84.5t84.5 31.5q39 0 68.5 -25.5t29.5 -60.5t-22.5 -68.5t-53.5 -51.5q25 -20 53.5 -32.5t63.5 -12.5q59 0 83.5 48t24.5 132q0 113 -18 255t-39.5 294.5t-40 309.5t-18.5 302q0 123 17.5 244t64.5 237 q-61 -2 -146.5 -5t-177.5 -16.5t-182 -40t-161 -73.5t-115 -116.5t-44 -170.5q0 -35 11.5 -84t38 -96t66.5 -79.5t99 -32.5q61 0 92 37.5t31 82.5q0 16 -2 25q-23 -12 -51 -12q-31 0 -63.5 19.5t-32.5 66.5q0 39 32.5 73.5t90.5 34.5q57 0 95 -50t38 -122q0 -43 -17.5 -82 t-48.5 -68.5t-70.5 -48t-84.5 -18.5q-78 0 -135.5 38t-94.5 95.5t-54.5 124t-17.5 123.5zM414 1397q2 -12 20 -13q17 1 25 11q-8 25 -29 24q-10 0 -13 -7t-3 -15zM612 2187q1 13 17 23q68 41 110.5 91t53.5 130q4 23 11 43t27 20q12 0 18.5 -13t9.5 -31.5t4 -40t5 -37.5 q12 -57 55.5 -95.5t100.5 -54.5q51 -14 51 -29q-2 -18 -28.5 -29.5t-61.5 -11.5q-63 0 -115.5 40t-70.5 108q-8 -16 -27.5 -39t-44.5 -43t-50.5 -34.5t-43.5 -14.5q-20 0 -21 18zM948 1458q0 -170 18.5 -335t41 -319.5t41 -294.5t18.5 -261q12 53 17.5 112.5t5.5 120.5 q0 160 -13.5 340t-31 359.5t-34 345.5t-22.5 297q-23 -84 -32 -175.5t-9 -189.5zM1061 1960q14 0 31.5 1t33 5t25.5 12.5t10 22.5q0 23 -22 22q-27 0 -44.5 -18t-33.5 -45z" />
<glyph unicode="&#xcf;" horiz-adv-x="1347" d="M63 1493q0 117 40 206t114 149.5t179.5 90t234.5 29.5q102 0 198.5 -7t159.5 -9q23 45 60.5 87t93.5 42q41 0 63.5 -25.5t22.5 -66.5q0 -45 -44 -68t-122 -31q8 -84 30.5 -219t46 -298t42 -339t18.5 -344q0 -39 -2 -106.5t-11 -146.5t-27.5 -159.5t-52.5 -146t-85 -106.5 t-125 -41q-47 0 -93 16t-83 46t-59.5 69t-22.5 86q0 53 30.5 84.5t84.5 31.5q39 0 68.5 -25.5t29.5 -60.5t-22.5 -68.5t-53.5 -51.5q25 -20 53.5 -32.5t63.5 -12.5q59 0 83.5 48t24.5 132q0 113 -18 255t-39.5 294.5t-40 309.5t-18.5 302q0 123 17.5 244t64.5 237 q-61 -2 -146.5 -5t-177.5 -16.5t-182 -40t-161 -73.5t-115 -116.5t-44 -170.5q0 -35 11.5 -84t38 -96t66.5 -79.5t99 -32.5q61 0 92 37.5t31 82.5q0 16 -2 25q-23 -12 -51 -12q-31 0 -63.5 19.5t-32.5 66.5q0 39 32.5 73.5t90.5 34.5q57 0 95 -50t38 -122q0 -43 -17.5 -82 t-48.5 -68.5t-70.5 -48t-84.5 -18.5q-78 0 -135.5 38t-94.5 95.5t-54.5 124t-17.5 123.5zM414 1397q2 -12 20 -13q17 1 25 11q-8 25 -29 24q-10 0 -13 -7t-3 -15zM707 2216q0 17 4 25q2 27 20.5 53t46.5 26q29 0 40 -27.5t11 -56.5q0 -25 -20.5 -54.5t-48.5 -29.5 q-25 0 -39 20.5t-14 43.5zM881 2212q0 18 8 39.5t22.5 40t33 31t38.5 12.5q37 0 57.5 -25.5t20.5 -66.5q0 -14 -4 -35t-13.5 -39.5t-24.5 -31.5t-40 -13q-35 0 -66.5 23.5t-31.5 64.5zM948 1458q0 -170 18.5 -335t41 -319.5t41 -294.5t18.5 -261q12 53 17.5 112.5t5.5 120.5 q0 160 -13.5 340t-31 359.5t-34 345.5t-22.5 297q-23 -84 -32 -175.5t-9 -189.5zM948 2236q14 -12 19.5 -22.5t9.5 -26.5q18 4 23.5 18.5t5.5 30.5t-4.5 29.5t-20.5 13.5q-10 -2 -18.5 -14t-14.5 -29zM1061 1960q14 0 31.5 1t33 5t25.5 12.5t10 22.5q0 23 -22 22 q-27 0 -44.5 -18t-33.5 -45z" />
<glyph unicode="&#xd0;" horiz-adv-x="2199" d="M94 1395q0 162 60.5 277.5t159 190t226.5 110.5t263 36q170 0 332.5 -41t308 -116.5t267.5 -182t211 -238t138 -285t49 -321.5q0 -152 -40.5 -271.5t-111.5 -211.5t-167 -157.5t-206.5 -107.5t-229.5 -61.5t-236 -19.5q-186 0 -366.5 25.5t-323.5 48.5 q-10 -57 -47 -106.5t-111 -49.5q-59 0 -100 37t-41 90q0 49 23.5 81t59.5 51.5t76 26.5t74 7q57 0 135 -11.5t168.5 -26.5t187.5 -31.5t196 -28.5q-4 113 -10.5 224t-12.5 222q-35 10 -66.5 19.5t-60.5 17.5q12 -12 12 -31q0 -16 -11 -22.5t-21 -6.5q-35 0 -51.5 24 t-16.5 50q4 29 30.5 38t53.5 9q23 0 54.5 -5t70.5 -13q-6 106 -10 209.5t-4 208.5q0 219 30.5 429t120.5 412q-178 59 -366 60q-117 0 -232 -34t-204 -99.5t-144 -165t-55 -228.5q0 -80 27.5 -157.5t76.5 -140t116.5 -101.5t147.5 -39q39 0 75 8.5t63.5 24.5t44 43t16.5 61 q0 4 -1 9.5t-1 11.5q-27 -14 -55 -14q-47 0 -76 35.5t-29 88.5q0 51 31 96.5t86 45.5q43 0 74.5 -22.5t51 -57.5t30 -80t10.5 -90q0 -66 -23.5 -116t-63.5 -85t-93.5 -53t-112.5 -18q-100 0 -184 45t-144.5 117.5t-94.5 165.5t-34 190zM248 23q0 -16 11 -28.5t34 -12.5 q37 0 59.5 30.5t38.5 61.5q-37 6 -63 6q-41 0 -60.5 -17.5t-19.5 -39.5zM1061 1036q0 -205 12 -413q16 -4 33 -7.5t33 -7.5q-6 162 -13.5 328t-7.5 326q0 154 12.5 295t47.5 260q-70 -174 -93.5 -370t-23.5 -411zM1077 541q4 -111 9.5 -219.5t9.5 -217.5q10 -2 17 -2t17 -2 q12 131 13 287v68.5t-2 68.5q-16 4 -32 8.5t-32 8.5zM1194 98q14 -2 28.5 -2h30.5q150 0 279 40t225 124t151.5 217t55.5 322q0 186 -55.5 352t-152.5 303t-229 241.5t-288 168.5q-25 -86 -33 -202t-8 -249q0 -104 3 -215t8 -216t9.5 -204.5t4.5 -183.5q29 -4 56 -7t52 -3 q41 0 56.5 18.5t25.5 34.5q14 27 31 27q27 0 26 -33q0 -23 -6 -47.5t-20 -45t-39 -32.5t-62 -12q-57 0 -120 12q-2 -111 -9.5 -212t-19.5 -196z" />
<glyph unicode="&#xd1;" horiz-adv-x="1957" d="M20 158q0 41 26 74.5t81 33.5q25 0 46.5 -15t21.5 -40q0 -23 -14.5 -33t-35.5 -10q-23 0 -34 12q-10 -10 -11 -22q0 -33 25 -55.5t60.5 -36t75.5 -19.5t71 -6q100 0 180 43t141.5 120t103.5 183.5t68.5 230t39 263t12.5 282.5q0 152 -16.5 290t-59.5 244.5t-117 169 t-188 62.5q-68 0 -122.5 -29.5t-91 -78.5t-56 -109.5t-19.5 -122.5q0 -37 9 -72.5t29.5 -63.5t52.5 -45t75 -17q25 0 41 12q-29 0 -43.5 18.5t-14.5 42.5q0 41 37 70t78 29q35 0 61.5 -22.5t26.5 -65.5q0 -82 -55 -130.5t-150 -48.5q-66 0 -116 26t-85.5 69t-54 97 t-18.5 111q0 76 32.5 147t89 124t133.5 85t163 32q94 0 167 -37.5t126 -98.5q100 -113 189 -287.5t189.5 -398t224.5 -486.5t292 -548q-16 88 -31 194.5t-25 224.5t-16 244t-6 253q0 145 8 291.5t25.5 280.5t45 252t68.5 204t95.5 135t123.5 49q80 0 161 -46t146.5 -118 t106.5 -159t41 -169q0 -41 -13.5 -79.5t-37 -67.5t-58 -46.5t-77.5 -17.5q-29 0 -59 10.5t-54.5 29t-39.5 44t-15 56.5q0 49 28.5 73.5t63.5 24.5q29 0 59.5 -15.5t48.5 -39.5q8 23 9 49q0 43 -30 98.5t-74 104.5t-95 82.5t-94 33.5q-53 0 -94.5 -62.5t-73 -162.5t-54 -226 t-37 -255t-20.5 -249t-6 -206q0 -150 3 -314.5t20 -348.5q10 -98 23 -183.5t13 -117.5q0 -27 -19.5 -41.5t-39.5 -14.5q-23 0 -39 11.5t-33.5 38t-39 67.5t-54.5 100q-86 158 -166 342.5t-154.5 369.5t-143 360.5t-132.5 312.5q41 -154 53.5 -319t12.5 -306q0 -63 -3 -162.5 t-18.5 -211t-50.5 -223t-97.5 -203t-158.5 -147.5t-236 -56q-72 0 -147.5 17t-137 51t-101.5 81t-40 109zM987 2107q0 63 44 92t99 29q61 0 108.5 -25.5t86.5 -57t74 -57.5t76 -26q29 0 44 14.5t15 34.5t-12.5 35t-25.5 25t-25.5 18.5t-12.5 20.5q0 25 25 24q20 0 37.5 -12 t28 -31.5t16.5 -42t6 -43.5q0 -39 -15.5 -67.5t-39 -48t-52 -28.5t-55.5 -9q-55 0 -97 35.5t-79 78.5t-71 79t-68 36q-20 0 -37 -13.5t-17 -37.5q0 -18 11 -29q14 8 24 8q16 0 23.5 -12t7.5 -29q0 -20 -16.5 -33.5t-40.5 -13.5q-27 0 -44.5 25.5t-17.5 60.5z" />
<glyph unicode="&#xd2;" horiz-adv-x="1751" d="M84 1028q0 70 9 158t30.5 180t57.5 180t90.5 157t127 110.5t166.5 41.5q88 0 156 -53q76 78 176 124t225 46q160 0 266.5 -74.5t171 -193.5t92 -266.5t27.5 -294.5q0 -131 -20.5 -269.5t-63.5 -268.5t-108.5 -245.5t-155.5 -202.5t-206.5 -137.5t-260.5 -50.5 q-207 0 -354.5 94.5t-242.5 246t-139 341t-44 377.5zM141 1081q0 -106 17.5 -219.5t53.5 -223.5t91 -207t132 -172t176.5 -118t219.5 -43q160 0 277 84t193.5 213t113.5 282.5t37 295.5q0 92 -7 195.5t-25.5 204t-48.5 192.5t-75 161.5t-106.5 111.5t-140.5 42 q-121 0 -214.5 -65.5t-158 -171t-98 -237.5t-33.5 -263q0 -82 17.5 -185.5t59.5 -195.5t109.5 -154.5t169.5 -62.5q41 0 80 16.5t68.5 46t48 68.5t18.5 84q0 35 -14 61q-23 -41 -56.5 -66.5t-74.5 -25.5q-47 0 -78 37t-31 84q0 66 42 108.5t102 42.5q49 0 89 -21.5t69.5 -56 t46 -79.5t16.5 -90q0 -68 -24.5 -127.5t-67.5 -103.5t-100.5 -68.5t-121.5 -24.5q-121 0 -204.5 62.5t-135 157.5t-74 211t-22.5 220q0 96 13.5 191.5t40 184.5t66.5 168t93 144q-53 23 -106 23q-102 0 -184.5 -57.5t-139.5 -153.5t-88 -226t-31 -274zM748 2343q0 45 19 78 t60 33q31 0 43.5 -20.5t12.5 -39.5q0 -29 -11.5 -54.5t-11.5 -53.5q0 -23 14.5 -49.5t53.5 -55.5q25 -18 48 -27.5t43.5 -15.5t33 -13t12.5 -20q0 -14 -33 -14q-18 0 -46.5 7.5t-67.5 23.5q-29 12 -59 31.5t-54.5 46t-40.5 62.5t-16 81zM1190 1882q90 -47 150.5 -143.5 t97.5 -228.5t52 -292.5t15 -336.5q14 90 20.5 158.5t6.5 144.5q0 129 -16.5 246.5t-55.5 212t-105.5 157t-164.5 82.5z" />
<glyph unicode="&#xd3;" horiz-adv-x="1751" d="M84 1028q0 70 9 158t30.5 180t57.5 180t90.5 157t127 110.5t166.5 41.5q88 0 156 -53q76 78 176 124t225 46q160 0 266.5 -74.5t171 -193.5t92 -266.5t27.5 -294.5q0 -131 -20.5 -269.5t-63.5 -268.5t-108.5 -245.5t-155.5 -202.5t-206.5 -137.5t-260.5 -50.5 q-207 0 -354.5 94.5t-242.5 246t-139 341t-44 377.5zM141 1081q0 -106 17.5 -219.5t53.5 -223.5t91 -207t132 -172t176.5 -118t219.5 -43q160 0 277 84t193.5 213t113.5 282.5t37 295.5q0 92 -7 195.5t-25.5 204t-48.5 192.5t-75 161.5t-106.5 111.5t-140.5 42 q-121 0 -214.5 -65.5t-158 -171t-98 -237.5t-33.5 -263q0 -82 17.5 -185.5t59.5 -195.5t109.5 -154.5t169.5 -62.5q41 0 80 16.5t68.5 46t48 68.5t18.5 84q0 35 -14 61q-23 -41 -56.5 -66.5t-74.5 -25.5q-47 0 -78 37t-31 84q0 66 42 108.5t102 42.5q49 0 89 -21.5t69.5 -56 t46 -79.5t16.5 -90q0 -68 -24.5 -127.5t-67.5 -103.5t-100.5 -68.5t-121.5 -24.5q-121 0 -204.5 62.5t-135 157.5t-74 211t-22.5 220q0 96 13.5 191.5t40 184.5t66.5 168t93 144q-53 23 -106 23q-102 0 -184.5 -57.5t-139.5 -153.5t-88 -226t-31 -274zM817 2099q0 17 33 29 q35 14 74 31.5t70.5 40t53 52t21.5 68.5q0 16 -4 33t-4 33q0 31 18.5 44t36.5 13q35 0 59.5 -31.5t24.5 -74.5q0 -57 -37 -99.5t-90 -72t-111.5 -49t-101.5 -29.5q-6 -2 -18 -2q-25 0 -25 14zM1190 1882q90 -47 150.5 -143.5t97.5 -228.5t52 -292.5t15 -336.5 q14 90 20.5 158.5t6.5 144.5q0 129 -16.5 246.5t-55.5 212t-105.5 157t-164.5 82.5z" />
<glyph unicode="&#xd4;" horiz-adv-x="1751" d="M84 1028q0 70 9 158t30.5 180t57.5 180t90.5 157t127 110.5t166.5 41.5q88 0 156 -53q76 78 176 124t225 46q160 0 266.5 -74.5t171 -193.5t92 -266.5t27.5 -294.5q0 -131 -20.5 -269.5t-63.5 -268.5t-108.5 -245.5t-155.5 -202.5t-206.5 -137.5t-260.5 -50.5 q-207 0 -354.5 94.5t-242.5 246t-139 341t-44 377.5zM141 1081q0 -106 17.5 -219.5t53.5 -223.5t91 -207t132 -172t176.5 -118t219.5 -43q160 0 277 84t193.5 213t113.5 282.5t37 295.5q0 92 -7 195.5t-25.5 204t-48.5 192.5t-75 161.5t-106.5 111.5t-140.5 42 q-121 0 -214.5 -65.5t-158 -171t-98 -237.5t-33.5 -263q0 -82 17.5 -185.5t59.5 -195.5t109.5 -154.5t169.5 -62.5q41 0 80 16.5t68.5 46t48 68.5t18.5 84q0 35 -14 61q-23 -41 -56.5 -66.5t-74.5 -25.5q-47 0 -78 37t-31 84q0 66 42 108.5t102 42.5q49 0 89 -21.5t69.5 -56 t46 -79.5t16.5 -90q0 -68 -24.5 -127.5t-67.5 -103.5t-100.5 -68.5t-121.5 -24.5q-121 0 -204.5 62.5t-135 157.5t-74 211t-22.5 220q0 96 13.5 191.5t40 184.5t66.5 168t93 144q-53 23 -106 23q-102 0 -184.5 -57.5t-139.5 -153.5t-88 -226t-31 -274zM717 2146q0 13 16 23 q68 41 111 91t53 130q4 23 11 43.5t28 20.5q12 0 18.5 -13.5t9.5 -32t4 -40t5 -37.5q12 -57 55 -95t100 -55q51 -14 52 -29q-2 -18 -29 -29.5t-61 -11.5q-63 0 -115.5 40t-71.5 108q-8 -16 -27.5 -38.5t-44 -43t-50 -35t-44.5 -14.5q-20 0 -20 18zM1190 1882 q90 -47 150.5 -143.5t97.5 -228.5t52 -292.5t15 -336.5q14 90 20.5 158.5t6.5 144.5q0 129 -16.5 246.5t-55.5 212t-105.5 157t-164.5 82.5z" />
<glyph unicode="&#xd5;" horiz-adv-x="1751" d="M84 1028q0 70 9 158t30.5 180t57.5 180t90.5 157t127 110.5t166.5 41.5q88 0 156 -53q76 78 176 124t225 46q160 0 266.5 -74.5t171 -193.5t92 -266.5t27.5 -294.5q0 -131 -20.5 -269.5t-63.5 -268.5t-108.5 -245.5t-155.5 -202.5t-206.5 -137.5t-260.5 -50.5 q-207 0 -354.5 94.5t-242.5 246t-139 341t-44 377.5zM141 1081q0 -106 17.5 -219.5t53.5 -223.5t91 -207t132 -172t176.5 -118t219.5 -43q160 0 277 84t193.5 213t113.5 282.5t37 295.5q0 92 -7 195.5t-25.5 204t-48.5 192.5t-75 161.5t-106.5 111.5t-140.5 42 q-121 0 -214.5 -65.5t-158 -171t-98 -237.5t-33.5 -263q0 -82 17.5 -185.5t59.5 -195.5t109.5 -154.5t169.5 -62.5q41 0 80 16.5t68.5 46t48 68.5t18.5 84q0 35 -14 61q-23 -41 -56.5 -66.5t-74.5 -25.5q-47 0 -78 37t-31 84q0 66 42 108.5t102 42.5q49 0 89 -21.5t69.5 -56 t46 -79.5t16.5 -90q0 -68 -24.5 -127.5t-67.5 -103.5t-100.5 -68.5t-121.5 -24.5q-121 0 -204.5 62.5t-135 157.5t-74 211t-22.5 220q0 96 13.5 191.5t40 184.5t66.5 168t93 144q-53 23 -106 23q-102 0 -184.5 -57.5t-139.5 -153.5t-88 -226t-31 -274zM655 2251q0 63 44 92 t100 29q61 0 108 -26t86 -57.5t74 -57t76 -25.5q29 0 44 14t15 35q0 20 -12 34.5t-25.5 24.5t-26 18.5t-12.5 20.5q0 25 25 25q20 0 37.5 -12.5t28 -32t16.5 -42t6 -42.5q0 -39 -15.5 -68t-39 -48t-52 -28.5t-55.5 -9.5q-55 0 -97 36t-79 79t-70.5 78.5t-68.5 35.5 q-20 0 -36.5 -13t-16.5 -38q0 -18 10 -28q14 8 24 8q16 0 23.5 -12.5t7.5 -28.5q0 -20 -16.5 -33.5t-40.5 -13.5q-27 0 -44.5 25.5t-17.5 60.5zM1190 1882q90 -47 150.5 -143.5t97.5 -228.5t52 -292.5t15 -336.5q14 90 20.5 158.5t6.5 144.5q0 129 -16.5 246.5t-55.5 212 t-105.5 157t-164.5 82.5z" />
<glyph unicode="&#xd6;" horiz-adv-x="1751" d="M84 1028q0 70 9 158t30.5 180t57.5 180t90.5 157t127 110.5t166.5 41.5q88 0 156 -53q76 78 176 124t225 46q160 0 266.5 -74.5t171 -193.5t92 -266.5t27.5 -294.5q0 -131 -20.5 -269.5t-63.5 -268.5t-108.5 -245.5t-155.5 -202.5t-206.5 -137.5t-260.5 -50.5 q-207 0 -354.5 94.5t-242.5 246t-139 341t-44 377.5zM141 1081q0 -106 17.5 -219.5t53.5 -223.5t91 -207t132 -172t176.5 -118t219.5 -43q160 0 277 84t193.5 213t113.5 282.5t37 295.5q0 92 -7 195.5t-25.5 204t-48.5 192.5t-75 161.5t-106.5 111.5t-140.5 42 q-121 0 -214.5 -65.5t-158 -171t-98 -237.5t-33.5 -263q0 -82 17.5 -185.5t59.5 -195.5t109.5 -154.5t169.5 -62.5q41 0 80 16.5t68.5 46t48 68.5t18.5 84q0 35 -14 61q-23 -41 -56.5 -66.5t-74.5 -25.5q-47 0 -78 37t-31 84q0 66 42 108.5t102 42.5q49 0 89 -21.5t69.5 -56 t46 -79.5t16.5 -90q0 -68 -24.5 -127.5t-67.5 -103.5t-100.5 -68.5t-121.5 -24.5q-121 0 -204.5 62.5t-135 157.5t-74 211t-22.5 220q0 96 13.5 191.5t40 184.5t66.5 168t93 144q-53 23 -106 23q-102 0 -184.5 -57.5t-139.5 -153.5t-88 -226t-31 -274zM770 2191q0 17 4 25 q2 27 20.5 53.5t47.5 26.5t40 -27.5t11 -56.5q0 -25 -20.5 -54.5t-49.5 -29.5q-25 0 -39 20.5t-14 42.5zM944 2187q0 18 8.5 40t22.5 40.5t33 30.5t39 12q37 0 57 -25.5t20 -66.5q0 -14 -4 -34.5t-13 -39t-24.5 -32t-40.5 -13.5q-35 0 -66.5 23.5t-31.5 64.5zM1012 2212 q14 -12 19 -22.5t9 -26.5q18 4 23.5 18t5.5 31q0 16 -4 29.5t-21 13.5q-10 -2 -18 -14.5t-14 -28.5zM1190 1882q90 -47 150.5 -143.5t97.5 -228.5t52 -292.5t15 -336.5q14 90 20.5 158.5t6.5 144.5q0 129 -16.5 246.5t-55.5 212t-105.5 157t-164.5 82.5z" />
<glyph unicode="&#xd7;" horiz-adv-x="888" d="M80 381q4 16 15 25.5t24 9.5q12 0 20 -8q29 10 63 39.5t67.5 71.5t66.5 89t57 90q-29 53 -56.5 105.5t-52 95.5t-46 74t-41.5 43q-20 2 -37 8t-17 29q0 16 13.5 25t23.5 9q27 0 57.5 -23.5t64.5 -62t71 -90t76 -106.5q31 63 61.5 123.5t60.5 101.5q33 41 65 55.5t60 14.5 q33 0 35 -19q0 -16 -9.5 -22.5t-29.5 -22.5q-14 -16 -36.5 -49t-48 -75t-53.5 -89t-54 -90q66 -92 133 -170t135 -112q25 -12 25 -37q0 -16 -17.5 -31.5t-58.5 -15.5q-31 0 -56.5 10t-45 23.5t-35 27.5t-25.5 27q-33 35 -62.5 80t-58.5 94q-90 -147 -152.5 -232.5 t-125.5 -85.5q-33 0 -54.5 20.5t-21.5 49.5z" />
<glyph unicode="&#xd8;" horiz-adv-x="1751" d="M84 1028q0 70 9 158t30.5 180t57.5 180t90.5 157t127 110.5t166.5 41.5q88 0 156 -53q76 78 176 124t225 46q147 0 249 -63.5t167 -167.5q16 16 30.5 33.5t30.5 35.5q35 37 43 37q4 0 10.5 -4t6.5 -14q0 -14 -17 -33q-20 -25 -40.5 -48.5t-40.5 -45.5q66 -119 92 -265.5 t26 -293.5q0 -131 -20.5 -269.5t-63.5 -268.5t-108.5 -245.5t-155.5 -202.5t-206.5 -137.5t-260.5 -50.5q-170 0 -299 63.5t-223 172.5q-59 -76 -127 -152q-12 -12 -27 -12q-12 0 -19 9t-7 22q0 18 14 32q33 39 63.5 76t63.5 76q-57 78 -98 169t-67.5 191.5t-40 205 t-13.5 206.5zM141 1081q0 -94 13.5 -193.5t41 -197.5t69.5 -188t102 -166q59 70 115.5 138.5t113.5 137.5q-66 100 -92.5 226.5t-26.5 242.5q0 96 13.5 191.5t40 184.5t66.5 168t93 144q-53 23 -106 23q-102 0 -184.5 -57.5t-139.5 -153.5t-88 -226t-31 -274zM408 287 q80 -86 184 -137.5t239 -51.5q160 0 277 84t193.5 213t113.5 282.5t37 295.5q0 123 -13.5 261t-47.5 265q-106 -127 -210 -251t-208 -251q8 2 15 3t18 1q49 0 89 -21.5t69.5 -56t46 -79.5t16.5 -90q0 -68 -24.5 -127.5t-67.5 -103.5t-100.5 -68.5t-121.5 -24.5 q-96 0 -166.5 37.5t-121.5 103.5q-55 -72 -108.5 -142.5t-108.5 -141.5zM545 1143q0 -49 6 -108.5t19.5 -119t35.5 -118t53 -107.5q178 217 354.5 430t362.5 432q-23 70 -53.5 130.5t-70.5 104.5t-91 68.5t-112 24.5q-121 0 -214.5 -65.5t-158 -171t-98 -237.5t-33.5 -263z M688 649q41 -47 93.5 -75.5t119.5 -28.5q41 0 80 16.5t68.5 46t48 68.5t18.5 84q0 35 -14 61q-23 -41 -56.5 -66.5t-74.5 -25.5q-47 0 -78 39t-31 94q-43 -53 -86 -105t-88 -108zM1190 1882q76 -39 130 -113t91 -176q10 14 22.5 26.5t24.5 27.5q-41 92 -105.5 153.5 t-162.5 81.5zM1427 1542q43 -135 60.5 -305t17.5 -356q14 90 20.5 158.5t6.5 144.5q0 117 -13.5 221t-41.5 194q-12 -14 -24.5 -28.5t-25.5 -28.5z" />
<glyph unicode="&#xd9;" horiz-adv-x="2174" d="M74 1642q0 82 38 170.5t102.5 160t152.5 118.5t188 47q139 0 225 -66.5t133.5 -168t63.5 -221t16 -226.5q0 -145 -14 -318t-30.5 -338t-31 -302.5t-14.5 -208.5q0 -199 121 -199q94 0 197.5 86t204 246t193.5 390t165 519q-2 20 -7 66.5t-11.5 105t-11.5 123t-5 123.5 q0 90 14.5 145.5t51.5 55.5q31 0 51 -22.5t31.5 -60.5t16.5 -87t5 -101q0 -53 -4 -107t-9 -102.5t-10.5 -84.5t-7.5 -54q4 -236 3 -475.5t20 -454.5q6 -57 14 -118.5t26.5 -111.5t48.5 -82t79 -32q47 0 83 34t36 81q0 20 -4.5 38.5t-4.5 31.5q0 29 19 28q18 0 29.5 -13 t18.5 -31.5t9 -38t2 -33.5q0 -55 -23.5 -101.5t-61.5 -79t-85 -51t-96 -18.5q-90 0 -142.5 54t-80 131t-35.5 161t-8 145q0 137 9 302t19 321q-35 -115 -79 -235.5t-97 -234.5t-114.5 -214.5t-132 -175t-150.5 -118.5t-166 -44q-49 0 -91 15.5t-75 50t-51.5 91t-18.5 136.5 q0 100 9.5 216t21.5 249t21.5 282.5t9.5 319.5q0 55 -3 122.5t-14.5 138.5t-31 137.5t-52 118.5t-78.5 84t-112 32q-63 0 -123.5 -36t-107.5 -91.5t-76 -123t-29 -130.5q0 -41 11.5 -83t37 -76t66.5 -55.5t98 -21.5q59 0 98 35t39 82q0 23 -12 47q-25 -20 -49 -20 q-31 0 -44 13t-13 30q0 27 27.5 53t68.5 26q29 0 51.5 -13t37.5 -32.5t23.5 -44t8.5 -47.5q0 -45 -19.5 -82t-52.5 -64.5t-79 -43t-97 -15.5q-88 0 -153.5 30t-109.5 79t-65.5 111.5t-21.5 125.5zM1133 2363q0 45 19 78t60 33q31 0 43.5 -20.5t12.5 -38.5q0 -29 -11.5 -54.5 t-11.5 -54.5q0 -23 14.5 -49.5t53.5 -54.5q25 -18 48 -27.5t43.5 -16t33 -13.5t12.5 -19q0 -14 -33 -15q-18 0 -46.5 7.5t-67.5 23.5q-29 12 -59 31.5t-54.5 46.5t-40.5 62.5t-16 80.5z" />
<glyph unicode="&#xda;" horiz-adv-x="2174" d="M74 1642q0 82 38 170.5t102.5 160t152.5 118.5t188 47q139 0 225 -66.5t133.5 -168t63.5 -221t16 -226.5q0 -145 -14 -318t-30.5 -338t-31 -302.5t-14.5 -208.5q0 -199 121 -199q94 0 197.5 86t204 246t193.5 390t165 519q-2 20 -7 66.5t-11.5 105t-11.5 123t-5 123.5 q0 90 14.5 145.5t51.5 55.5q31 0 51 -22.5t31.5 -60.5t16.5 -87t5 -101q0 -53 -4 -107t-9 -102.5t-10.5 -84.5t-7.5 -54q4 -236 3 -475.5t20 -454.5q6 -57 14 -118.5t26.5 -111.5t48.5 -82t79 -32q47 0 83 34t36 81q0 20 -4.5 38.5t-4.5 31.5q0 29 19 28q18 0 29.5 -13 t18.5 -31.5t9 -38t2 -33.5q0 -55 -23.5 -101.5t-61.5 -79t-85 -51t-96 -18.5q-90 0 -142.5 54t-80 131t-35.5 161t-8 145q0 137 9 302t19 321q-35 -115 -79 -235.5t-97 -234.5t-114.5 -214.5t-132 -175t-150.5 -118.5t-166 -44q-49 0 -91 15.5t-75 50t-51.5 91t-18.5 136.5 q0 100 9.5 216t21.5 249t21.5 282.5t9.5 319.5q0 55 -3 122.5t-14.5 138.5t-31 137.5t-52 118.5t-78.5 84t-112 32q-63 0 -123.5 -36t-107.5 -91.5t-76 -123t-29 -130.5q0 -41 11.5 -83t37 -76t66.5 -55.5t98 -21.5q59 0 98 35t39 82q0 23 -12 47q-25 -20 -49 -20 q-31 0 -44 13t-13 30q0 27 27.5 53t68.5 26q29 0 51.5 -13t37.5 -32.5t23.5 -44t8.5 -47.5q0 -45 -19.5 -82t-52.5 -64.5t-79 -43t-97 -15.5q-88 0 -153.5 30t-109.5 79t-65.5 111.5t-21.5 125.5zM1264 2120q-1 16 32 28q35 14 74 32t71 40.5t53.5 52t21.5 68.5 q0 16 -4.5 32.5t-4.5 32.5q0 31 18.5 44.5t37.5 13.5q35 0 59.5 -32t24.5 -75q0 -57 -37 -99t-90.5 -71.5t-111.5 -49t-101 -30.5q-6 -2 -19 -2q-25 0 -24 15z" />
<glyph unicode="&#xdb;" horiz-adv-x="2174" d="M74 1642q0 82 38 170.5t102.5 160t152.5 118.5t188 47q139 0 225 -66.5t133.5 -168t63.5 -221t16 -226.5q0 -145 -14 -318t-30.5 -338t-31 -302.5t-14.5 -208.5q0 -199 121 -199q94 0 197.5 86t204 246t193.5 390t165 519q-2 20 -7 66.5t-11.5 105t-11.5 123t-5 123.5 q0 90 14.5 145.5t51.5 55.5q31 0 51 -22.5t31.5 -60.5t16.5 -87t5 -101q0 -53 -4 -107t-9 -102.5t-10.5 -84.5t-7.5 -54q4 -236 3 -475.5t20 -454.5q6 -57 14 -118.5t26.5 -111.5t48.5 -82t79 -32q47 0 83 34t36 81q0 20 -4.5 38.5t-4.5 31.5q0 29 19 28q18 0 29.5 -13 t18.5 -31.5t9 -38t2 -33.5q0 -55 -23.5 -101.5t-61.5 -79t-85 -51t-96 -18.5q-90 0 -142.5 54t-80 131t-35.5 161t-8 145q0 137 9 302t19 321q-35 -115 -79 -235.5t-97 -234.5t-114.5 -214.5t-132 -175t-150.5 -118.5t-166 -44q-49 0 -91 15.5t-75 50t-51.5 91t-18.5 136.5 q0 100 9.5 216t21.5 249t21.5 282.5t9.5 319.5q0 55 -3 122.5t-14.5 138.5t-31 137.5t-52 118.5t-78.5 84t-112 32q-63 0 -123.5 -36t-107.5 -91.5t-76 -123t-29 -130.5q0 -41 11.5 -83t37 -76t66.5 -55.5t98 -21.5q59 0 98 35t39 82q0 23 -12 47q-25 -20 -49 -20 q-31 0 -44 13t-13 30q0 27 27.5 53t68.5 26q29 0 51.5 -13t37.5 -32.5t23.5 -44t8.5 -47.5q0 -45 -19.5 -82t-52.5 -64.5t-79 -43t-97 -15.5q-88 0 -153.5 30t-109.5 79t-65.5 111.5t-21.5 125.5zM1143 2167q0 12 16 22q68 41 111 91.5t53 129.5q4 23 11 43.5t28 20.5 q12 0 18 -13.5t9.5 -32t4.5 -40t5 -37.5q12 -57 55 -95t100 -54q51 -14 52 -29q-2 -18 -29 -29.5t-61 -11.5q-63 0 -115.5 40t-71.5 107q-8 -16 -27.5 -38.5t-44 -43t-50 -35t-44.5 -14.5q-20 0 -20 19z" />
<glyph unicode="&#xdc;" horiz-adv-x="2174" d="M74 1642q0 82 38 170.5t102.5 160t152.5 118.5t188 47q139 0 225 -66.5t133.5 -168t63.5 -221t16 -226.5q0 -145 -14 -318t-30.5 -338t-31 -302.5t-14.5 -208.5q0 -199 121 -199q94 0 197.5 86t204 246t193.5 390t165 519q-2 20 -7 66.5t-11.5 105t-11.5 123t-5 123.5 q0 90 14.5 145.5t51.5 55.5q31 0 51 -22.5t31.5 -60.5t16.5 -87t5 -101q0 -53 -4 -107t-9 -102.5t-10.5 -84.5t-7.5 -54q4 -236 3 -475.5t20 -454.5q6 -57 14 -118.5t26.5 -111.5t48.5 -82t79 -32q47 0 83 34t36 81q0 20 -4.5 38.5t-4.5 31.5q0 29 19 28q18 0 29.5 -13 t18.5 -31.5t9 -38t2 -33.5q0 -55 -23.5 -101.5t-61.5 -79t-85 -51t-96 -18.5q-90 0 -142.5 54t-80 131t-35.5 161t-8 145q0 137 9 302t19 321q-35 -115 -79 -235.5t-97 -234.5t-114.5 -214.5t-132 -175t-150.5 -118.5t-166 -44q-49 0 -91 15.5t-75 50t-51.5 91t-18.5 136.5 q0 100 9.5 216t21.5 249t21.5 282.5t9.5 319.5q0 55 -3 122.5t-14.5 138.5t-31 137.5t-52 118.5t-78.5 84t-112 32q-63 0 -123.5 -36t-107.5 -91.5t-76 -123t-29 -130.5q0 -41 11.5 -83t37 -76t66.5 -55.5t98 -21.5q59 0 98 35t39 82q0 23 -12 47q-25 -20 -49 -20 q-31 0 -44 13t-13 30q0 27 27.5 53t68.5 26q29 0 51.5 -13t37.5 -32.5t23.5 -44t8.5 -47.5q0 -45 -19.5 -82t-52.5 -64.5t-79 -43t-97 -15.5q-88 0 -153.5 30t-109.5 79t-65.5 111.5t-21.5 125.5zM1196 2212q0 16 4 24q2 27 20.5 53.5t47.5 26.5t40 -27.5t11 -56.5 q0 -25 -20.5 -54.5t-49.5 -29.5q-25 0 -39 20.5t-14 43.5zM1370 2208q0 18 8 39.5t22.5 40t33.5 31t39 12.5q37 0 57 -26t20 -67q0 -14 -4 -34.5t-13 -39t-24.5 -31.5t-40.5 -13q-35 0 -66.5 23.5t-31.5 64.5zM1438 2232q14 -12 19 -22.5t9 -26.5q18 4 23.5 18.5t5.5 30.5 t-4 29.5t-21 13.5q-10 -2 -18 -14t-14 -29z" />
<glyph unicode="&#xdd;" horiz-adv-x="1961" d="M129 1524q0 98 38 188t99.5 161t140 113t160.5 42q104 0 181 -45.5t131.5 -122t89.5 -179t54 -216t26.5 -232.5t7.5 -229q0 -150 -7.5 -278t-11.5 -210q98 143 192.5 265t179.5 235.5t155.5 223.5t122.5 230q4 16 7 58.5t7 95.5t11 109.5t19.5 103.5t30 78t43.5 31 q47 0 65.5 -38t18.5 -81q0 -78 -36.5 -172t-86.5 -193q39 -242 74 -521t35 -570q0 -131 -18.5 -267.5t-58.5 -265.5t-104.5 -242.5t-155.5 -199.5t-211 -135t-271 -49q-92 0 -180.5 31.5t-156 83.5t-108.5 121t-41 144q0 104 59.5 162t160.5 58q47 0 84.5 -15.5t63.5 -41 t40 -58.5t14 -66q0 -41 -26.5 -70.5t-73.5 -29.5t-91 38t-48 114q-43 0 -61.5 -28t-18.5 -56q0 -59 30.5 -111.5t86 -92.5t129 -62.5t159.5 -22.5q145 0 243.5 93t161 250t96.5 360.5t52.5 424.5t27.5 444.5t21 417.5q-74 -131 -160.5 -261t-171.5 -252.5t-159 -234.5 t-123 -204q-16 -33 -30.5 -45t-32.5 -12q-23 0 -38.5 19.5t-15.5 78.5q0 45 5.5 114.5t11.5 154.5t11 180.5t5 187.5q0 111 -6 223.5t-22.5 217t-45 195.5t-73.5 158.5t-109.5 106.5t-151.5 39q-70 0 -134 -35t-114.5 -94t-80 -138t-29.5 -167q0 -45 10.5 -87t29.5 -75 t48 -53.5t66 -20.5q31 0 59.5 13.5t52 33t41 45t29.5 50.5q-39 10 -53.5 41.5t-14.5 68.5q0 45 27 73t61 28q53 0 83 -48.5t30 -103.5q0 -61 -25.5 -117.5t-68.5 -99.5t-97.5 -69.5t-111.5 -26.5q-68 0 -116 30.5t-78.5 79.5t-45 109.5t-14.5 120.5zM1255 2079q0 16 33 28 q35 14 74 32t70.5 40.5t53 52t21.5 68.5q0 16 -4 32.5t-4 32.5q0 31 18.5 44.5t36.5 13.5q35 0 59.5 -32t24.5 -75q0 -57 -36.5 -99t-90 -71.5t-112 -49t-101.5 -30.5q-6 -2 -18 -2q-25 0 -25 15zM1565 -483q125 156 191.5 385t66.5 540q0 262 -25.5 495.5t-52.5 432.5 q0 -135 2 -289.5t2 -361.5q0 -399 -41 -703.5t-143 -498.5z" />
<glyph unicode="&#xde;" horiz-adv-x="1921" d="M57 1786q0 61 21.5 121.5t60.5 109.5t90.5 80t112.5 31q76 0 131 -43t95 -115t64.5 -169t41.5 -204q51 53 116.5 93.5t137 66t145.5 38.5t141 13q156 0 268.5 -59t180.5 -156q49 -68 82 -138.5t51.5 -148t26.5 -167.5t8 -201q0 -135 -36 -279.5t-106.5 -262t-178 -194.5 t-250.5 -77q-135 0 -266.5 43t-239.5 127q2 -53 3 -96t1 -74q0 -78 -11.5 -163t-43 -156.5t-88 -117.5t-146.5 -46q-47 0 -107.5 19.5t-116 56t-94 92t-42.5 129.5q0 39 17 77.5t60 38.5q16 0 21.5 -10t5.5 -20q0 -20 -16.5 -35t-16.5 -39q0 -35 25.5 -64.5t61.5 -50t75 -32 t64 -11.5q70 0 111.5 66.5t62 177t26.5 252t6 291.5q0 115 -2 234.5t-6 244.5q-2 68 -3 168t-7 212.5t-20.5 223.5t-42 201t-71.5 145t-112 55q-55 0 -98 -27.5t-73 -68.5t-45 -91t-15 -93q0 -76 31.5 -133.5t91.5 -57.5q18 0 29.5 7.5t21.5 17.5q-31 4 -44.5 27.5 t-13.5 52.5q0 35 25 61.5t59 26.5q39 0 55.5 -24.5t16.5 -57.5q0 -66 -39 -116t-100 -50q-49 0 -85 23.5t-59.5 60.5t-36 80t-12.5 84zM274 1698q0 -31 27 -31q8 0 18 6q4 6 7.5 17.5t3.5 23.5q0 10 -4 19.5t-15 9.5q-12 0 -24.5 -13.5t-12.5 -31.5zM680 1554 q35 -270 45 -547.5t25 -582.5q92 -43 189 -79t210 -36q86 0 153.5 41t117.5 109.5t84 155.5t55.5 179.5t30.5 181.5t9 161q0 111 -15 217t-61 189t-131 134.5t-223 51.5q-135 0 -265 -44.5t-224 -130.5zM1296 303q80 14 141.5 56t106.5 101.5t77 133.5t50.5 150.5t26.5 153 t8 142.5q0 170 -37 310.5t-127 234.5q57 -88 81 -206.5t24 -250.5q0 -102 -17.5 -227t-58.5 -242.5t-108.5 -215t-166.5 -140.5z" />
<glyph unicode="&#xdf;" horiz-adv-x="1193" d="M29 297q0 35 20.5 60.5t61.5 25.5q31 0 57.5 -15.5t26.5 -48.5q0 -23 -18.5 -33t-37.5 -10q-43 0 -43 27q0 10 9.5 16.5t21.5 6.5q14 0 27 -13q0 16 -14.5 26.5t-30.5 10.5t-23.5 -13t-7.5 -28q0 -23 12 -39t30.5 -27.5t39 -16.5t37.5 -5q43 0 66.5 33t33.5 79t12 96 t2 85q0 102 -10 203.5t-22.5 204t-22.5 207t-10 210.5q0 61 10 128t34.5 122.5t67.5 91t109 35.5q61 0 120.5 -38t107.5 -93t78 -119.5t30 -115.5q0 -37 -16.5 -63.5t-43 -45t-60.5 -32t-69 -23.5q94 -55 187.5 -116.5t167 -136.5t120 -166t46.5 -204q0 -74 -19.5 -155.5 t-61.5 -150.5t-108.5 -113t-161.5 -44q-57 0 -106 20.5t-86 56.5t-57.5 83t-20.5 100q0 55 29.5 99.5t95.5 44.5q41 0 81 -22.5t40 -67.5q0 -39 -32 -54.5t-60 -21.5q0 -49 22.5 -91t75.5 -42t89 23.5t57.5 59.5t30.5 78t9 80q0 84 -37.5 190.5t-101 209t-143.5 186.5 t-164 125q-8 -2 -25 -2q-29 0 -60.5 11.5t-31.5 41.5q0 14 12.5 26.5t44.5 14.5q23 0 39.5 -5t32.5 -9q29 6 60.5 16.5t59.5 23.5t46 30.5t18 40.5q0 39 -21.5 87t-55 91t-74.5 71.5t-80 28.5q-47 0 -72.5 -45t-38 -105.5t-15.5 -120t-3 -87.5q0 -111 14.5 -221.5t32 -220 t31.5 -217t14 -210.5q0 -51 -10 -98t-34.5 -84t-64 -59.5t-96.5 -22.5q-37 0 -73.5 12.5t-64.5 34t-45 52t-17 65.5zM633 1147q98 -94 189 -189.5t169 -203.5q33 -47 58.5 -97.5t40.5 -105.5v20q-6 106 -48.5 189.5t-107 152t-143 125t-158.5 109.5z" />
<glyph unicode="&#xe0;" horiz-adv-x="1146" d="M86 631q0 98 32 204.5t93 194.5t151.5 144.5t204.5 56.5q68 0 131.5 -32t104.5 -103q16 78 41.5 127t60.5 49q18 0 24.5 -13.5t6.5 -31.5q0 -20 -7 -47t-17.5 -51.5t-19.5 -44t-15 -25.5q-4 -35 -6.5 -60.5t-2.5 -54.5q0 -37 3 -102.5t9.5 -141t15.5 -155.5t21.5 -143.5 t26.5 -104.5t33 -41q10 0 31.5 19.5t33.5 64.5q-16 4 -27 19.5t-11 37.5q0 29 20 50.5t43 21.5q20 0 35.5 -19.5t15.5 -66.5q0 -35 -17.5 -77t-45 -79t-62.5 -61.5t-71 -24.5q-47 0 -79 45t-50.5 117t-25.5 162t-7 182v50.5t2 54.5q-47 -90 -98.5 -169t-109.5 -138.5 t-121.5 -94.5t-131.5 -35q-102 0 -158.5 84t-56.5 232zM201 664q0 -43 6 -88.5t21.5 -81t40 -59t61.5 -23.5h12q-33 23 -54.5 73t-34.5 109t-18.5 117.5t-5.5 99.5v25.5t2 25.5q-30 -98 -30 -198zM262 815q0 -39 7 -103.5t24.5 -126t44.5 -105.5t63 -44q33 0 74 27 q47 33 90 80t81 100t68.5 108.5t53.5 104.5q4 45 9 89t14 85q-20 74 -82 105.5t-123 31.5q-113 0 -190 -58t-124 -146q-4 -35 -7 -73t-3 -75zM315 1624q0 45 19.5 78t60.5 33q31 0 43.5 -20.5t12.5 -39.5q0 -29 -11.5 -54.5t-11.5 -53.5q0 -23 14.5 -49.5t53.5 -55.5 q25 -18 48 -27.5t43.5 -15.5t33 -13t12.5 -20q0 -14 -33 -14q-18 0 -47 7.5t-68 23.5q-29 12 -58.5 31.5t-54 46t-41 62.5t-16.5 81z" />
<glyph unicode="&#xe1;" horiz-adv-x="1146" d="M86 631q0 98 32 204.5t93 194.5t151.5 144.5t204.5 56.5q68 0 131.5 -32t104.5 -103q16 78 41.5 127t60.5 49q18 0 24.5 -13.5t6.5 -31.5q0 -20 -7 -47t-17.5 -51.5t-19.5 -44t-15 -25.5q-4 -35 -6.5 -60.5t-2.5 -54.5q0 -37 3 -102.5t9.5 -141t15.5 -155.5t21.5 -143.5 t26.5 -104.5t33 -41q10 0 31.5 19.5t33.5 64.5q-16 4 -27 19.5t-11 37.5q0 29 20 50.5t43 21.5q20 0 35.5 -19.5t15.5 -66.5q0 -35 -17.5 -77t-45 -79t-62.5 -61.5t-71 -24.5q-47 0 -79 45t-50.5 117t-25.5 162t-7 182v50.5t2 54.5q-47 -90 -98.5 -169t-109.5 -138.5 t-121.5 -94.5t-131.5 -35q-102 0 -158.5 84t-56.5 232zM201 664q0 -43 6 -88.5t21.5 -81t40 -59t61.5 -23.5h12q-33 23 -54.5 73t-34.5 109t-18.5 117.5t-5.5 99.5v25.5t2 25.5q-30 -98 -30 -198zM262 815q0 -39 7 -103.5t24.5 -126t44.5 -105.5t63 -44q33 0 74 27 q47 33 90 80t81 100t68.5 108.5t53.5 104.5q4 45 9 89t14 85q-20 74 -82 105.5t-123 31.5q-113 0 -190 -58t-124 -146q-4 -35 -7 -73t-3 -75zM455 1380q-1 17 32 29q35 14 74 31.5t71 40t53.5 52.5t21.5 69q0 16 -4.5 32.5t-4.5 32.5q0 31 18.5 44t37.5 13q35 0 59.5 -31.5 t24.5 -74.5q0 -57 -37 -99t-90.5 -72t-111.5 -49.5t-101 -29.5q-6 -2 -19 -2q-25 0 -24 14z" />
<glyph unicode="&#xe2;" horiz-adv-x="1146" d="M86 631q0 98 32 204.5t93 194.5t151.5 144.5t204.5 56.5q68 0 131.5 -32t104.5 -103q16 78 41.5 127t60.5 49q18 0 24.5 -13.5t6.5 -31.5q0 -20 -7 -47t-17.5 -51.5t-19.5 -44t-15 -25.5q-4 -35 -6.5 -60.5t-2.5 -54.5q0 -37 3 -102.5t9.5 -141t15.5 -155.5t21.5 -143.5 t26.5 -104.5t33 -41q10 0 31.5 19.5t33.5 64.5q-16 4 -27 19.5t-11 37.5q0 29 20 50.5t43 21.5q20 0 35.5 -19.5t15.5 -66.5q0 -35 -17.5 -77t-45 -79t-62.5 -61.5t-71 -24.5q-47 0 -79 45t-50.5 117t-25.5 162t-7 182v50.5t2 54.5q-47 -90 -98.5 -169t-109.5 -138.5 t-121.5 -94.5t-131.5 -35q-102 0 -158.5 84t-56.5 232zM201 664q0 -43 6 -88.5t21.5 -81t40 -59t61.5 -23.5h12q-33 23 -54.5 73t-34.5 109t-18.5 117.5t-5.5 99.5v25.5t2 25.5q-30 -98 -30 -198zM262 815q0 -39 7 -103.5t24.5 -126t44.5 -105.5t63 -44q33 0 74 27 q47 33 90 80t81 100t68.5 108.5t53.5 104.5q4 45 9 89t14 85q-20 74 -82 105.5t-123 31.5q-113 0 -190 -58t-124 -146q-4 -35 -7 -73t-3 -75zM293 1386q0 13 16 23q68 41 111 91t53 130q4 23 11.5 43.5t27.5 20.5q12 0 18.5 -13.5t9.5 -32t4 -40t5 -37.5q12 -57 55 -95 t101 -55q51 -14 51 -28q-2 -18 -29 -29.5t-61 -11.5q-63 0 -115.5 40t-71.5 107q-8 -16 -27.5 -38.5t-44 -43t-50 -35t-44.5 -14.5q-20 0 -20 18z" />
<glyph unicode="&#xe3;" horiz-adv-x="1146" d="M86 631q0 98 32 204.5t93 194.5t151.5 144.5t204.5 56.5q68 0 131.5 -32t104.5 -103q16 78 41.5 127t60.5 49q18 0 24.5 -13.5t6.5 -31.5q0 -20 -7 -47t-17.5 -51.5t-19.5 -44t-15 -25.5q-4 -35 -6.5 -60.5t-2.5 -54.5q0 -37 3 -102.5t9.5 -141t15.5 -155.5t21.5 -143.5 t26.5 -104.5t33 -41q10 0 31.5 19.5t33.5 64.5q-16 4 -27 19.5t-11 37.5q0 29 20 50.5t43 21.5q20 0 35.5 -19.5t15.5 -66.5q0 -35 -17.5 -77t-45 -79t-62.5 -61.5t-71 -24.5q-47 0 -79 45t-50.5 117t-25.5 162t-7 182v50.5t2 54.5q-47 -90 -98.5 -169t-109.5 -138.5 t-121.5 -94.5t-131.5 -35q-102 0 -158.5 84t-56.5 232zM201 664q0 -43 6 -88.5t21.5 -81t40 -59t61.5 -23.5h12q-33 23 -54.5 73t-34.5 109t-18.5 117.5t-5.5 99.5v25.5t2 25.5q-30 -98 -30 -198zM252 1511q0 63 44 92t99 29q61 0 108.5 -25.5t86.5 -57t73.5 -57.5t75.5 -26 q29 0 44.5 14.5t15.5 35.5q0 20 -12.5 34.5t-25.5 24.5t-25.5 18.5t-12.5 20.5q0 25 25 24q20 0 37.5 -12t27.5 -31.5t16.5 -42t6.5 -43.5q0 -39 -15.5 -67.5t-39 -48t-52.5 -28.5t-55 -9q-55 0 -97 35.5t-79 78.5t-71 79t-69 36q-20 0 -36.5 -13t-16.5 -38q0 -18 10 -29 q14 8 25 8q16 0 23.5 -12t7.5 -28q0 -20 -16.5 -34t-41.5 -14q-27 0 -44 25.5t-17 60.5zM262 815q0 -39 7 -103.5t24.5 -126t44.5 -105.5t63 -44q33 0 74 27q47 33 90 80t81 100t68.5 108.5t53.5 104.5q4 45 9 89t14 85q-20 74 -82 105.5t-123 31.5q-113 0 -190 -58 t-124 -146q-4 -35 -7 -73t-3 -75z" />
<glyph unicode="&#xe4;" horiz-adv-x="1146" d="M86 631q0 98 32 204.5t93 194.5t151.5 144.5t204.5 56.5q68 0 131.5 -32t104.5 -103q16 78 41.5 127t60.5 49q18 0 24.5 -13.5t6.5 -31.5q0 -20 -7 -47t-17.5 -51.5t-19.5 -44t-15 -25.5q-4 -35 -6.5 -60.5t-2.5 -54.5q0 -37 3 -102.5t9.5 -141t15.5 -155.5t21.5 -143.5 t26.5 -104.5t33 -41q10 0 31.5 19.5t33.5 64.5q-16 4 -27 19.5t-11 37.5q0 29 20 50.5t43 21.5q20 0 35.5 -19.5t15.5 -66.5q0 -35 -17.5 -77t-45 -79t-62.5 -61.5t-71 -24.5q-47 0 -79 45t-50.5 117t-25.5 162t-7 182v50.5t2 54.5q-47 -90 -98.5 -169t-109.5 -138.5 t-121.5 -94.5t-131.5 -35q-102 0 -158.5 84t-56.5 232zM201 664q0 -43 6 -88.5t21.5 -81t40 -59t61.5 -23.5h12q-33 23 -54.5 73t-34.5 109t-18.5 117.5t-5.5 99.5v25.5t2 25.5q-30 -98 -30 -198zM262 815q0 -39 7 -103.5t24.5 -126t44.5 -105.5t63 -44q33 0 74 27 q47 33 90 80t81 100t68.5 108.5t53.5 104.5q4 45 9 89t14 85q-20 74 -82 105.5t-123 31.5q-113 0 -190 -58t-124 -146q-4 -35 -7 -73t-3 -75zM408 1432q0 16 4 24q2 27 20.5 53.5t46.5 26.5q29 0 40 -27.5t11 -56.5q0 -25 -20.5 -54.5t-48.5 -29.5q-25 0 -39 20.5t-14 43.5z M582 1427q0 18 8 40t22.5 40.5t33 30.5t38.5 12q37 0 57.5 -25.5t20.5 -66.5q0 -14 -4 -34.5t-13.5 -39t-24.5 -32t-40 -13.5q-35 0 -66.5 23.5t-31.5 64.5zM649 1452q14 -12 19.5 -22.5t9.5 -26.5q18 4 23.5 18.5t5.5 30.5t-4.5 29.5t-20.5 13.5q-10 -2 -18.5 -14.5 t-14.5 -28.5z" />
<glyph unicode="&#xe5;" horiz-adv-x="1146" d="M86 631q0 98 32 204.5t93 194.5t151.5 144.5t204.5 56.5q68 0 131.5 -32t104.5 -103q16 78 41.5 127t60.5 49q18 0 24.5 -13.5t6.5 -31.5q0 -20 -7 -47t-17.5 -51.5t-19.5 -44t-15 -25.5q-4 -35 -6.5 -60.5t-2.5 -54.5q0 -37 3 -102.5t9.5 -141t15.5 -155.5t21.5 -143.5 t26.5 -104.5t33 -41q10 0 31.5 19.5t33.5 64.5q-16 4 -27 19.5t-11 37.5q0 29 20 50.5t43 21.5q20 0 35.5 -19.5t15.5 -66.5q0 -35 -17.5 -77t-45 -79t-62.5 -61.5t-71 -24.5q-47 0 -79 45t-50.5 117t-25.5 162t-7 182v50.5t2 54.5q-47 -90 -98.5 -169t-109.5 -138.5 t-121.5 -94.5t-131.5 -35q-102 0 -158.5 84t-56.5 232zM201 664q0 -43 6 -88.5t21.5 -81t40 -59t61.5 -23.5h12q-33 23 -54.5 73t-34.5 109t-18.5 117.5t-5.5 99.5v25.5t2 25.5q-30 -98 -30 -198zM262 815q0 -39 7 -103.5t24.5 -126t44.5 -105.5t63 -44q33 0 74 27 q47 33 90 80t81 100t68.5 108.5t53.5 104.5q4 45 9 89t14 85q-20 74 -82 105.5t-123 31.5q-113 0 -190 -58t-124 -146q-4 -35 -7 -73t-3 -75zM391 1477q0 53 35 84t82 45q33 33 84 32q61 0 92 -44t31 -101q0 -82 -40 -119t-112 -37q-33 0 -63.5 7.5t-55 24.5t-39 44 t-14.5 64zM446 1477q0 -29 27 -47.5t76 -18.5q39 0 65.5 15.5t26.5 58.5q0 20 -8 49t-37 29q-20 0 -31.5 -11.5t-25.5 -11.5q-15 0 -29 16q-35 -16 -49.5 -37.5t-14.5 -41.5z" />
<glyph unicode="&#xe6;" horiz-adv-x="1607" d="M86 590q0 90 30.5 187t90 177t146.5 132.5t200 52.5q59 0 116.5 -24.5t96.5 -80.5q12 59 31.5 100.5t48.5 41.5q20 0 26.5 -15.5t6.5 -34.5q0 -18 -6.5 -43.5t-14.5 -50.5q59 90 152.5 150.5t210.5 60.5q127 0 190.5 -57.5t63.5 -153.5q0 -106 -49.5 -177t-128 -114 t-175 -60t-190.5 -17h-53q12 -72 42.5 -139.5t79 -121t113 -86t146.5 -32.5q47 0 96 13t96 46q-20 14 -20 37t15 38t38 15t38 -14t15 -41q0 -39 -25.5 -81t-71.5 -77t-108.5 -57.5t-134.5 -22.5q-111 0 -193.5 48.5t-139 126t-87 178t-39.5 202.5q-45 -82 -95 -153.5 t-105.5 -126t-116.5 -85t-127 -30.5q-98 0 -153.5 77t-55.5 212zM197 618q0 -39 6 -79.5t20.5 -73.5t39 -54.5t59.5 -21.5h8q-31 23 -51.5 69t-31.5 99t-16.5 106.5t-5.5 90.5v25.5t2 25.5q-16 -47 -23 -94.5t-7 -92.5zM256 758q0 -37 7 -95.5t23.5 -113.5t42 -96t62.5 -41 q51 0 104.5 42t100.5 100t84 121.5t59 104.5q2 45 6.5 97.5t12.5 103.5q-27 53 -81.5 75.5t-107.5 22.5q-111 0 -184.5 -53t-118.5 -131q-6 -33 -8 -67.5t-2 -69.5zM874 750q0 -8 0.5 -16.5t2.5 -16.5q61 12 133.5 40.5t135 74t105.5 107.5t43 140q0 47 -18.5 76t-69.5 29 q-74 0 -135 -43t-105 -107.5t-68 -140.5t-24 -143zM1004 700q76 8 151.5 31t134 63t95 100t36.5 146q0 45 -16 81t-55 57q33 -45 32 -103q0 -78 -33.5 -139.5t-88 -106.5t-122 -76.5t-134.5 -52.5z" />
<glyph unicode="&#xe7;" horiz-adv-x="1046" d="M102 641q0 109 35 211t98.5 182t154.5 129t204 49q115 0 169 -54t54 -138q0 -43 -15.5 -88t-41 -82t-61 -60.5t-76.5 -23.5q-47 0 -76 39t-29 92q0 18 5 37.5t16.5 37t29 29t39.5 11.5q20 0 38 -14.5t18 -43.5q0 -16 -10.5 -35.5t-32.5 -19.5q-9 0 -21 6 q-10 -8 -13 -20.5t-3 -22.5q0 -45 39 -45q20 0 37.5 15.5t29.5 38t19.5 51t7.5 57.5q0 72 -42 116t-124 44q-63 0 -119 -23q-57 -106 -103 -236t-46 -255q0 -53 6 -107.5t24.5 -101.5t50 -84t82.5 -56q20 -10 43 -12q27 -6 62 -6q47 0 84 19.5t67.5 51t56 72.5t50.5 84 q6 12 15.5 23.5t19.5 11.5q20 0 20 -49q0 -53 -28.5 -103.5t-76.5 -90t-111.5 -64.5t-131.5 -25h-31q-14 -27 -14 -45q0 -31 35 -44t76 -29.5t75.5 -48t34.5 -95.5q0 -70 -48 -114.5t-134 -44.5q-63 0 -110.5 29.5t-47.5 80.5q0 37 30 64.5t73 27.5q31 0 51 -17.5t20 -39.5 q0 -29 -26 -49q4 0 10 -1t10 -1q47 0 67.5 22.5t20.5 57.5q0 45 -27.5 66.5t-59.5 36.5t-59.5 32.5t-27.5 58.5q0 25 15 58q-90 12 -156 58t-108 109.5t-62.5 137t-20.5 143.5zM207 696q0 -70 15.5 -135t45.5 -121q-14 43 -19 88t-5 93q0 141 37.5 254.5t91.5 211.5 q-84 -55 -125 -158.5t-41 -232.5z" />
<glyph unicode="&#xe8;" horiz-adv-x="942" d="M86 684q0 100 33 200.5t93 180.5t147 129t196 49q129 0 191.5 -58.5t62.5 -152.5q0 -106 -49 -177t-128 -114t-175.5 -60t-190.5 -17h-59q12 -84 44 -155t82 -124t116.5 -83t148.5 -30q55 0 107.5 15.5t97.5 50.5q-16 4 -26.5 18.5t-10.5 24.5q0 23 15.5 38t37.5 15 q23 0 38 -14t15 -41q0 -39 -25.5 -81t-71.5 -77t-108.5 -57.5t-134.5 -22.5q-96 0 -178 42t-141 115t-93 172t-34 214zM203 733.5q0 -8.5 2 -16.5q61 12 135 40.5t138.5 74t107.5 107.5t43 140q0 47 -18.5 76t-69.5 29q-74 0 -136.5 -43t-107.5 -107.5t-69.5 -140.5 t-24.5 -143v-16.5zM309 1645q0 45 19.5 77.5t60.5 32.5q31 0 43 -20.5t12 -38.5q0 -29 -11 -54.5t-11 -54.5q0 -23 14.5 -49.5t52.5 -54.5q25 -18 48.5 -27.5t44 -15.5t33 -13.5t12.5 -19.5q0 -14 -33 -14q-18 0 -47 7t-68 23q-29 12 -58.5 32t-54 46.5t-41 62t-16.5 81.5z M330 700q78 8 153.5 30t136 61.5t98.5 101t38 147.5q0 45 -16.5 81t-55.5 57q33 -45 33 -103q0 -80 -35 -140.5t-91 -106.5t-125 -76.5t-136 -51.5z" />
<glyph unicode="&#xe9;" horiz-adv-x="942" d="M86 684q0 100 33 200.5t93 180.5t147 129t196 49q129 0 191.5 -58.5t62.5 -152.5q0 -106 -49 -177t-128 -114t-175.5 -60t-190.5 -17h-59q12 -84 44 -155t82 -124t116.5 -83t148.5 -30q55 0 107.5 15.5t97.5 50.5q-16 4 -26.5 18.5t-10.5 24.5q0 23 15.5 38t37.5 15 q23 0 38 -14t15 -41q0 -39 -25.5 -81t-71.5 -77t-108.5 -57.5t-134.5 -22.5q-96 0 -178 42t-141 115t-93 172t-34 214zM203 733.5q0 -8.5 2 -16.5q61 12 135 40.5t138.5 74t107.5 107.5t43 140q0 47 -18.5 76t-69.5 29q-74 0 -136.5 -43t-107.5 -107.5t-69.5 -140.5 t-24.5 -143v-16.5zM330 700q78 8 153.5 30t136 61.5t98.5 101t38 147.5q0 45 -16.5 81t-55.5 57q33 -45 33 -103q0 -80 -35 -140.5t-91 -106.5t-125 -76.5t-136 -51.5zM399 1401q0 17 33 29q35 14 74 31.5t70.5 40t53 52t21.5 68.5q0 16 -4 32.5t-4 33.5q0 31 18.5 44 t36.5 13q35 0 59.5 -32t24.5 -75q0 -57 -36.5 -99t-90 -71.5t-112 -49t-101.5 -29.5q-6 -2 -18 -3q-25 0 -25 15z" />
<glyph unicode="&#xea;" horiz-adv-x="942" d="M86 684q0 100 33 200.5t93 180.5t147 129t196 49q129 0 191.5 -58.5t62.5 -152.5q0 -106 -49 -177t-128 -114t-175.5 -60t-190.5 -17h-59q12 -84 44 -155t82 -124t116.5 -83t148.5 -30q55 0 107.5 15.5t97.5 50.5q-16 4 -26.5 18.5t-10.5 24.5q0 23 15.5 38t37.5 15 q23 0 38 -14t15 -41q0 -39 -25.5 -81t-71.5 -77t-108.5 -57.5t-134.5 -22.5q-96 0 -178 42t-141 115t-93 172t-34 214zM203 733.5q0 -8.5 2 -16.5q61 12 135 40.5t138.5 74t107.5 107.5t43 140q0 47 -18.5 76t-69.5 29q-74 0 -136.5 -43t-107.5 -107.5t-69.5 -140.5 t-24.5 -143v-16.5zM297 1427q0 13 16 23q68 41 111 91t53 130q4 23 11.5 43.5t27.5 20.5q12 0 18.5 -13.5t9.5 -32t4 -40t5 -37.5q12 -57 55 -95t101 -55q51 -14 51 -28q-2 -18 -28.5 -29.5t-61.5 -11.5q-63 0 -115.5 40t-71.5 107q-8 -16 -27.5 -38.5t-44 -43t-50 -35 t-44.5 -14.5q-20 0 -20 18zM330 700q78 8 153.5 30t136 61.5t98.5 101t38 147.5q0 45 -16.5 81t-55.5 57q33 -45 33 -103q0 -80 -35 -140.5t-91 -106.5t-125 -76.5t-136 -51.5z" />
<glyph unicode="&#xeb;" horiz-adv-x="942" d="M86 684q0 100 33 200.5t93 180.5t147 129t196 49q129 0 191.5 -58.5t62.5 -152.5q0 -106 -49 -177t-128 -114t-175.5 -60t-190.5 -17h-59q12 -84 44 -155t82 -124t116.5 -83t148.5 -30q55 0 107.5 15.5t97.5 50.5q-16 4 -26.5 18.5t-10.5 24.5q0 23 15.5 38t37.5 15 q23 0 38 -14t15 -41q0 -39 -25.5 -81t-71.5 -77t-108.5 -57.5t-134.5 -22.5q-96 0 -178 42t-141 115t-93 172t-34 214zM203 733.5q0 -8.5 2 -16.5q61 12 135 40.5t138.5 74t107.5 107.5t43 140q0 47 -18.5 76t-69.5 29q-74 0 -136.5 -43t-107.5 -107.5t-69.5 -140.5 t-24.5 -143v-16.5zM330 700q78 8 153.5 30t136 61.5t98.5 101t38 147.5q0 45 -16.5 81t-55.5 57q33 -45 33 -103q0 -80 -35 -140.5t-91 -106.5t-125 -76.5t-136 -51.5zM352 1452q0 17 4 25q2 27 20.5 53t47.5 26t40 -27.5t11 -55.5q0 -25 -20.5 -54.5t-48.5 -29.5 q-25 0 -39.5 20.5t-14.5 42.5zM526 1448q0 18 8.5 39.5t22.5 40t33 31t39 12.5q37 0 57.5 -25.5t20.5 -66.5q0 -14 -4.5 -35t-13.5 -39.5t-24.5 -31.5t-39.5 -13q-35 0 -67 23.5t-32 64.5zM594 1473q14 -12 19.5 -23t9.5 -27q18 4 23 18.5t5 31.5q0 16 -4 29.5t-20 13.5 q-10 -2 -18.5 -14.5t-14.5 -28.5z" />
<glyph unicode="&#xec;" horiz-adv-x="499" d="M39 1452q0 45 19.5 78t60.5 33q31 0 43 -20.5t12 -39.5q0 -29 -11 -54.5t-11 -53.5q0 -23 14 -49.5t53 -55.5q25 -18 48.5 -27.5t44 -15.5t32.5 -13t12 -20q0 -14 -32 -14q-18 0 -47 7.5t-68 23.5q-29 12 -58.5 31.5t-54 46t-41 62.5t-16.5 81zM125 592q0 61 4 144 t17.5 157t38 125t67.5 51q23 0 37 -19.5t21 -49t10.5 -62.5t3.5 -59q0 -59 -5.5 -133t-15.5 -150t-24.5 -146.5t-34.5 -121.5q6 -25 21.5 -43.5t31.5 -28.5q20 -14 27.5 -21.5t7.5 -17.5q0 -18 -20.5 -32.5t-51.5 -14.5q-45 0 -71.5 44t-41 108.5t-18.5 137t-4 132.5z M205 643q0 -66 5 -131.5t17 -126.5q14 80 25.5 182.5t11.5 210.5q0 86 -6 128t-12 42q-8 0 -15.5 -25.5t-13.5 -68.5t-9 -98.5t-3 -112.5z" />
<glyph unicode="&#xed;" horiz-adv-x="499" d="M121 1237q0 17 33 29q35 14 73.5 31.5t70.5 40t53.5 52t21.5 68.5q0 16 -4 32.5t-4 33.5q0 31 18 44t37 13q35 0 59.5 -31.5t24.5 -74.5q0 -57 -37 -99.5t-90 -72t-111.5 -49t-101.5 -29.5q-6 -2 -19 -2q-25 0 -24 14zM125 592q0 61 4 144t17.5 157t38 125t67.5 51 q23 0 37 -19.5t21 -49t10.5 -62.5t3.5 -59q0 -59 -5.5 -133t-15.5 -150t-24.5 -146.5t-34.5 -121.5q6 -25 21.5 -43.5t31.5 -28.5q20 -14 27.5 -21.5t7.5 -17.5q0 -18 -20.5 -32.5t-51.5 -14.5q-45 0 -71.5 44t-41 108.5t-18.5 137t-4 132.5zM205 643q0 -66 5 -131.5 t17 -126.5q14 80 25.5 182.5t11.5 210.5q0 86 -6 128t-12 42q-8 0 -15.5 -25.5t-13.5 -68.5t-9 -98.5t-3 -112.5z" />
<glyph unicode="&#xee;" horiz-adv-x="499" d="M18 1284q1 13 17 23q68 41 110.5 91t53.5 130q4 23 11 43t28 20q12 0 18 -13t9 -31.5t4 -40t5 -38.5q12 -57 55.5 -95t100.5 -54q51 -14 51 -29q-2 -18 -28.5 -29.5t-61.5 -11.5q-63 0 -115.5 40t-70.5 108q-8 -16 -27.5 -39t-44 -43.5t-50.5 -34.5t-44 -14q-20 0 -21 18 zM125 592q0 61 4 144t17.5 157t38 125t67.5 51q23 0 37 -19.5t21 -49t10.5 -62.5t3.5 -59q0 -59 -5.5 -133t-15.5 -150t-24.5 -146.5t-34.5 -121.5q6 -25 21.5 -43.5t31.5 -28.5q20 -14 27.5 -21.5t7.5 -17.5q0 -18 -20.5 -32.5t-51.5 -14.5q-45 0 -71.5 44t-41 108.5 t-18.5 137t-4 132.5zM205 643q0 -66 5 -131.5t17 -126.5q14 80 25.5 182.5t11.5 210.5q0 86 -6 128t-12 42q-8 0 -15.5 -25.5t-13.5 -68.5t-9 -98.5t-3 -112.5z" />
<glyph unicode="&#xef;" horiz-adv-x="499" d="M74 1329q0 17 4 25q2 27 20.5 53.5t46.5 26.5q29 0 40.5 -28t11.5 -56q0 -25 -20.5 -54.5t-49.5 -29.5q-25 0 -39 20.5t-14 42.5zM125 592q0 61 4 144t17.5 157t38 125t67.5 51q23 0 37 -19.5t21 -49t10.5 -62.5t3.5 -59q0 -59 -5.5 -133t-15.5 -150t-24.5 -146.5 t-34.5 -121.5q6 -25 21.5 -43.5t31.5 -28.5q20 -14 27.5 -21.5t7.5 -17.5q0 -18 -20.5 -32.5t-51.5 -14.5q-45 0 -71.5 44t-41 108.5t-18.5 137t-4 132.5zM205 643q0 -66 5 -131.5t17 -126.5q14 80 25.5 182.5t11.5 210.5q0 86 -6 128t-12 42q-8 0 -15.5 -25.5t-13.5 -68.5 t-9 -98.5t-3 -112.5zM248 1325q0 18 8 39.5t22.5 40t33 31t38.5 12.5q37 0 57.5 -25.5t20.5 -66.5q0 -14 -4 -35t-13.5 -39t-24.5 -31.5t-40 -13.5q-35 0 -66.5 23.5t-31.5 64.5zM315 1350q14 -12 19.5 -23t9.5 -27q18 4 23.5 18.5t5.5 31.5q0 16 -4 29.5t-21 13.5 q-10 -2 -18 -14.5t-15 -28.5z" />
<glyph unicode="&#xf0;" horiz-adv-x="1007" d="M76 602q0 96 41 182t106.5 159t145.5 131.5t159 96.5q-47 92 -86 164t-69 131q-55 -20 -105.5 -33.5t-81.5 -13.5q-12 0 -23 4t-11 11q0 8 11 15t26.5 11t29.5 7t21 6q29 8 55.5 18t54.5 20q-45 90 -67.5 154t-22.5 123q0 43 15.5 79t42 61.5t59.5 41t69 15.5 q51 0 95.5 -29t44.5 -82q0 -39 -25.5 -62.5t-60.5 -23.5q-25 0 -44.5 13.5t-19.5 35.5q0 20 15.5 32.5t25.5 22.5q-23 33 -51 33q-29 0 -55.5 -25.5t-26.5 -78.5q0 -29 9 -64t32 -78q16 -31 33.5 -61.5t36.5 -61.5q63 29 115.5 49.5t82.5 20.5q16 0 26.5 -7t10.5 -17 q0 -21 -41 -31q-29 -8 -73 -24.5t-93 -37.5q47 -74 94.5 -146.5t88.5 -141.5q10 4 27.5 6t39.5 2q29 0 53.5 -8.5t24.5 -30.5q0 -18 -19.5 -26.5t-27.5 -12.5q-14 -4 -25.5 -8t-21.5 -8q39 -68 76.5 -137.5t66.5 -142.5t46.5 -148.5t17.5 -155.5q0 -86 -29 -165t-81 -139.5 t-126 -96t-164 -35.5q-94 0 -176 45t-142.5 115.5t-95 157.5t-34.5 169zM164 604q0 -72 28.5 -143.5t77.5 -130t112.5 -94t135.5 -35.5q29 0 53 6q-57 0 -110 31.5t-97.5 81t-79 112t-53.5 123.5q-14 41 -25 84t-20 90q-22 -62 -22 -125zM219 788q6 -78 36 -169t79 -169.5 t115.5 -132t146.5 -53.5q51 0 88 22.5t60.5 58.5t35 80t11.5 89q0 66 -21.5 138.5t-53.5 146t-70 144t-71 136.5q-47 -31 -97 -62.5t-97 -66.5t-89 -74.5t-73 -87.5z" />
<glyph unicode="&#xf1;" horiz-adv-x="1134" d="M27 1300q0 29 23.5 53.5t58.5 24.5q33 0 55 -26.5t37.5 -61.5t24 -71t12.5 -56q14 -70 24 -146.5t14 -144.5q31 66 75 149t100.5 156.5t128 125t161.5 51.5q76 0 119 -35t65.5 -89t29 -122t6.5 -131q0 -131 -13.5 -272.5t-13.5 -276.5q0 -109 14.5 -184.5t44.5 -89.5 q23 23 41.5 36t52.5 13q20 0 41 -11.5t21 -39.5q0 -20 -10.5 -38t-26.5 -30t-35.5 -19.5t-38.5 -7.5q-66 0 -100.5 34t-51 86t-19.5 113.5t-3 115.5v172.5t-3 139t-8 116t-13 102.5q-14 78 -35 129t-45.5 82t-52 43t-56.5 12q-35 0 -68.5 -21.5t-68.5 -56.5 q-45 -53 -82 -118.5t-64.5 -133t-47 -129t-27.5 -106.5q0 -18 3 -47t5 -66t4 -77.5t2 -81.5q0 -102 -16.5 -158.5t-69.5 -56.5q-43 0 -57 50t-14 136q0 43 3 87t7 84t8 72.5t8 51.5q0 78 -3 171t-10 182t-19.5 164t-30.5 116q-12 -23 -35 -23q-16 0 -33.5 16.5t-17.5 42.5z M240 1634q0 63 44 92t99 29q61 0 108.5 -25.5t86 -57.5t73.5 -57.5t76 -25.5q29 0 44 14.5t15 34.5t-12 35t-25.5 25t-25.5 18t-12 21q0 25 24 24q20 0 38 -12t28 -31.5t16 -42t6 -43.5q0 -39 -15 -67.5t-39 -48t-52.5 -28.5t-54.5 -9q-55 0 -97.5 35.5t-79 78.5t-70.5 79 t-69 36q-20 0 -36.5 -13.5t-16.5 -37.5q0 -18 10 -29q14 8 25 8q16 0 23 -12t7 -29q0 -20 -16 -33.5t-41 -13.5q-27 0 -44 25.5t-17 60.5zM682 1239q47 -8 82 -36.5t59.5 -74t41 -102.5t26.5 -121q0 63 -4 124t-20.5 109t-49.5 77.5t-92 29.5q-23 0 -43 -6z" />
<glyph unicode="&#xf2;" d="M72 678q0 92 33.5 188.5t95 176t147.5 130t191 50.5q100 0 179 -57.5t132 -143.5t80.5 -186.5t27.5 -186.5q0 -90 -24.5 -172t-71.5 -143.5t-115.5 -98t-158.5 -36.5q-100 0 -193.5 37.5t-165 102t-114.5 153t-43 186.5zM156 756q0 -78 30.5 -157t86 -142.5t133 -103.5 t172.5 -40q74 0 127 27t85.5 73t48 107.5t15.5 132.5q0 70 -10 158t-43 166t-95.5 130t-166.5 52q-55 0 -90 -20.5t-55.5 -52t-29 -72.5t-8.5 -80q0 -35 7.5 -77t23.5 -79t41 -61.5t61 -24.5q29 0 53.5 11.5t37.5 23.5q-41 16 -78 37.5t-37 69.5q0 27 21.5 48t70.5 21 q63 0 98 -27.5t35 -80.5q0 -35 -14 -68t-39 -57.5t-56.5 -39t-64.5 -14.5q-55 0 -98 34t-73 86t-46 112.5t-16 116.5q-1 74 30 135q-78 -74 -117.5 -162t-39.5 -182zM332 1583q0 45 19.5 78t60.5 33q31 0 43 -20.5t12 -39.5q0 -29 -11.5 -54.5t-11.5 -53.5q0 -23 14.5 -49.5 t53.5 -55.5q25 -18 48.5 -27.5t44 -15.5t32.5 -13t12 -19q0 -14 -33 -15q-18 0 -46.5 7.5t-67.5 23.5q-29 12 -58.5 31.5t-54 46t-41 62.5t-16.5 81z" />
<glyph unicode="&#xf3;" d="M72 678q0 92 33.5 188.5t95 176t147.5 130t191 50.5q100 0 179 -57.5t132 -143.5t80.5 -186.5t27.5 -186.5q0 -90 -24.5 -172t-71.5 -143.5t-115.5 -98t-158.5 -36.5q-100 0 -193.5 37.5t-165 102t-114.5 153t-43 186.5zM156 756q0 -78 30.5 -157t86 -142.5t133 -103.5 t172.5 -40q74 0 127 27t85.5 73t48 107.5t15.5 132.5q0 70 -10 158t-43 166t-95.5 130t-166.5 52q-55 0 -90 -20.5t-55.5 -52t-29 -72.5t-8.5 -80q0 -35 7.5 -77t23.5 -79t41 -61.5t61 -24.5q29 0 53.5 11.5t37.5 23.5q-41 16 -78 37.5t-37 69.5q0 27 21.5 48t70.5 21 q63 0 98 -27.5t35 -80.5q0 -35 -14 -68t-39 -57.5t-56.5 -39t-64.5 -14.5q-55 0 -98 34t-73 86t-46 112.5t-16 116.5q-1 74 30 135q-78 -74 -117.5 -162t-39.5 -182zM426 1360q0 17 33 29q35 14 73.5 31.5t70.5 40t53.5 52t21.5 68.5q0 16 -4 32.5t-4 33.5q0 31 18.5 44 t36.5 13q35 0 59.5 -32t24.5 -75q0 -57 -37 -99t-90 -71.5t-111.5 -49t-101.5 -29.5q-6 -2 -18 -2q-25 0 -25 14z" />
<glyph unicode="&#xf4;" d="M72 678q0 92 33.5 188.5t95 176t147.5 130t191 50.5q100 0 179 -57.5t132 -143.5t80.5 -186.5t27.5 -186.5q0 -90 -24.5 -172t-71.5 -143.5t-115.5 -98t-158.5 -36.5q-100 0 -193.5 37.5t-165 102t-114.5 153t-43 186.5zM156 756q0 -78 30.5 -157t86 -142.5t133 -103.5 t172.5 -40q74 0 127 27t85.5 73t48 107.5t15.5 132.5q0 70 -10 158t-43 166t-95.5 130t-166.5 52q-55 0 -90 -20.5t-55.5 -52t-29 -72.5t-8.5 -80q0 -35 7.5 -77t23.5 -79t41 -61.5t61 -24.5q29 0 53.5 11.5t37.5 23.5q-41 16 -78 37.5t-37 69.5q0 27 21.5 48t70.5 21 q63 0 98 -27.5t35 -80.5q0 -35 -14 -68t-39 -57.5t-56.5 -39t-64.5 -14.5q-55 0 -98 34t-73 86t-46 112.5t-16 116.5q-1 74 30 135q-78 -74 -117.5 -162t-39.5 -182zM336 1366q0 13 16 23q68 41 111 91t53 130q4 23 11.5 43t27.5 20q12 0 18.5 -13t9.5 -31.5t4 -40t5 -38.5 q12 -57 55 -95t101 -54q51 -14 51 -29q-2 -18 -29 -29.5t-61 -11.5q-63 0 -115.5 40t-71.5 108q-8 -16 -27.5 -39t-44 -43.5t-50 -34.5t-44.5 -14q-20 0 -20 18z" />
<glyph unicode="&#xf5;" d="M72 678q0 92 33.5 188.5t95 176t147.5 130t191 50.5q100 0 179 -57.5t132 -143.5t80.5 -186.5t27.5 -186.5q0 -90 -24.5 -172t-71.5 -143.5t-115.5 -98t-158.5 -36.5q-100 0 -193.5 37.5t-165 102t-114.5 153t-43 186.5zM156 756q0 -78 30.5 -157t86 -142.5t133 -103.5 t172.5 -40q74 0 127 27t85.5 73t48 107.5t15.5 132.5q0 70 -10 158t-43 166t-95.5 130t-166.5 52q-55 0 -90 -20.5t-55.5 -52t-29 -72.5t-8.5 -80q0 -35 7.5 -77t23.5 -79t41 -61.5t61 -24.5q29 0 53.5 11.5t37.5 23.5q-41 16 -78 37.5t-37 69.5q0 27 21.5 48t70.5 21 q63 0 98 -27.5t35 -80.5q0 -35 -14 -68t-39 -57.5t-56.5 -39t-64.5 -14.5q-55 0 -98 34t-73 86t-46 112.5t-16 116.5q-1 74 30 135q-78 -74 -117.5 -162t-39.5 -182zM268 1450q0 63 44 92t100 29q61 0 108 -25.5t86 -57.5t74 -57.5t76 -25.5q29 0 44 14.5t15 34.5t-12 34.5 t-25.5 25t-26 18.5t-12.5 20q0 25 25 25q20 0 37.5 -12.5t28 -32t16.5 -42t6 -42.5q0 -39 -15.5 -67.5t-39 -48t-52 -29t-55.5 -9.5q-55 0 -97 36t-79 79t-70.5 79t-68.5 36q-20 0 -36.5 -13.5t-16.5 -37.5q0 -18 10 -29q14 8 24 8q16 0 23.5 -12.5t7.5 -28.5 q0 -20 -16.5 -33.5t-40.5 -13.5q-27 0 -44.5 25.5t-17.5 60.5z" />
<glyph unicode="&#xf6;" d="M72 678q0 92 33.5 188.5t95 176t147.5 130t191 50.5q100 0 179 -57.5t132 -143.5t80.5 -186.5t27.5 -186.5q0 -90 -24.5 -172t-71.5 -143.5t-115.5 -98t-158.5 -36.5q-100 0 -193.5 37.5t-165 102t-114.5 153t-43 186.5zM156 756q0 -78 30.5 -157t86 -142.5t133 -103.5 t172.5 -40q74 0 127 27t85.5 73t48 107.5t15.5 132.5q0 70 -10 158t-43 166t-95.5 130t-166.5 52q-55 0 -90 -20.5t-55.5 -52t-29 -72.5t-8.5 -80q0 -35 7.5 -77t23.5 -79t41 -61.5t61 -24.5q29 0 53.5 11.5t37.5 23.5q-41 16 -78 37.5t-37 69.5q0 27 21.5 48t70.5 21 q63 0 98 -27.5t35 -80.5q0 -35 -14 -68t-39 -57.5t-56.5 -39t-64.5 -14.5q-55 0 -98 34t-73 86t-46 112.5t-16 116.5q-1 74 30 135q-78 -74 -117.5 -162t-39.5 -182zM403 1407q1 17 5 25q2 27 20 53t47 26t40 -27.5t11 -56.5q0 -25 -20.5 -54.5t-48.5 -29.5 q-25 0 -39.5 20.5t-14.5 43.5zM578 1403q0 18 8 39.5t22.5 40t33 31t38.5 12.5q37 0 57.5 -25.5t20.5 -66.5q0 -14 -4 -35t-13.5 -39.5t-25 -31.5t-39.5 -13q-35 0 -66.5 23.5t-31.5 64.5zM645 1427q14 -12 19.5 -22.5t9.5 -26.5q18 4 23 18.5t5 30.5t-4 29.5t-20 13.5 q-10 -2 -18.5 -14t-14.5 -29z" />
<glyph unicode="&#xf7;" horiz-adv-x="935" d="M63 707q0 20 30 27t69 11q49 6 107.5 11.5t121 9.5t126 6t124.5 2q35 0 67.5 -1t65.5 -3q18 -2 43 -8t25 -29q0 -25 -39 -50.5t-105 -25.5q-133 0 -242.5 10.5t-213.5 10.5h-44.5t-43.5 -2q0 -12 -10.5 -19.5t-22.5 -7.5q-20 0 -39 19.5t-19 38.5zM258 434 q0 35 14.5 58.5t36 39t48 22.5t53.5 7q37 0 73.5 -13t65.5 -38t46 -56.5t17 -68.5q-2 -33 -18 -56.5t-39 -38t-51.5 -21.5t-54.5 -7q-37 0 -72 12.5t-60.5 35t-42 54t-16.5 70.5zM326 993q6 74 57 112t106 38q47 0 83 -26.5t36 -82.5q0 -37 -14 -67.5t-38 -54t-55.5 -37 t-64.5 -13.5q-31 1 -51 21q-23 2 -34 13t-17 27.5t-7 35t-1 34.5zM328 408q18 -41 52 -63.5t75 -22.5q35 0 58.5 20t23.5 55q0 37 -27 53.5t-57 16.5q-29 0 -62.5 -14t-62.5 -45zM397 979q0 -27 11 -45.5t36 -18.5q14 0 33 7.5t35 18.5t26.5 26.5t10.5 31.5q0 35 -17.5 56.5 t-46.5 21.5q-41 0 -64.5 -31.5t-23.5 -66.5z" />
<glyph unicode="&#xf8;" d="M72 678q0 92 33.5 188.5t95 176t147.5 130t191 50.5q82 0 148.5 -39t117.5 -101q41 49 69 82q35 37 44 37q4 0 10 -4t6 -14q0 -14 -16 -33q-14 -16 -36 -43t-51 -61q61 -90 94 -198t33 -200q0 -90 -24.5 -172t-71.5 -143.5t-115.5 -98t-158.5 -36.5q-92 0 -176 30.5 t-154 83.5q-16 -20 -34.5 -39.5t-35.5 -40.5q-12 -12 -26 -12q-12 0 -19.5 9.5t-7.5 21.5q0 18 15 33q10 14 26.5 32.5t32.5 40.5q-63 63 -100 145.5t-37 174.5zM156 756q0 -82 33.5 -163t93.5 -147q35 43 74.5 91.5t80.5 99.5q-37 20 -65.5 58t-49 83t-30.5 94.5t-10 92.5 q-1 74 30 135q-78 -74 -117.5 -162t-39.5 -182zM330 401q51 -41 113.5 -64.5t134.5 -23.5q74 0 127 27t85.5 73t48 107.5t15.5 132.5q0 76 -12.5 169t-50.5 173q-29 -37 -57.5 -74.5t-57.5 -72.5q6 -12 10 -24.5t4 -28.5q0 -35 -14 -68t-39 -57.5t-56.5 -39t-64.5 -14.5h-18 q-41 -53 -83 -107t-85 -108zM356 934q0 -35 7.5 -76t21.5 -77t37.5 -61.5t58.5 -27.5q12 14 23.5 27.5t23.5 28.5q-29 14 -46 33.5t-17 52.5q0 27 21.5 48t70.5 21q51 0 82 -18q35 41 67.5 80t61.5 73q-35 53 -91 87t-138 34q-55 0 -90 -20.5t-55.5 -52t-29 -72.5t-8.5 -80z " />
<glyph unicode="&#xf9;" horiz-adv-x="1112" d="M31 1180q0 39 34.5 72.5t88.5 33.5q41 0 67.5 -16.5t43 -42t23.5 -59t7 -68.5q0 -43 -8 -120t-19.5 -164t-19.5 -172t-8 -146q0 -143 39.5 -204t91.5 -61q47 0 95 41t91 99.5t77 124t54 112.5q-6 68 -10 141.5t-4 174.5q0 143 18.5 219t69.5 76q27 0 43 -15.5t26.5 -40 t14.5 -54.5t4 -60q0 -111 -20.5 -230t-57.5 -231q27 -145 67 -226t81 -81q20 0 36.5 21.5t28.5 46t24.5 46t24.5 21.5q16 0 26.5 -24.5t10.5 -61.5q0 -33 -11 -70t-32.5 -68.5t-53.5 -52t-73 -20.5q-39 0 -68.5 24.5t-53 66.5t-41 100.5t-29.5 125.5q-25 -47 -59 -100 t-76 -97t-91 -74t-100 -30q-37 0 -79 24.5t-75.5 75t-56 126t-22.5 180.5q0 82 8 173t17 174t17.5 147.5t8.5 95.5q-27 -41 -82 -41q-41 0 -64.5 29.5t-23.5 58.5zM258 1554q0 45 19.5 78t60.5 33q31 0 43 -20.5t12 -38.5q0 -29 -11 -54.5t-11 -54.5q0 -23 14 -49.5 t53 -54.5q25 -18 48.5 -27.5t44 -16t32.5 -13.5t12 -19q0 -14 -32 -14q-18 0 -47 7t-68 23q-29 12 -58.5 31.5t-54 46.5t-41 62.5t-16.5 80.5zM737 1036q0 -70 2 -133t9 -123q8 37 14 79t10 81t6 73t2 56q0 53 -7 73.5t-13 20.5t-13.5 -25.5t-9.5 -101.5z" />
<glyph unicode="&#xfa;" horiz-adv-x="1112" d="M31 1180q0 39 34.5 72.5t88.5 33.5q41 0 67.5 -16.5t43 -42t23.5 -59t7 -68.5q0 -43 -8 -120t-19.5 -164t-19.5 -172t-8 -146q0 -143 39.5 -204t91.5 -61q47 0 95 41t91 99.5t77 124t54 112.5q-6 68 -10 141.5t-4 174.5q0 143 18.5 219t69.5 76q27 0 43 -15.5t26.5 -40 t14.5 -54.5t4 -60q0 -111 -20.5 -230t-57.5 -231q27 -145 67 -226t81 -81q20 0 36.5 21.5t28.5 46t24.5 46t24.5 21.5q16 0 26.5 -24.5t10.5 -61.5q0 -33 -11 -70t-32.5 -68.5t-53.5 -52t-73 -20.5q-39 0 -68.5 24.5t-53 66.5t-41 100.5t-29.5 125.5q-25 -47 -59 -100 t-76 -97t-91 -74t-100 -30q-37 0 -79 24.5t-75.5 75t-56 126t-22.5 180.5q0 82 8 173t17 174t17.5 147.5t8.5 95.5q-27 -41 -82 -41q-41 0 -64.5 29.5t-23.5 58.5zM459 1319q0 17 33 29q35 14 73.5 31.5t70.5 40t53.5 52t21.5 68.5q0 16 -4.5 32.5t-4.5 33.5q0 31 18.5 44 t37.5 13q35 0 59.5 -32t24.5 -75q0 -57 -37 -99t-90 -71.5t-111.5 -49t-101.5 -29.5q-6 -2 -19 -2q-25 0 -24 14zM737 1036q0 -70 2 -133t9 -123q8 37 14 79t10 81t6 73t2 56q0 53 -7 73.5t-13 20.5t-13.5 -25.5t-9.5 -101.5z" />
<glyph unicode="&#xfb;" horiz-adv-x="1112" d="M31 1180q0 39 34.5 72.5t88.5 33.5q41 0 67.5 -16.5t43 -42t23.5 -59t7 -68.5q0 -43 -8 -120t-19.5 -164t-19.5 -172t-8 -146q0 -143 39.5 -204t91.5 -61q47 0 95 41t91 99.5t77 124t54 112.5q-6 68 -10 141.5t-4 174.5q0 143 18.5 219t69.5 76q27 0 43 -15.5t26.5 -40 t14.5 -54.5t4 -60q0 -111 -20.5 -230t-57.5 -231q27 -145 67 -226t81 -81q20 0 36.5 21.5t28.5 46t24.5 46t24.5 21.5q16 0 26.5 -24.5t10.5 -61.5q0 -33 -11 -70t-32.5 -68.5t-53.5 -52t-73 -20.5q-39 0 -68.5 24.5t-53 66.5t-41 100.5t-29.5 125.5q-25 -47 -59 -100 t-76 -97t-91 -74t-100 -30q-37 0 -79 24.5t-75.5 75t-56 126t-22.5 180.5q0 82 8 173t17 174t17.5 147.5t8.5 95.5q-27 -41 -82 -41q-41 0 -64.5 29.5t-23.5 58.5zM299 1370q0 13 16 23q68 41 111 91t53 130q4 23 11.5 43t27.5 20q12 0 18.5 -13t9.5 -31.5t4 -40t5 -38.5 q12 -57 55 -95t101 -54q51 -14 51 -29q-2 -18 -28.5 -29.5t-61.5 -11.5q-63 0 -115.5 40t-71.5 108q-8 -16 -27.5 -39t-44 -43.5t-50 -34.5t-44.5 -14q-20 0 -20 18zM737 1036q0 -70 2 -133t9 -123q8 37 14 79t10 81t6 73t2 56q0 53 -7 73.5t-13 20.5t-13.5 -25.5 t-9.5 -101.5z" />
<glyph unicode="&#xfc;" horiz-adv-x="1112" d="M31 1180q0 39 34.5 72.5t88.5 33.5q41 0 67.5 -16.5t43 -42t23.5 -59t7 -68.5q0 -43 -8 -120t-19.5 -164t-19.5 -172t-8 -146q0 -143 39.5 -204t91.5 -61q47 0 95 41t91 99.5t77 124t54 112.5q-6 68 -10 141.5t-4 174.5q0 143 18.5 219t69.5 76q27 0 43 -15.5t26.5 -40 t14.5 -54.5t4 -60q0 -111 -20.5 -230t-57.5 -231q27 -145 67 -226t81 -81q20 0 36.5 21.5t28.5 46t24.5 46t24.5 21.5q16 0 26.5 -24.5t10.5 -61.5q0 -33 -11 -70t-32.5 -68.5t-53.5 -52t-73 -20.5q-39 0 -68.5 24.5t-53 66.5t-41 100.5t-29.5 125.5q-25 -47 -59 -100 t-76 -97t-91 -74t-100 -30q-37 0 -79 24.5t-75.5 75t-56 126t-22.5 180.5q0 82 8 173t17 174t17.5 147.5t8.5 95.5q-27 -41 -82 -41q-41 0 -64.5 29.5t-23.5 58.5zM317 1391q1 16 5 24q2 27 20 53.5t47 26.5t40 -27.5t11 -56.5q0 -25 -20.5 -54.5t-48.5 -29.5 q-25 0 -39.5 20.5t-14.5 43.5zM492 1386q0 18 8 40t22.5 40.5t33 30.5t38.5 12q37 0 57.5 -25.5t20.5 -66.5q0 -14 -4 -34.5t-13.5 -39t-25 -32t-39.5 -13.5q-35 0 -66.5 24t-31.5 64zM559 1411q14 -12 19.5 -22.5t9.5 -26.5q18 4 23 18.5t5 30.5t-4 29.5t-20 13.5 q-10 -2 -18.5 -14.5t-14.5 -28.5zM737 1036q0 -70 2 -133t9 -123q8 37 14 79t10 81t6 73t2 56q0 53 -7 73.5t-13 20.5t-13.5 -25.5t-9.5 -101.5z" />
</font>
</defs>
</svg>
